<?xml version="1.0" encoding="UTF-8" standalone="no"?>
<!-- Created with Inkscape (http://www.inkscape.org/) -->

<svg
   xmlns:dc="http://purl.org/dc/elements/1.1/"
   xmlns:cc="http://creativecommons.org/ns#"
   xmlns:rdf="http://www.w3.org/1999/02/22-rdf-syntax-ns#"
   xmlns:svg="http://www.w3.org/2000/svg"
   xmlns="http://www.w3.org/2000/svg"
   xmlns:sodipodi="http://sodipodi.sourceforge.net/DTD/sodipodi-0.dtd"
   xmlns:inkscape="http://www.inkscape.org/namespaces/inkscape"
   sodipodi:docname="drawing.svg"
   inkscape:version="0.92.2 (5c3e80d, 2017-08-06)"
   id="svg8"
   version="1.1"
   viewBox="0 0 210 297"
   height="297mm"
   width="210mm">
  <sodipodi:namedview
     inkscape:window-maximized="1"
     inkscape:window-y="-8"
     inkscape:window-x="1592"
     inkscape:window-height="1057"
     inkscape:window-width="1858"
     inkscape:lockguides="true"
     showgrid="false"
     inkscape:current-layer="layer1"
     inkscape:document-units="mm"
     inkscape:cy="68.253353"
     inkscape:cx="269.17683"
     inkscape:zoom="4"
     inkscape:pageshadow="2"
     inkscape:pageopacity="0.0"
     borderopacity="1.0"
     bordercolor="#666666"
     pagecolor="#ffffff"
     id="base" />
  <defs
     id="defs2">
    <inkscape:perspective
       sodipodi:type="inkscape:persp3d"
       inkscape:vp_x="8.8546047 : 144.52597 : 1"
       inkscape:vp_y="0 : 1000 : 0"
       inkscape:vp_z="218.8546 : 144.52597 : 1"
       inkscape:persp3d-origin="113.8546 : 95.02597 : 1"
       id="perspective985" />
    <inkscape:perspective
       sodipodi:type="inkscape:persp3d"
       inkscape:vp_x="22.229038 : 136.91573 : 1"
       inkscape:vp_y="0 : 1056.8021 : 0"
       inkscape:vp_z="224.85088 : 136.91573 : 1"
       inkscape:persp3d-origin="123.53994 : 84.604047 : 1"
       id="perspective985-6" />
    <inkscape:perspective
       sodipodi:type="inkscape:persp3d"
       inkscape:vp_x="-6.2547234 : 72.841905 : 1"
       inkscape:vp_y="0 : 426.76539 : 0"
       inkscape:vp_z="237.37859 : 72.841905 : 1"
       inkscape:persp3d-origin="115.56193 : 51.717025 : 1"
       id="perspective985-6-3" />
    <inkscape:perspective
       sodipodi:type="inkscape:persp3d"
       inkscape:vp_x="87.669777 : 36.898514 : 1"
       inkscape:vp_y="0 : 112.91501 : 0"
       inkscape:vp_z="152.98939 : 36.898514 : 1"
       inkscape:persp3d-origin="120.32959 : 31.309224 : 1"
       id="perspective985-6-3-5" />
    <inkscape:perspective
       sodipodi:type="inkscape:persp3d"
       inkscape:vp_x="113.02825 : 30.36176 : 1"
       inkscape:vp_y="29.338972 : 118.60644 : 0"
       inkscape:vp_z="156.54908 : 29.032581 : 1"
       inkscape:persp3d-origin="135.60333 : 25.800158 : 1"
       id="perspective985-6-3-4" />
    <inkscape:perspective
       sodipodi:type="inkscape:persp3d"
       inkscape:vp_x="-0.66440166 : 39.716181 : 1"
       inkscape:vp_y="-64.705294 : 433.68703 : 0"
       inkscape:vp_z="245.53095 : 76.863829 : 1"
       inkscape:persp3d-origin="125.63617 : 36.822507 : 1"
       id="perspective985-6-3-43" />
  </defs>
  <metadata
     id="metadata5">
    <rdf:RDF>
      <cc:Work
         rdf:about="">
        <dc:format>image/svg+xml</dc:format>
        <dc:type
           rdf:resource="http://purl.org/dc/dcmitype/StillImage" />
        <dc:title />
      </cc:Work>
    </rdf:RDF>
  </metadata>
  <g
     inkscape:label="Layer 1"
     inkscape:groupmode="layer"
     id="layer1">
    <rect
       style="fill:#040d17;fill-opacity:1;stroke-width:0.22222158"
       id="rect924"
       width="180.13966"
       height="107.84326"
       x="3.288774"
       y="3.7524397" />
    <text
       xml:space="preserve"
       style="font-style:normal;font-variant:normal;font-weight:normal;font-stretch:normal;font-size:10.58333302px;line-height:1.25;font-family:Orbitron;-inkscape-font-specification:Orbitron;letter-spacing:0px;word-spacing:0px;fill:#ffffff;fill-opacity:1;stroke:none;stroke-width:0.26458332;stroke-opacity:1"
       x="73.231445"
       y="50.013905"
       id="text817"><tspan
         sodipodi:role="line"
         id="tspan815"
         x="73.231445"
         y="50.013905"
         style="font-style:normal;font-variant:normal;font-weight:normal;font-stretch:normal;font-family:Orbitron;-inkscape-font-specification:Orbitron;letter-spacing:-0.37835416px;fill:#ffffff;fill-opacity:1;stroke:none;stroke-width:0.26458332;stroke-opacity:1">SAULIUS</tspan></text>
    <text
       xml:space="preserve"
       style="font-style:normal;font-variant:normal;font-weight:normal;font-stretch:normal;font-size:10.58333302px;line-height:1.25;font-family:Orbitron;-inkscape-font-specification:Orbitron;letter-spacing:0px;word-spacing:0px;fill:#ffffff;fill-opacity:1;stroke:none;stroke-width:0.26458332;stroke-opacity:1"
       x="65.208031"
       y="58.310963"
       id="text817-4"><tspan
         sodipodi:role="line"
         id="tspan815-5"
         x="65.208031"
         y="58.310963"
         style="font-style:normal;font-variant:normal;font-weight:normal;font-stretch:normal;font-family:Orbitron;-inkscape-font-specification:Orbitron;letter-spacing:-0.37835416px;fill:#ffffff;fill-opacity:1;stroke:none;stroke-width:0.26458332;stroke-opacity:1">GTO</tspan></text>
    <text
       xml:space="preserve"
       style="font-style:normal;font-variant:normal;font-weight:normal;font-stretch:normal;font-size:10.58333302px;line-height:1.25;font-family:Orbitron;-inkscape-font-specification:Orbitron;letter-spacing:0px;word-spacing:0px;fill:#ffffff;fill-opacity:1;stroke:none;stroke-width:0.26458332;stroke-opacity:1"
       x="73.302589"
       y="66.323738"
       id="text817-4-2"><tspan
         sodipodi:role="line"
         id="tspan815-5-0"
         x="73.302589"
         y="66.323738"
         style="font-style:normal;font-variant:normal;font-weight:normal;font-stretch:normal;font-family:Orbitron;-inkscape-font-specification:Orbitron;letter-spacing:-0.37835416px;fill:#ffffff;fill-opacity:1;stroke:none;stroke-width:0.26458332;stroke-opacity:1">3000</tspan></text>
    <path
       style="fill:none;fill-opacity:1;stroke:#00e700;stroke-width:0.26458332px;stroke-linecap:butt;stroke-linejoin:miter;stroke-opacity:1"
       d="m 67.131467,41.827228 v 8.28535 H 54.302528 v 14.03165 h 12.428029 v 7.21628 H 121.11989 V 57.061588 H 93.323872 V 39.822698 H 66.864197"
       id="path863"
       inkscape:connector-curvature="0" />
    <path
       style="fill:none;fill-opacity:1;stroke:#00e700;stroke-width:0.26458332px;stroke-linecap:butt;stroke-linejoin:miter;stroke-opacity:1"
       d="m 102.57152,40.330381 h 35.27956"
       id="path865"
       inkscape:connector-curvature="0" />
    <path
       style="fill:none;fill-opacity:1;stroke:#00e700;stroke-width:0.26458332px;stroke-linecap:butt;stroke-linejoin:miter;stroke-opacity:1"
       d="m 26.773762,68.794581 v 12.6953"
       id="path890"
       inkscape:connector-curvature="0" />
    <path
       style="fill:none;fill-opacity:1;stroke:#00e700;stroke-width:0.26458332px;stroke-linecap:butt;stroke-linejoin:miter;stroke-opacity:1"
       d="M 132.61248,30.508228 V 43.203531"
       id="path890-1"
       inkscape:connector-curvature="0" />
    <path
       style="fill:none;fill-opacity:1;stroke:#00e700;stroke-width:0.1820987px;stroke-linecap:butt;stroke-linejoin:miter;stroke-opacity:1"
       d="m 50.758846,48.548921 v 6.01356"
       id="path890-1-8"
       inkscape:connector-curvature="0" />
    <path
       style="fill:none;fill-opacity:1;stroke:#00e700;stroke-width:0.26458332px;stroke-linecap:butt;stroke-linejoin:miter;stroke-opacity:1"
       d="m 22.497451,74.540881 h 22.317005 v 7.08264 h -9.888971"
       id="path922"
       inkscape:connector-curvature="0" />
    <rect
       style="fill:#040d17;fill-opacity:1;stroke-width:0.23099773"
       id="rect924-1"
       width="180.13966"
       height="116.52953"
       x="0.081535339"
       y="116.94109" />
    <text
       xml:space="preserve"
       style="font-style:normal;font-variant:normal;font-weight:normal;font-stretch:normal;font-size:10.58333302px;line-height:1.25;font-family:Orbitron;-inkscape-font-specification:Orbitron;letter-spacing:0px;word-spacing:0px;fill:#ffffff;fill-opacity:1;stroke:none;stroke-width:0.26458332;stroke-opacity:1"
       x="73.231445"
       y="166.54343"
       id="text817-7"><tspan
         sodipodi:role="line"
         id="tspan815-4"
         x="73.231445"
         y="166.54343"
         style="font-style:normal;font-variant:normal;font-weight:bold;font-stretch:normal;font-family:Orbitron;-inkscape-font-specification:'Orbitron Bold';letter-spacing:-0.37835416px;fill:#ffffff;fill-opacity:1;stroke:none;stroke-width:0.26458332;stroke-opacity:1">SAULIUS</tspan></text>
    <text
       xml:space="preserve"
       style="font-style:normal;font-variant:normal;font-weight:normal;font-stretch:normal;font-size:10.58333302px;line-height:1.25;font-family:Orbitron;-inkscape-font-specification:Orbitron;letter-spacing:0px;word-spacing:0px;fill:#ffffff;fill-opacity:1;stroke:none;stroke-width:0.26458332;stroke-opacity:1"
       x="65.208023"
       y="174.84048"
       id="text817-4-4"><tspan
         sodipodi:role="line"
         id="tspan815-5-1"
         x="65.208023"
         y="174.84048"
         style="font-style:normal;font-variant:normal;font-weight:bold;font-stretch:normal;font-family:Orbitron;-inkscape-font-specification:'Orbitron Bold';letter-spacing:-0.37835416px;fill:#ffffff;fill-opacity:1;stroke:none;stroke-width:0.26458332;stroke-opacity:1">GTO</tspan></text>
    <text
       xml:space="preserve"
       style="font-style:normal;font-variant:normal;font-weight:normal;font-stretch:normal;font-size:10.58333302px;line-height:1.25;font-family:Orbitron;-inkscape-font-specification:Orbitron;letter-spacing:0px;word-spacing:0px;fill:#ffffff;fill-opacity:1;stroke:none;stroke-width:0.26458332;stroke-opacity:1"
       x="73.302582"
       y="182.85326"
       id="text817-4-2-5"><tspan
         sodipodi:role="line"
         id="tspan815-5-0-7"
         x="73.302582"
         y="182.85326"
         style="font-style:normal;font-variant:normal;font-weight:500;font-stretch:normal;font-family:Orbitron;-inkscape-font-specification:'Orbitron Medium';letter-spacing:-0.37835416px;fill:#ffffff;fill-opacity:1;stroke:none;stroke-width:0.26458332;stroke-opacity:1">3000</tspan></text>
    <text
       xml:space="preserve"
       style="font-style:normal;font-weight:normal;font-size:3.98837066px;line-height:1.25;font-family:sans-serif;letter-spacing:0px;word-spacing:0px;fill:#ffffff;fill-opacity:1;stroke:none;stroke-width:0.09970926;stroke-opacity:1"
       x="80.009674"
       y="223.27638"
       id="text861-3"><tspan
         sodipodi:role="line"
         id="tspan859-2"
         x="80.009674"
         y="223.27638"
         style="font-style:normal;font-variant:normal;font-weight:normal;font-stretch:normal;font-family:Orbitron;-inkscape-font-specification:Orbitron;fill:#ffffff;fill-opacity:1;stroke:none;stroke-width:0.09970926;stroke-opacity:1">scroll down</tspan></text>
    <rect
       style="fill:#040d17;fill-opacity:1;stroke-width:0.23099773"
       id="rect924-1-1"
       width="180.13966"
       height="116.52953"
       x="-48.294254"
       y="230.39702" />
    <path
       id="path1371-1"
       style="fill:#afafde;fill-opacity:1;fill-rule:evenodd;stroke:none;stroke-width:20.94340897;stroke-linejoin:round;stroke-opacity:1"
       d="m 107.79121,274.19257 28.27592,9.80302 40.84552,-19.75228 -26.46861,-6.50903 z"
       inkscape:connector-curvature="0" />
    <g
       aria-label="GTO"
       style="font-style:normal;font-weight:normal;font-size:11.36830807px;line-height:1.25;font-family:sans-serif;letter-spacing:0px;word-spacing:0px;fill:#000000;fill-opacity:1;stroke:none;stroke-width:0.2842077"
       id="text845-7-8-2"
       transform="matrix(0.98103367,0,0,-0.98103367,-49.714551,542.88059)">
      <path
         d="m 168.99528,276.71837 c 1.39934,0.53996 3.00028,0.90625 4.80941,1.10309 1.8011,0.19597 3.72235,0.1946 5.77663,-0.004 2.0522,-0.18667 4.12636,-0.60054 6.2388,-1.24803 0,0 -4.26417,-1.77703 -4.26417,-1.77703 -1.09049,0.34592 -2.22137,0.51412 -3.39896,0.50657 -1.20273,4.4e-4 -2.1824,-0.15249 -2.94284,-0.46033 -1.10754,-0.44836 -1.42814,-0.96311 -0.94911,-1.54641 0.45968,-0.58227 1.6648,-1.20028 3.63134,-1.85529 0,0 2.52354,-0.84055 2.52354,-0.84055 2.02975,-0.67607 3.91273,-1.07926 5.63062,-1.2026 1.6947,-0.11458 3.0924,0.0787 4.18162,0.57626 0.74754,0.34146 1.03615,0.7407 0.87099,1.19627 -0.19078,0.45988 -0.82687,0.8599 -1.90374,1.20149 0,0 -3.23407,-1.43342 -3.23407,-1.43342 0,0 -5.54937,1.80695 -5.54937,1.80695 0,0 7.509,3.18293 7.509,3.18293 0,0 15.58434,-4.77678 15.58434,-4.77678 0,0 -2.22349,-1.07067 -2.22349,-1.07067 0,0 -3.32703,0.69677 -3.32703,0.69677 1.01321,-1.30832 0.50334,-2.47265 -1.58231,-3.48124 -2.39832,-1.15979 -5.52935,-1.61296 -9.33512,-1.3401 -3.81317,0.28104 -8.14935,1.26607 -12.90283,2.91407 -4.5467,1.57631 -7.15702,3.03275 -7.92371,4.37789 -0.75446,1.32119 0.19221,2.47556 2.78046,3.47428 0,0 0,0 0,0"
         style="font-style:normal;font-variant:normal;font-weight:normal;font-stretch:normal;font-family:'Archivo Black';-inkscape-font-specification:'Archivo Black, ';letter-spacing:0px;fill:#000000;fill-opacity:1;stroke-width:0.2842077"
         id="path2520-2"
         inkscape:connector-curvature="0" />
      <path
         d="m 193.1954,281.53778 c 0,0 20.10233,-5.67699 20.10233,-5.67699 0,0 -3.93096,-1.89287 -3.93096,-1.89287 0,0 -20.24464,5.90954 -20.24464,5.90954 0,0 -4.33398,-1.76659 -4.33398,-1.76659 0,0 -6.40526,1.93636 -6.40526,1.93636 0,0 12.49898,4.83941 12.49898,4.83941 0,0 6.30269,-1.72282 6.30269,-1.72282 0,0 -3.98916,-1.62604 -3.98916,-1.62604"
         style="font-style:normal;font-variant:normal;font-weight:normal;font-stretch:normal;font-family:'Archivo Black';-inkscape-font-specification:'Archivo Black, ';letter-spacing:0px;fill:#000000;fill-opacity:1;stroke-width:0.2842077"
         id="path2522-5"
         inkscape:connector-curvature="0" />
      <path
         d="m 197.43267,287.69139 c 1.93018,0.74479 4.44354,1.04753 7.57521,0.91846 3.1421,-0.1295 6.79962,-0.70654 11.04803,-1.75129 4.36328,-1.07299 7.28629,-2.12977 8.70658,-3.16786 1.45695,-1.0649 1.30257,-2.04152 -0.51957,-2.92268 -1.86051,-0.89971 -4.55985,-1.27954 -8.05913,-1.12562 -3.50241,0.1657 -7.5494,0.87372 -12.05246,2.09773 -4.37624,1.18954 -7.05615,2.29086 -8.1115,3.30959 -1.04156,1.00441 -0.55466,1.88248 1.41284,2.64167 0,0 0,0 0,0 m 5.81894,-1.50266 c -0.77251,-0.31273 -0.8468,-0.68732 -0.21324,-1.12548 0.64048,-0.44293 1.86224,-0.90297 3.67572,-1.38061 0,0 2.41729,-0.63666 2.41729,-0.63666 1.86321,-0.49073 3.55987,-0.79533 5.07651,-0.90967 1.52079,-0.11465 2.6599,1.8e-4 3.40961,0.34263 0.74363,0.33968 0.7439,0.73952 0.0114,1.19776 -0.71409,0.45783 -1.99842,0.92044 -3.84295,1.38758 0,0 -2.39384,0.60625 -2.39384,0.60625 -1.79648,0.45497 -3.40968,0.72997 -4.85209,0.82866 -1.42818,0.1028 -2.52192,-1.6e-4 -3.28843,-0.31046 0,0 0,0 0,0"
         style="font-style:normal;font-variant:normal;font-weight:normal;font-stretch:normal;font-family:'Archivo Black';-inkscape-font-specification:'Archivo Black, ';letter-spacing:0px;fill:#000000;fill-opacity:1;stroke-width:0.2842077"
         id="path2524-9"
         inkscape:connector-curvature="0" />
    </g>
    <path
       id="path1373-1"
       style="fill:#d7d7ff;fill-opacity:1;fill-rule:evenodd;stroke:none;stroke-width:20.94340897;stroke-linejoin:round;stroke-opacity:1"
       d="m 136.06713,304.40334 v -20.40775 l 40.84552,-19.75228 v 16.47529 z"
       inkscape:connector-curvature="0" />
    <path
       sodipodi:nodetypes="ccccc"
       id="path1369-7-8"
       style="fill:#e9e9ff;fill-opacity:1;fill-rule:evenodd;stroke:none;stroke-width:20.94340897;stroke-linejoin:round;stroke-opacity:1"
       d="m 107.79121,274.19256 42.65283,-16.45828 V 240.1564 l -42.65283,16.10697 z"
       inkscape:connector-curvature="0" />
    <path
       style="stroke:none;fill:#000000"
       d="M10.5833333331 2.11666666662L15.8749999997 2.11666666662L15.8749999997 25.3999999995L10.5833333331 25.3999999995L10.5833333331 2.11666666662ZM2.11666666662 0.0L24.3416666662 0.0L24.3416666662 4.23333333325L23.2833333329 4.23333333325L23.2820421662 3.60127314808C23.3372530644 2.784956718 23.0086981847 2.1974533069 22.2005313329 2.15261454579L4.40406837028 2.15261454579C3.41718782401 2.13219341616 3.21729335179 2.65905303374 3.1762911666 3.60127314808L3.17499999994 4.23333333325L2.11666666662 4.23333333325L2.11666666662 0.0ZM2.11666666662 23.2833333329L3.17499999994 23.2833333329L3.1762911666 23.915393518C3.1206445879 24.7374545227 3.45330050919 25.3140780319 4.26414612029 25.3584833467L21.9877710551 25.3584833467C23.0099299671 25.3905214486 23.2382042357 24.9227757449 23.2820421662 23.915393518L23.2833333329 23.2833333329L24.3416666662 23.2833333329L24.3416666662 27.5166666661L2.11666666662 27.5166666661L2.11666666662 23.2833333329ZM27.218367828 14.8166666664L31.4517011612 14.8166666664L31.4517011612 23.2833333329L27.218367828 23.2833333329L27.218367828 14.8166666664ZM27.218367828 12.7711758562C27.2166380409 12.1090907544 26.7534343511 11.7893664905 26.1600344947 11.6172773748L26.1600344947 10.5833333331L31.4517011612 10.5833333331L31.4517011612 11.2830927498C32.4274327538 10.7203457544 33.526979939 10.6204526109 34.6267011612 10.566030759L34.6267011612 11.6205834905C32.8302602908 11.8223235785 31.6948385455 13.0746188377 31.4306179853 14.8166666664L27.218367828 14.8166666664L27.218367828 12.7711758562ZM37.755951763 16.9209402497C37.7522828741 14.9053414766 36.9437103278 11.6347651572 34.6267011612 11.6256828933L34.6267011612 10.5677046896C38.6414433879 10.5725906618 42.0029581749 12.0578697729 42.0029581749 15.9631944441L42.0400374712 23.2833333329L37.809798587 23.2833333329L37.755951763 16.9209402497ZM37.8017011611 26.4583333328L37.8017011611 23.2833333329L42.0350344944 23.2833333329L42.0350344944 26.4583333328L44.151701161 26.4583333328L44.151701161 27.5166666661L36.7433678278 27.5166666661L36.7433678278 26.4583333328L37.8017011611 26.4583333328ZM37.8017011611 29.6330152448L37.8017011611 27.5166666661L42.0350344944 27.5166666661L42.0350344944 31.7503180873L37.8017011611 29.6330152448ZM27.2424390317 31.7834968373C27.2416811474 30.6661784716 28.1149208002 29.6547504716 29.3350374344 29.6606195179C30.5492850224 29.666460342 31.4352934668 30.5955059114 31.4335819066 31.7512188466C31.4318791659 32.9010629118 30.5218418511 33.8400863891 29.3474275779 33.8371998438C28.1788817631 33.8343277035 27.2431969159 32.9007959767 27.2424390317 31.7834968373ZM26.1559587354 25.412295481L26.1559587354 24.3671460412C26.7319766428 24.3362679903 27.2208266891 23.8260995829 27.218367828 23.2833333329L31.4517011612 23.2833333329L31.4517011612 27.513890305L26.1559587354 25.412295481ZM47.3267011609 14.8166666664L51.5600344942 14.8166666664L51.5600344942 23.2833333329L47.3267011609 23.2833333329L47.3267011609 14.8166666664ZM51.5600344942 21.1368675274L51.5600344942 20.1400580505L58.3804048644 12.1924456757C58.3331108876 11.9691044164 58.1612334385 11.807709759 58.01544567 11.6416666664L56.8517011607 11.6416666664L56.8517011607 10.5833333331L62.1433678273 10.5833333331L62.1433678273 11.6416666664C61.698142869 11.6223879488 61.2720031884 11.6590474396 60.8988771884 11.9232086155L54.7441596793 19.0375651709C57.2297137209 21.4177045088 59.5422455496 23.9852094162 62.0886608134 26.3019922171C62.4282911514 26.4722468884 62.8296017439 26.451901606 63.2017011606 26.4734422171L63.2017011606 27.5166666661L57.9390281237 27.5166666661L51.5600344942 21.1368675274ZM47.3267011609 6.34999999987L51.5600344942 6.34999999987L51.5600344942 14.8166666664L47.3267011609 14.8166666664L47.3267011609 6.34999999987ZM44.151701161 0.0C47.7722841887 0.0101690693285 51.5472392442 2.59427080412 51.5600344942 6.34999999987L47.3267011609 6.34999999987C47.324349897 4.25780394019 46.5583893785 1.05546701387 44.151701161 1.05833333331L44.151701161 0.0ZM39.9775445361 4.18167431936C39.6219833416 4.31641543973 38.9801970731 4.11538208325 38.7052220824 3.81278224067C38.228581675 3.28825636568 38.2316861194 2.39879305088 38.7514189203 1.96074712033C40.2628218138 0.686892435172 42.1802930962 0.0377748564807 44.151701161 -0.0173566666663L44.151701161 1.05833333331C42.9033940545 1.05988379165 41.6934144897 1.40425369905 40.5763077907 1.95153138885C41.1580842073 2.80882431013 41.027153087 3.7839209027 39.9775445361 4.18167431936ZM47.3267011609 26.4583333328L47.3267011609 23.2833333329L51.5600344942 23.2833333329L51.5600344942 26.4583333328L53.6767011608 26.4583333328L53.6767011608 27.5166666661L46.2683678276 27.5166666661L46.2683678276 26.4583333328L47.3267011609 26.4583333328ZM47.3267011609 31.7499999994L47.3267011609 27.5166666661L51.5600344942 27.5166666661L51.5600344942 31.7499999994L47.3267011609 31.7499999994ZM46.2642920683 33.8789621475L46.2642920683 32.8338127077C46.8403099757 32.8029346568 47.329160022 32.2927662494 47.3267011609 31.7499999994L51.5600344942 31.7499999994L51.5600344942 35.9805569715L46.2642920683 33.8789621475ZM70.6065222486 26.4583333328C72.1270191652 26.4720910782 73.7335456467 25.4285003282 73.7521241004 23.8124999995C73.7720866189 22.0186943792 72.0705864801 21.3161115644 70.5183278042 21.1672052403C67.4111799061 21.1572745459 64.6114754895 19.6829727033 63.5816207302 17.5143912589C62.2696290034 12.851792046 66.6141496607 10.590224259 70.6065222486 10.5833333331L70.6065222486 11.6416666664C69.086025332 11.6279089211 67.4794988505 12.671499671 67.4609203968 14.2874999997C67.4409578783 16.0813056201 69.1424580172 16.7838884349 70.6947166931 16.9327947589C73.8018645911 16.9427254534 76.6015690078 18.4170272959 77.631423767 20.5856087403C78.9434154938 25.2482085412 74.5988954245 27.5097745643 70.6065222486 27.5166666661L70.6065222486 26.4583333328ZM70.6065222486 11.6254471201L70.6065222486 10.5659854859C72.0459226097 10.6789896155 73.4455308134 11.0387764998 74.5767750819 11.9915634257C75.3072714383 12.6016602544 75.3008203087 12.5975162914 75.4584443596 12.5579552035C75.8039308087 12.3841139581 75.8661202392 11.9927028979 75.9115409661 11.6416666664L76.9565222485 11.6416666664L76.9565222485 16.933333333L75.9163851929 16.933333333C75.5441340818 13.8281104257 73.8431678134 11.8558927359 70.6065222486 11.6254471201ZM70.6065222486 26.4745528791L70.6065222486 27.5340145133C69.1671218875 27.4210103837 67.7675136839 27.0612234995 66.6362694154 26.1084365736C65.9057730589 25.4983397449 65.9122241885 25.5024837078 65.7546001376 25.5420447958C65.4091136885 25.7158860412 65.346924258 26.1072971013 65.3015035311 26.4583333328L64.2565222487 26.4583333328L64.2565222487 21.1666666662L65.2966593043 21.1666666662C65.6689104154 24.2718895736 67.3698766839 26.2441072634 70.6065222486 26.4745528791ZM79.6130075338 18.990954995C79.5666719366 14.8540352404 82.6469146495 10.5833333331 86.9975589411 10.5833333331L86.9975589411 11.6138383794C84.7786619782 11.6389931988 83.8462697236 16.6608301386 83.8519570893 19.0499999996C83.8576426912 21.4391698607 84.8121523486 26.5056296615 86.9975589411 26.4861616198L86.9975589411 27.5166666661C82.499253631 27.478901805 79.6593425431 23.1278741616 79.6130075338 18.990954995ZM86.9975589411 26.4745528791C90.2342045059 26.2441072634 91.9351707743 24.2718895736 92.3074218854 21.1666666662L93.347558941 21.1666666662L93.347558941 26.4583333328L92.3025776586 26.4583333328C92.2571569317 26.1072971013 92.1949675012 25.7158860412 91.8494810521 25.5420447958C91.6918570012 25.5024837078 91.6983081308 25.4983397449 90.9678117744 26.1084365736C89.8365675059 27.0612234995 88.4369593022 27.4210103837 86.9975589411 27.5340145133L86.9975589411 26.4745528791ZM91.171715566 14.7650076525C90.1221070151 14.3672542358 89.9911758947 13.3921576433 90.5729523114 12.534864722C89.4558456123 11.9875870322 88.2458660476 11.6432171248 86.9975589411 11.6416666664L86.9975589411 10.5659766665C88.9689670059 10.6211081896 90.8864382882 11.2702257683 92.3978411817 12.5440804535C92.9175739827 12.982126384 92.9206784271 13.8715896988 92.4440380197 14.3961155738C92.169063029 14.6987154164 91.5272767605 14.8997487729 91.171715566 14.7650076525ZM109.293296767 23.2833333329L105.059963434 23.2833333329L105.059963434 14.8166666664L109.293296767 14.8166666664L109.293296767 23.2833333329ZM109.293296767 25.328824143C109.295026554 25.9909092449 109.758230244 26.3106335087 110.3516301 26.4827226245L110.3516301 27.5166666661L105.059963434 27.5166666661L105.059963434 26.8169072495C104.084231841 27.3796542448 102.984684656 27.4795473883 101.884963434 27.5339692402L101.884963434 26.4794165087C103.681404304 26.2776764208 104.81682605 25.0253811615 105.08104661 23.2833333329L109.293296767 23.2833333329L109.293296767 25.328824143ZM100.653418564 10.6508173702C100.926543823 10.6222952868 101.315374314 10.5954430183 101.517486582 10.591146185L101.884963434 10.5833333331L101.884963434 11.6156398979C101.282786466 11.7040924581 100.673222332 11.7836485507 100.201057499 12.1667857961C99.5911452905 12.6616989164 99.1028620405 13.2874908284 98.9028646747 14.0804735368C98.6404127071 14.8714218932 98.6600224479 15.8190982451 98.9028646747 16.6111931293C99.2919903229 17.7839028978 100.191271443 18.8336519718 101.467632027 19.0103130876L101.884963434 19.0760267681L101.884963434 20.1083333329C101.820485652 20.1083333329 101.756007281 20.1083333329 101.691529499 20.1083333329C100.043458142 20.2039990227 98.6877172673 21.6325114857 98.709963434 23.2833333329C98.709963434 24.9254515643 100.026627702 26.3747432263 101.691529499 26.4583333328L101.884963434 26.4583333328L101.884963434 27.5166666661L101.635079175 27.5161845365C101.215408263 27.5153743235 100.355565346 27.4016605226 99.7976949155 27.2731917911C97.9405462812 26.720189106 95.5047097998 25.5037801662 95.5702588507 23.2833333329C95.5702588507 21.9296591477 96.4866273507 20.8701187264 97.6011205544 20.1725829857C97.9238081516 19.9798892959 98.2713971562 19.8230878052 98.5923708414 19.6392817635C98.5090758923 19.6010482959 98.4304411377 19.5503453098 98.3424865822 19.5245807728C97.9622362349 19.4131929533 97.0639376007 18.9763141293 96.6058891701 18.6800043144C95.4601122211 17.9388052682 94.4674355359 16.7683297589 94.5100446239 15.345833333C94.5100446239 13.9339237682 95.4148026192 12.7639015785 96.5861053924 12.0252460599C97.6962894155 11.309314134 99.193928096 10.8032314813 100.653418564 10.6508173702ZM109.293296767 12.7711758562L109.293296767 14.8166666664L105.08104661 14.8166666664C104.81682605 13.0746188377 103.681404304 11.8223235785 101.884963434 11.6205834905L101.884963434 10.566030759C102.984684656 10.6204526109 104.084231841 10.7203457544 105.059963434 11.2830927498L105.059963434 10.5833333331L110.3516301 10.5833333331L110.3516301 11.6172773748C109.758230244 11.7893664905 109.295026554 12.1090907544 109.293296767 12.7711758562ZM112.707998564 23.2833333329L112.707998564 14.8166666664L116.941331898 14.8166666664L116.941331898 23.2833333329L112.707998564 23.2833333329ZM112.707998564 27.5166666661L112.707998564 23.2833333329L116.920248722 23.2833333329C117.184385203 25.0248296523 118.32038962 26.27806918 120.116331898 26.4794165087L120.116331898 27.5339692402C119.016610675 27.4795473883 117.91706349 27.3796542448 116.941331898 26.8169072495L116.941331898 27.5166666661L112.707998564 27.5166666661ZM127.500883305 19.1090450043C127.547218902 23.2459647588 124.466976189 27.5166666661 120.116331898 27.5166666661L120.116331898 26.4861616198C122.335228861 26.4610068004 123.267621115 21.4391698607 123.261933749 19.0499999996C123.256248148 16.6608301386 122.30173849 11.5943703377 120.116331898 11.6138383794L120.116331898 10.5833333331C124.614637208 10.6210981942 127.454548296 14.9721258377 127.500883305 19.1090450043ZM112.707998564 31.7499999994L112.707998564 27.5166666661L116.941331898 27.5166666661L116.941331898 31.7499999994L112.707998564 31.7499999994ZM120.116331898 38.0999999992C116.49574887 38.0898309299 112.720793814 35.5057291951 112.707998564 31.7499999994L116.941331898 31.7499999994C116.943683162 33.8421960591 117.70964368 37.0445329854 120.116331898 37.0416666659L120.116331898 38.0999999992ZM124.290488523 33.9183256799C124.646049717 33.7835845595 125.287835985 33.984617916 125.562810976 34.2872177586C126.039451384 34.8117436336 126.036346939 35.7012069484 125.516614138 36.1392528789C124.005211245 37.4131075641 122.087739962 38.0622251428 120.116331898 38.1173566659L120.116331898 37.0416666659C121.364639004 37.0401162076 122.574618569 36.6957463002 123.691725268 36.1484686104C123.109948851 35.2911756891 123.240879972 34.3160790965 124.290488523 33.9183256799ZM112.707998564 12.7711758562C112.706268777 12.1090907544 112.243065088 11.7893664905 111.649665231 11.6172773748L111.649665231 10.5833333331L116.941331898 10.5833333331L116.941331898 11.2830927498C117.91706349 10.7203457544 119.016610675 10.6204526109 120.116331898 10.566030759L120.116331898 11.6205834905C118.319891027 11.8223235785 117.184469282 13.0746188377 116.920248722 14.8166666664L112.707998564 14.8166666664L112.707998564 12.7711758562ZM135.232014083 27.4491826291C133.772523615 27.296768518 132.274884935 26.7906858652 131.164700912 26.0747539393C129.993398139 25.3360984208 129.088640143 24.166076231 129.088640143 22.7541666662C129.046031055 21.3316702403 130.03870774 20.1611947311 131.184484689 19.4199956848C131.64253312 19.12368587 132.540831754 18.6868070459 132.921082101 18.5754192265C133.009036657 18.5496546894 133.087671412 18.4989517033 133.170966361 18.4607182357C132.849992676 18.2769121941 132.502403671 18.1201107033 132.179716074 17.9274170135C131.06522287 17.2298812728 130.14885437 16.1703408515 130.14885437 14.8166666664C130.083305319 12.5962198331 132.519141801 11.3798108933 134.376290435 10.8268082081C134.934160865 10.6983394766 135.794003782 10.5846256757 136.213674694 10.5838154628L136.463558953 10.5833333331L136.463558953 11.6416666664L136.270125018 11.6416666664C134.605223222 11.7252567729 133.288558953 13.1745484349 133.288558953 14.8166666664C133.266312787 16.4674885136 134.622053662 17.8960009765 136.270125018 17.9916666663C136.3346028 17.9916666663 136.399081171 17.9916666663 136.463558953 17.9916666663L136.463558953 19.0239732311L136.046227546 19.0896869117C134.769866963 19.2663480274 133.870585842 20.3160971014 133.481460194 21.4888068699C133.238617967 22.2809017542 133.219008226 23.228578106 133.481460194 24.0195264625C133.68145756 24.8125091708 134.16974081 25.4383010828 134.779653018 25.9332142032C135.251817851 26.3163514486 135.861381986 26.3959075411 136.463558953 26.4843601013L136.463558953 27.5166666661L136.096082101 27.5088538143C135.893969833 27.5045569809 135.505139342 27.4777047124 135.232014083 27.4491826291ZM140.637715578 14.7650076525C139.588107027 14.3672542358 139.457175907 13.3921576433 140.038952324 12.534864722C138.921845624 11.9875870322 137.71186606 11.6432171248 136.463558953 11.6416666664L136.463558953 10.5659766665C138.434967018 10.6211081896 140.3524383 11.2702257683 141.863841194 12.5440804535C142.383573995 12.982126384 142.386678439 13.8715896988 141.910038032 14.3961155738C141.635063041 14.6987154164 140.993276773 14.8997487729 140.637715578 14.7650076525ZM136.463558953 26.4745528791C139.700204518 26.2441072634 141.401170786 24.2718895736 141.773421898 21.1666666662L142.813558953 21.1666666662L142.813558953 26.4583333328L141.768577671 26.4583333328C141.723156944 26.1072971013 141.660967513 25.7158860412 141.315481064 25.5420447958C141.157857013 25.5024837078 141.164308143 25.4983397449 140.433811786 26.1084365736C139.302567518 27.0612234995 137.902959314 27.4210103837 136.463558953 27.5340145133L136.463558953 26.4745528791Z"
       transform="matrix(1.000000,0.000000,0.000000,1.000000,0.000000,0.000000)"
       id="path1669" />
    <g
       aria-label="GTO"
       style="font-style:normal;font-weight:normal;font-size:11.36830807px;line-height:1.25;font-family:sans-serif;letter-spacing:0px;word-spacing:0px;fill:#ffffff;fill-opacity:1;stroke:none;stroke-width:0.2842077"
       id="text845-7-8"
       transform="matrix(0.98103367,0,0,-0.98103367,-49.508414,541.65225)">
      <path
         d="m 168.99528,276.71837 c 1.39934,0.53996 3.00028,0.90625 4.80941,1.10309 1.8011,0.19597 3.72235,0.1946 5.77663,-0.004 2.0522,-0.18667 4.12636,-0.60054 6.2388,-1.24803 0,0 -4.26417,-1.77703 -4.26417,-1.77703 -1.09049,0.34592 -2.22137,0.51412 -3.39896,0.50657 -1.20273,4.4e-4 -2.1824,-0.15249 -2.94284,-0.46033 -1.10754,-0.44836 -1.42814,-0.96311 -0.94911,-1.54641 0.45968,-0.58227 1.6648,-1.20028 3.63134,-1.85529 0,0 2.52354,-0.84055 2.52354,-0.84055 2.02975,-0.67607 3.91273,-1.07926 5.63062,-1.2026 1.6947,-0.11458 3.0924,0.0787 4.18162,0.57626 0.74754,0.34146 1.03615,0.7407 0.87099,1.19627 -0.19078,0.45988 -0.82687,0.8599 -1.90374,1.20149 0,0 -3.23407,-1.43342 -3.23407,-1.43342 0,0 -5.54937,1.80695 -5.54937,1.80695 0,0 7.509,3.18293 7.509,3.18293 0,0 15.58434,-4.77678 15.58434,-4.77678 0,0 -2.22349,-1.07067 -2.22349,-1.07067 0,0 -3.32703,0.69677 -3.32703,0.69677 1.01321,-1.30832 0.50334,-2.47265 -1.58231,-3.48124 -2.39832,-1.15979 -5.52935,-1.61296 -9.33512,-1.3401 -3.81317,0.28104 -8.14935,1.26607 -12.90283,2.91407 -4.5467,1.57631 -7.15702,3.03275 -7.92371,4.37789 -0.75446,1.32119 0.19221,2.47556 2.78046,3.47428 0,0 0,0 0,0"
         style="font-style:normal;font-variant:normal;font-weight:normal;font-stretch:normal;font-family:'Archivo Black';-inkscape-font-specification:'Archivo Black, ';letter-spacing:0px;fill:#ffffff;fill-opacity:1;stroke-width:0.2842077"
         id="path2520"
         inkscape:connector-curvature="0" />
      <path
         d="m 193.1954,281.53778 c 0,0 20.10233,-5.67699 20.10233,-5.67699 0,0 -3.93096,-1.89287 -3.93096,-1.89287 0,0 -20.24464,5.90954 -20.24464,5.90954 0,0 -4.33398,-1.76659 -4.33398,-1.76659 0,0 -6.40526,1.93636 -6.40526,1.93636 0,0 12.49898,4.83941 12.49898,4.83941 0,0 6.30269,-1.72282 6.30269,-1.72282 0,0 -3.98916,-1.62604 -3.98916,-1.62604"
         style="font-style:normal;font-variant:normal;font-weight:normal;font-stretch:normal;font-family:'Archivo Black';-inkscape-font-specification:'Archivo Black, ';letter-spacing:0px;fill:#ffffff;fill-opacity:1;stroke-width:0.2842077"
         id="path2522"
         inkscape:connector-curvature="0" />
      <path
         d="m 197.43267,287.69139 c 1.93018,0.74479 4.44354,1.04753 7.57521,0.91846 3.1421,-0.1295 6.79962,-0.70654 11.04803,-1.75129 4.36328,-1.07299 7.28629,-2.12977 8.70658,-3.16786 1.45695,-1.0649 1.30257,-2.04152 -0.51957,-2.92268 -1.86051,-0.89971 -4.55985,-1.27954 -8.05913,-1.12562 -3.50241,0.1657 -7.5494,0.87372 -12.05246,2.09773 -4.37624,1.18954 -7.05615,2.29086 -8.1115,3.30959 -1.04156,1.00441 -0.55466,1.88248 1.41284,2.64167 0,0 0,0 0,0 m 5.81894,-1.50266 c -0.77251,-0.31273 -0.8468,-0.68732 -0.21324,-1.12548 0.64048,-0.44293 1.86224,-0.90297 3.67572,-1.38061 0,0 2.41729,-0.63666 2.41729,-0.63666 1.86321,-0.49073 3.55987,-0.79533 5.07651,-0.90967 1.52079,-0.11465 2.6599,1.8e-4 3.40961,0.34263 0.74363,0.33968 0.7439,0.73952 0.0114,1.19776 -0.71409,0.45783 -1.99842,0.92044 -3.84295,1.38758 0,0 -2.39384,0.60625 -2.39384,0.60625 -1.79648,0.45497 -3.40968,0.72997 -4.85209,0.82866 -1.42818,0.1028 -2.52192,-1.6e-4 -3.28843,-0.31046 0,0 0,0 0,0"
         style="font-style:normal;font-variant:normal;font-weight:normal;font-stretch:normal;font-family:'Archivo Black';-inkscape-font-specification:'Archivo Black, ';letter-spacing:0px;fill:#ffffff;fill-opacity:1;stroke-width:0.2842077"
         id="path2524"
         inkscape:connector-curvature="0" />
    </g>
    <g
       id="text845-7-9-3-8"
       style="font-style:normal;font-weight:normal;font-size:10.58333302px;line-height:1.25;font-family:sans-serif;letter-spacing:0px;word-spacing:0px;fill:#000000;fill-opacity:1;stroke:none;stroke-width:0.26458332"
       aria-label="3000"
       transform="matrix(0.95518113,0,0,0.95518113,6.0981644,13.265959)">
      <path
         id="path3073-0"
         style="font-style:normal;font-variant:normal;font-weight:normal;font-stretch:normal;font-family:'Archivo Black';-inkscape-font-specification:'Archivo Black, ';letter-spacing:0px;fill:#000000;fill-opacity:1;stroke-width:0.26458332"
         d="m 141.71881,281.2626 c 1.00759,-0.48725 1.87209,-0.67493 2.597,-0.56718 0.73174,0.10113 1.28008,0.45334 1.64795,1.05554 0.37833,0.57593 0.56696,1.33538 0.56696,2.27997 0,0.94458 -0.16503,1.88379 -0.49592,2.81993 -0.33197,0.92098 -0.7604,1.67609 -1.2865,2.26534 0,0 0,0.10987 0,0.10987 0.68102,-0.0322 1.20361,0.26388 1.57018,0.88626 0.37701,0.59558 0.56498,1.46373 0.56498,2.60613 -0.047,1.62207 -0.50007,3.18505 -1.36487,4.69806 -0.86024,1.50079 -2.14617,2.75063 -3.87389,3.75247 -1.20561,0.69909 -2.22951,1.04832 -3.06612,1.04152 -0.84334,-0.007 -1.47386,-0.31996 -1.88767,-0.9411 -0.41545,-0.62357 -0.62378,-1.47131 -0.62378,-2.54136 0,0 0,-0.60191 0,-0.60191 0,0 3.38593,-1.8631 3.38593,-1.8631 0,1.54185 0.65421,1.94553 1.9504,1.21794 1.28013,-0.71859 1.91427,-1.92347 1.91427,-3.6213 0,-0.6459 -0.12165,-1.06885 -0.36537,-1.2692 -0.23208,-0.22595 -0.53824,-0.23671 -0.91915,-0.0313 0,0 -1.35686,0.73156 -1.35686,0.73156 0,0 0,-3.44881 0,-3.44881 0,0 1.06098,-0.5544 1.06098,-0.5544 0.38201,-0.19961 0.68905,-0.52686 0.92179,-0.98154 0.24442,-0.47846 0.36642,-1.04068 0.36642,-1.68753 0,-0.60987 -0.14641,-1.05306 -0.43986,-1.33016 -0.282,-0.28409 -0.67565,-0.29972 -1.18222,-0.0454 -0.53396,0.2681 -0.95187,0.68378 -1.2523,1.24721 -0.30131,0.56507 -0.45229,1.14871 -0.45229,1.74969 0,0 -3.2025,1.64092 -3.2025,1.64092 0,0 0,-0.7151 0,-0.7151 0,-0.99161 0.20749,-2.00118 0.62126,-3.02567 0.425,-1.0268 1.03374,-1.96976 1.82304,-2.82712 0.79596,-0.85706 1.7232,-1.54018 2.77814,-2.05033 0,0 0,1e-4 0,1e-4"
         inkscape:connector-curvature="0" />
      <path
         id="path3075-7"
         style="font-style:normal;font-variant:normal;font-weight:normal;font-stretch:normal;font-family:'Archivo Black';-inkscape-font-specification:'Archivo Black, ';letter-spacing:0px;fill:#000000;fill-opacity:1;stroke-width:0.26458332"
         d="m 153.30846,275.65802 c 1.75497,-0.84868 2.96796,-0.64008 3.6588,0.6076 0.69641,1.21625 1.04271,3.30282 1.04271,6.26635 0,2.96354 -0.3463,5.42696 -1.04271,7.40105 -0.69084,1.96517 -1.90383,3.45507 -3.6588,4.47272 -1.7984,1.04282 -3.08398,0.97691 -3.83598,-0.21901 -0.74622,-1.22944 -1.12143,-3.40472 -1.12143,-6.51888 0,-3.11417 0.37521,-5.67948 1.12143,-7.68462 0.752,-2.01357 2.03758,-3.45553 3.83598,-4.32521 0,0 0,0 0,0 m 0,3.55469 c -0.57367,0.28789 -0.98392,0.84663 -1.22867,1.6765 -0.24536,0.83193 -0.36827,2.05393 -0.36827,3.66444 0,0 0,2.62815 0,2.62815 0,1.62822 0.12291,2.72837 0.36827,3.29937 0.24475,0.56959 0.655,0.69205 1.22867,0.36988 0.5703,-0.32029 0.96862,-0.89333 1.19705,-1.71906 0.22789,-0.82377 0.34164,-2.03604 0.34164,-3.63825 0,0 0,-2.58618 0,-2.58618 0,-1.6022 -0.11375,-2.6848 -0.34164,-3.2488 -0.22843,-0.5828 -0.62675,-0.73225 -1.19705,-0.44605 0,0 0,0 0,0"
         inkscape:connector-curvature="0" />
      <path
         id="path3077-2"
         style="font-style:normal;font-variant:normal;font-weight:normal;font-stretch:normal;font-family:'Archivo Black';-inkscape-font-specification:'Archivo Black, ';letter-spacing:0px;fill:#000000;fill-opacity:1;stroke-width:0.26458332"
         d="m 163.73921,270.61386 c 1.57276,-0.76057 2.66069,-0.53347 3.28064,0.66542 0.62517,1.1697 0.93614,3.15574 0.93614,5.96416 0,2.80842 -0.31097,5.13329 -0.93614,6.98417 -0.61995,1.84189 -1.70788,3.21775 -3.28064,4.12974 -1.61009,0.93363 -2.76009,0.83322 -3.43241,-0.31971 -0.66687,-1.18396 -1.00208,-3.25078 -1.00208,-6.19411 0,-2.94334 0.33521,-5.35815 1.00208,-7.23441 0.67232,-1.88484 1.82232,-3.21664 3.43241,-3.99526 0,0 0,0 0,0 m 0,3.36428 c -0.51377,0.25783 -0.88109,0.77604 -1.10019,1.55491 -0.21961,0.7807 -0.32962,1.93354 -0.32962,3.45711 0,0 0,2.48628 0,2.48628 0,1.54033 0.11001,2.58455 0.32962,3.13171 0.2191,0.54587 0.58642,0.67345 1.10019,0.38491 0.51093,-0.28693 0.86787,-0.81811 1.0726,-1.59341 0.20428,-0.77356 0.30625,-1.91821 0.30625,-3.43525 0,0 0,-2.44868 0,-2.44868 0,-1.51702 -0.10197,-2.54499 -0.30625,-3.08482 -0.20473,-0.55757 -0.56167,-0.70916 -1.0726,-0.45276 0,0 0,0 0,0"
         inkscape:connector-curvature="0" />
      <path
         id="path3079-9"
         style="font-style:normal;font-variant:normal;font-weight:normal;font-stretch:normal;font-family:'Archivo Black';-inkscape-font-specification:'Archivo Black, ';letter-spacing:0px;fill:#000000;fill-opacity:1;stroke-width:0.26458332"
         d="m 173.10933,266.08261 c 1.41751,-0.68549 2.39877,-0.44458 2.9582,0.70879 0.56434,1.12616 0.84512,3.02084 0.84512,5.68958 0,2.66874 -0.28078,4.86974 -0.84512,6.61156 -0.55943,1.73282 -1.54069,3.00948 -2.9582,3.83144 -1.4499,0.84074 -2.48468,0.71308 -3.08934,-0.39912 -0.59954,-1.14107 -0.90082,-3.10963 -0.90082,-5.89991 0,-2.79028 0.30128,-5.07119 0.90082,-6.83381 0.60466,-1.77129 1.63944,-3.00739 3.08934,-3.70853 0,0 0,0 0,0 m 0,3.19323 c -0.4628,0.23225 -0.79359,0.71507 -0.99086,1.44877 -0.19772,0.73534 -0.29675,1.8264 -0.29675,3.27194 0,0 0,2.35894 0,2.35894 0,1.46144 0.099,2.45514 0.29675,2.98021 0.19727,0.52391 0.52806,0.65495 0.99086,0.39504 0.46035,-0.25853 0.78204,-0.75317 0.96659,-1.48377 0.18415,-0.72903 0.27608,-1.8132 0.27608,-3.25365 0,0 0,-2.32507 0,-2.32507 0,-1.44044 -0.0919,-2.41902 -0.27608,-2.93655 -0.18455,-0.53434 -0.50624,-0.68688 -0.96659,-0.45586 0,0 0,0 0,0"
         inkscape:connector-curvature="0" />
    </g>
    <g
       id="text845-7-9-3"
       style="font-style:normal;font-weight:normal;font-size:10.58333302px;line-height:1.25;font-family:sans-serif;letter-spacing:0px;word-spacing:0px;fill:#ffffff;fill-opacity:1;stroke:none;stroke-width:0.26458332"
       aria-label="3000"
       transform="matrix(0.95518112,0,0,0.95518112,7.2551075,12.987992)">
      <path
         id="path3073"
         style="font-style:normal;font-variant:normal;font-weight:normal;font-stretch:normal;font-family:'Archivo Black';-inkscape-font-specification:'Archivo Black, ';letter-spacing:0px;fill:#ffffff;fill-opacity:1;stroke-width:0.26458332"
         d="m 141.71881,281.2626 c 1.00759,-0.48725 1.87209,-0.67493 2.597,-0.56718 0.73174,0.10113 1.28008,0.45334 1.64795,1.05554 0.37833,0.57593 0.56696,1.33538 0.56696,2.27997 0,0.94458 -0.16503,1.88379 -0.49592,2.81993 -0.33197,0.92098 -0.7604,1.67609 -1.2865,2.26534 0,0 0,0.10987 0,0.10987 0.68102,-0.0322 1.20361,0.26388 1.57018,0.88626 0.37701,0.59558 0.56498,1.46373 0.56498,2.60613 -0.047,1.62207 -0.50007,3.18505 -1.36487,4.69806 -0.86024,1.50079 -2.14617,2.75063 -3.87389,3.75247 -1.20561,0.69909 -2.22951,1.04832 -3.06612,1.04152 -0.84334,-0.007 -1.47386,-0.31996 -1.88767,-0.9411 -0.41545,-0.62357 -0.62378,-1.47131 -0.62378,-2.54136 0,0 0,-0.60191 0,-0.60191 0,0 3.38593,-1.8631 3.38593,-1.8631 0,1.54185 0.65421,1.94553 1.9504,1.21794 1.28013,-0.71859 1.91427,-1.92347 1.91427,-3.6213 0,-0.6459 -0.12165,-1.06885 -0.36537,-1.2692 -0.23208,-0.22595 -0.53824,-0.23671 -0.91915,-0.0313 0,0 -1.35686,0.73156 -1.35686,0.73156 0,0 0,-3.44881 0,-3.44881 0,0 1.06098,-0.5544 1.06098,-0.5544 0.38201,-0.19961 0.68905,-0.52686 0.92179,-0.98154 0.24442,-0.47846 0.36642,-1.04068 0.36642,-1.68753 0,-0.60987 -0.14641,-1.05306 -0.43986,-1.33016 -0.282,-0.28409 -0.67565,-0.29972 -1.18222,-0.0454 -0.53396,0.2681 -0.95187,0.68378 -1.2523,1.24721 -0.30131,0.56507 -0.45229,1.14871 -0.45229,1.74969 0,0 -3.2025,1.64092 -3.2025,1.64092 0,0 0,-0.7151 0,-0.7151 0,-0.99161 0.20749,-2.00118 0.62126,-3.02567 0.425,-1.0268 1.03374,-1.96976 1.82304,-2.82712 0.79596,-0.85706 1.7232,-1.54018 2.77814,-2.05033 0,0 0,1e-4 0,1e-4"
         inkscape:connector-curvature="0" />
      <path
         id="path3075"
         style="font-style:normal;font-variant:normal;font-weight:normal;font-stretch:normal;font-family:'Archivo Black';-inkscape-font-specification:'Archivo Black, ';letter-spacing:0px;fill:#ffffff;fill-opacity:1;stroke-width:0.26458332"
         d="m 153.30846,275.65802 c 1.75497,-0.84868 2.96796,-0.64008 3.6588,0.6076 0.69641,1.21625 1.04271,3.30282 1.04271,6.26635 0,2.96354 -0.3463,5.42696 -1.04271,7.40105 -0.69084,1.96517 -1.90383,3.45507 -3.6588,4.47272 -1.7984,1.04282 -3.08398,0.97691 -3.83598,-0.21901 -0.74622,-1.22944 -1.12143,-3.40472 -1.12143,-6.51888 0,-3.11417 0.37521,-5.67948 1.12143,-7.68462 0.752,-2.01357 2.03758,-3.45553 3.83598,-4.32521 0,0 0,0 0,0 m 0,3.55469 c -0.57367,0.28789 -0.98392,0.84663 -1.22867,1.6765 -0.24536,0.83193 -0.36827,2.05393 -0.36827,3.66444 0,0 0,2.62815 0,2.62815 0,1.62822 0.12291,2.72837 0.36827,3.29937 0.24475,0.56959 0.655,0.69205 1.22867,0.36988 0.5703,-0.32029 0.96862,-0.89333 1.19705,-1.71906 0.22789,-0.82377 0.34164,-2.03604 0.34164,-3.63825 0,0 0,-2.58618 0,-2.58618 0,-1.6022 -0.11375,-2.6848 -0.34164,-3.2488 -0.22843,-0.5828 -0.62675,-0.73225 -1.19705,-0.44605 0,0 0,0 0,0"
         inkscape:connector-curvature="0" />
      <path
         id="path3077"
         style="font-style:normal;font-variant:normal;font-weight:normal;font-stretch:normal;font-family:'Archivo Black';-inkscape-font-specification:'Archivo Black, ';letter-spacing:0px;fill:#ffffff;fill-opacity:1;stroke-width:0.26458332"
         d="m 163.73921,270.61386 c 1.57276,-0.76057 2.66069,-0.53347 3.28064,0.66542 0.62517,1.1697 0.93614,3.15574 0.93614,5.96416 0,2.80842 -0.31097,5.13329 -0.93614,6.98417 -0.61995,1.84189 -1.70788,3.21775 -3.28064,4.12974 -1.61009,0.93363 -2.76009,0.83322 -3.43241,-0.31971 -0.66687,-1.18396 -1.00208,-3.25078 -1.00208,-6.19411 0,-2.94334 0.33521,-5.35815 1.00208,-7.23441 0.67232,-1.88484 1.82232,-3.21664 3.43241,-3.99526 0,0 0,0 0,0 m 0,3.36428 c -0.51377,0.25783 -0.88109,0.77604 -1.10019,1.55491 -0.21961,0.7807 -0.32962,1.93354 -0.32962,3.45711 0,0 0,2.48628 0,2.48628 0,1.54033 0.11001,2.58455 0.32962,3.13171 0.2191,0.54587 0.58642,0.67345 1.10019,0.38491 0.51093,-0.28693 0.86787,-0.81811 1.0726,-1.59341 0.20428,-0.77356 0.30625,-1.91821 0.30625,-3.43525 0,0 0,-2.44868 0,-2.44868 0,-1.51702 -0.10197,-2.54499 -0.30625,-3.08482 -0.20473,-0.55757 -0.56167,-0.70916 -1.0726,-0.45276 0,0 0,0 0,0"
         inkscape:connector-curvature="0" />
      <path
         id="path3079"
         style="font-style:normal;font-variant:normal;font-weight:normal;font-stretch:normal;font-family:'Archivo Black';-inkscape-font-specification:'Archivo Black, ';letter-spacing:0px;fill:#ffffff;fill-opacity:1;stroke-width:0.26458332"
         d="m 173.10933,266.08261 c 1.41751,-0.68549 2.39877,-0.44458 2.9582,0.70879 0.56434,1.12616 0.84512,3.02084 0.84512,5.68958 0,2.66874 -0.28078,4.86974 -0.84512,6.61156 -0.55943,1.73282 -1.54069,3.00948 -2.9582,3.83144 -1.4499,0.84074 -2.48468,0.71308 -3.08934,-0.39912 -0.59954,-1.14107 -0.90082,-3.10963 -0.90082,-5.89991 0,-2.79028 0.30128,-5.07119 0.90082,-6.83381 0.60466,-1.77129 1.63944,-3.00739 3.08934,-3.70853 0,0 0,0 0,0 m 0,3.19323 c -0.4628,0.23225 -0.79359,0.71507 -0.99086,1.44877 -0.19772,0.73534 -0.29675,1.8264 -0.29675,3.27194 0,0 0,2.35894 0,2.35894 0,1.46144 0.099,2.45514 0.29675,2.98021 0.19727,0.52391 0.52806,0.65495 0.99086,0.39504 0.46035,-0.25853 0.78204,-0.75317 0.96659,-1.48377 0.18415,-0.72903 0.27608,-1.8132 0.27608,-3.25365 0,0 0,-2.32507 0,-2.32507 0,-1.44044 -0.0919,-2.41902 -0.27608,-2.93655 -0.18455,-0.53434 -0.50624,-0.68688 -0.96659,-0.45586 0,0 0,0 0,0"
         inkscape:connector-curvature="0" />
    </g>
    <g
       transform="matrix(-0.96274033,0,0,-0.96274033,287.95999,481.67191)"
       id="text845-7-8-1-0-4"
       style="font-style:normal;font-weight:normal;font-size:11.36830807px;line-height:1.25;font-family:sans-serif;letter-spacing:0px;word-spacing:0px;fill:#000000;fill-opacity:1;stroke:none;stroke-width:0.2842077"
       aria-label="SAULIUS">
      <path
         inkscape:connector-curvature="0"
         id="path2097-0-2"
         style="font-style:normal;font-variant:normal;font-weight:normal;font-stretch:normal;font-family:'Archivo Black';-inkscape-font-specification:'Archivo Black, ';letter-spacing:0px;fill:#000000;fill-opacity:1;stroke-width:0.2842077"
         d="m 185.23165,236.08576 c -0.76344,0.29459 -1.39138,0.0916 -1.88357,-0.60925 -0.49241,-0.68472 -0.7445,-1.89123 -0.75609,-3.61932 0,0 0,-0.29699 0,-0.29699 0,0 1.79811,-0.68917 1.79811,-0.68917 0,0 0,0.099 0,0.099 0,0.49459 0.0636,0.88233 0.19092,1.16318 0.12727,0.28083 0.32103,0.37124 0.58124,0.27128 0.25438,-0.0977 0.4509,-0.2803 0.5896,-0.54777 0.1329,-0.26521 0.19935,-0.5543 0.19935,-0.8673 0,-0.44482 -0.0925,-0.73889 -0.27736,-0.88221 -0.18495,-0.14334 -0.48268,-0.25178 -0.89326,-0.32533 -0.48018,-0.0965 -0.87375,-0.24265 -1.18059,-0.43863 -0.31273,-0.17731 -0.58499,-0.56815 -0.81676,-1.17255 -0.23182,-0.60454 -0.35065,-1.49981 -0.35644,-2.68572 0,-2.0132 0.24053,-3.5977 0.72145,-4.75312 0.47491,-1.15272 1.11165,-1.8797 1.90994,-2.18115 0.93057,-0.35142 1.6554,-0.18048 2.1749,0.51232 0.51347,0.69465 0.77011,2.16927 0.77011,4.4241 0,0 -1.80935,0.6884 -1.80935,0.6884 0,-0.85659 -0.078,-1.40351 -0.23397,-1.64081 -0.15601,-0.22086 -0.39873,-0.26879 -0.72823,-0.14376 -0.24286,0.0922 -0.44239,0.24204 -0.59856,0.44968 -0.16199,0.20985 -0.24299,0.5456 -0.24299,1.00723 0,0.41215 0.0897,0.68304 0.26902,0.81265 0.17352,0.14827 0.45978,0.26184 0.85868,0.3407 0.48541,0.11173 0.88686,0.26353 1.20445,0.45542 0.3175,0.20831 0.59451,0.63776 0.83106,1.28828 0.23651,0.6504 0.35474,1.60923 0.35474,2.8766 0,1.85991 -0.2509,3.32259 -0.75287,4.38842 -0.50799,1.08503 -1.14908,1.77707 -1.92353,2.07591 0,0 0,-7e-5 0,-7e-5" />
      <path
         inkscape:connector-curvature="0"
         id="path2099-8-7"
         style="font-style:normal;font-variant:normal;font-weight:normal;font-stretch:normal;font-family:'Archivo Black';-inkscape-font-specification:'Archivo Black, ';letter-spacing:0px;fill:#000000;fill-opacity:1;stroke-width:0.2842077"
         d="m 177.44459,221.72346 c 0,0 0.2533,2.31062 0.2533,2.31062 0,0 2.10274,-0.79671 2.10274,-0.79671 0,0 0.25275,-2.49943 0.25275,-2.49943 0,0 1.96766,-0.74331 1.96766,-0.74331 0,0 -2.18554,17.87593 -2.18554,17.87593 0,0 -2.24242,0.86497 -2.24242,0.86497 0,0 -2.1946,-16.23911 -2.1946,-16.23911 0,0 2.04611,-0.77296 2.04611,-0.77296 m 1.95501,5.48313 c 0,0 -1.30004,0.49488 -1.30004,0.49488 0,0 0.6284,5.83561 0.6284,5.83561 0,0 0.0349,-0.0134 0.0349,-0.0134 0,0 0.63674,-6.3171 0.63674,-6.3171" />
      <path
         inkscape:connector-curvature="0"
         id="path2101-4-3"
         style="font-style:normal;font-variant:normal;font-weight:normal;font-stretch:normal;font-family:'Archivo Black';-inkscape-font-specification:'Archivo Black, ';letter-spacing:0px;fill:#000000;fill-opacity:1;stroke-width:0.2842077"
         d="m 168.95373,231.83064 c 0,-2.34138 0.26118,-4.22547 0.78336,-5.65176 0.52192,-1.42561 1.26332,-2.31963 2.22374,-2.68231 0.95956,-0.36236 1.70205,-0.0297 2.22792,0.99742 0.51976,1.02879 0.77955,2.71042 0.77955,5.04526 0,0 0,10.20873 0,10.20873 0,0 -1.93679,0.74707 -1.93679,0.74707 0,0 0,-10.14334 0,-10.14334 0,-0.96131 -0.0907,-1.69755 -0.27196,-2.20878 -0.18134,-0.49473 -0.44463,-0.67662 -0.78994,-0.54556 -0.34542,0.1311 -0.60894,0.52139 -0.79052,1.17092 -0.18747,0.65187 -0.28122,1.45068 -0.28122,2.39635 0,0 0,10.15341 0,10.15341 0,0 -1.94414,0.74991 -1.94414,0.74991 0,0 0,-10.23732 0,-10.23732" />
      <path
         inkscape:connector-curvature="0"
         id="path2103-6-7"
         style="font-style:normal;font-variant:normal;font-weight:normal;font-stretch:normal;font-family:'Archivo Black';-inkscape-font-specification:'Archivo Black, ';letter-spacing:0px;fill:#000000;fill-opacity:1;stroke-width:0.2842077"
         d="m 167.64112,242.57427 c 0,0 -1.95004,0.75218 -1.95004,0.75218 0,0 0,-12.77238 0,-12.77238 0,0 -3.1221,1.18579 -3.1221,1.18579 0,0 0,-4.39686 0,-4.39686 0,0 5.07214,-1.9161 5.07214,-1.9161 0,0 0,17.14737 0,17.14737" />
      <path
         inkscape:connector-curvature="0"
         id="path2105-1-9"
         style="font-style:normal;font-variant:normal;font-weight:normal;font-stretch:normal;font-family:'Archivo Black';-inkscape-font-specification:'Archivo Black, ';letter-spacing:0px;fill:#000000;fill-opacity:1;stroke-width:0.2842077"
         d="m 161.6477,227.69103 c 0,0 0,17.19507 0,17.19507 0,0 -1.96091,0.75637 -1.96091,0.75637 0,0 0,-17.21067 0,-17.21067 0,0 1.96091,-0.74077 1.96091,-0.74077" />
      <path
         inkscape:connector-curvature="0"
         id="path2107-6-6"
         style="font-style:normal;font-variant:normal;font-weight:normal;font-stretch:normal;font-family:'Archivo Black';-inkscape-font-specification:'Archivo Black, ';letter-spacing:0px;fill:#000000;fill-opacity:1;stroke-width:0.2842077"
         d="m 152.17708,238.22209 c 0,-2.35962 0.26526,-4.25918 0.79561,-5.69813 0.53008,-1.43826 1.28307,-2.34143 2.2585,-2.70978 0.97455,-0.36802 1.72863,-0.0349 2.2627,0.99857 0.52788,1.03525 0.79172,2.72917 0.79172,5.08215 0,0 0,10.28805 0,10.28805 0,0 -1.96702,0.75873 -1.96702,0.75873 0,0 0,-10.22222 0,-10.22222 0,-0.96879 -0.0921,-1.71048 -0.27621,-2.22514 -0.18417,-0.49805 -0.45158,-0.68057 -0.80227,-0.54746 -0.35082,0.13314 -0.61846,0.52725 -0.80288,1.18238 -0.1904,0.65751 -0.28561,1.46282 -0.28561,2.41585 0,0 0,10.23245 0,10.23245 0,0 -1.97454,0.76164 -1.97454,0.76164 0,0 0,-10.31709 0,-10.31709" />
      <path
         inkscape:connector-curvature="0"
         id="path2109-0-5"
         style="font-style:normal;font-variant:normal;font-weight:normal;font-stretch:normal;font-family:'Archivo Black';-inkscape-font-specification:'Archivo Black, ';letter-spacing:0px;fill:#000000;fill-opacity:1;stroke-width:0.2842077"
         d="m 148.25321,250.35449 c -0.7901,0.30488 -1.43996,0.10268 -1.94935,-0.60701 -0.50962,-0.69323 -0.77052,-1.91894 -0.78251,-3.6769 0,0 0,-0.30213 0,-0.30213 0,0 1.86092,-0.71325 1.86092,-0.71325 0,0 0,0.10069 0,0.10069 0,0.50316 0.0659,0.89718 0.19759,1.18203 0.13172,0.28483 0.33224,0.3755 0.60155,0.27205 0.26325,-0.10113 0.46664,-0.28821 0.61018,-0.56124 0.13754,-0.27069 0.2063,-0.56524 0.2063,-0.88365 0,-0.45252 -0.0957,-0.75104 -0.28705,-0.8956 -0.1914,-0.14458 -0.49952,-0.25289 -0.92443,-0.32493 -0.49695,-0.0949 -0.90426,-0.24097 -1.22183,-0.43827 -0.32365,-0.17828 -0.60543,-0.57405 -0.84531,-1.18737 -0.23992,-0.61345 -0.3629,-1.52344 -0.3689,-2.72986 0,-2.04808 0.24895,-3.66164 0.74667,-4.84029 0.49151,-1.17585 1.15049,-1.91965 1.97665,-2.23163 0.96306,-0.36368 1.71318,-0.19461 2.2508,0.50672 0.53138,0.70324 0.79697,2.20163 0.79697,4.49543 0,0 -1.87247,0.71241 -1.87247,0.71241 0,-0.8714 -0.0807,-1.42727 -0.24214,-1.66763 -0.16145,-0.22363 -0.41264,-0.27078 -0.75364,-0.14138 -0.25133,0.0954 -0.45783,0.24919 -0.61946,0.46146 -0.16764,0.21457 -0.25148,0.55668 -0.25148,1.0263 0,0.41929 0.0928,0.69426 0.27842,0.82491 0.17959,0.14967 0.47584,0.26329 0.88866,0.34085 0.50235,0.1104 0.91782,0.26214 1.24649,0.45521 0.32856,0.20979 0.61523,0.6448 0.86004,1.30499 0.24475,0.66005 0.3671,1.63466 0.3671,2.92393 0,1.89206 -0.25964,3.38171 -0.77912,4.46937 -0.5257,1.10723 -1.18917,1.8156 -1.99065,2.12486 0,0 0,-7e-5 0,-7e-5" />
    </g>
    <g
       transform="matrix(-0.96274032,0,0,-0.96274032,289.07782,480.79481)"
       id="text845-7-8-1-0"
       style="font-style:normal;font-weight:normal;font-size:11.36830807px;line-height:1.25;font-family:sans-serif;letter-spacing:0px;word-spacing:0px;fill:#ffffff;fill-opacity:1;stroke:none;stroke-width:0.2842077"
       aria-label="SAULIUS">
      <path
         inkscape:connector-curvature="0"
         id="path2097-0"
         style="font-style:normal;font-variant:normal;font-weight:normal;font-stretch:normal;font-family:'Archivo Black';-inkscape-font-specification:'Archivo Black, ';letter-spacing:0px;fill:#ffffff;fill-opacity:1;stroke-width:0.2842077"
         d="m 185.23165,236.08576 c -0.76344,0.29459 -1.39138,0.0916 -1.88357,-0.60925 -0.49241,-0.68472 -0.7445,-1.89123 -0.75609,-3.61932 0,0 0,-0.29699 0,-0.29699 0,0 1.79811,-0.68917 1.79811,-0.68917 0,0 0,0.099 0,0.099 0,0.49459 0.0636,0.88233 0.19092,1.16318 0.12727,0.28083 0.32103,0.37124 0.58124,0.27128 0.25438,-0.0977 0.4509,-0.2803 0.5896,-0.54777 0.1329,-0.26521 0.19935,-0.5543 0.19935,-0.8673 0,-0.44482 -0.0925,-0.73889 -0.27736,-0.88221 -0.18495,-0.14334 -0.48268,-0.25178 -0.89326,-0.32533 -0.48018,-0.0965 -0.87375,-0.24265 -1.18059,-0.43863 -0.31273,-0.17731 -0.58499,-0.56815 -0.81676,-1.17255 -0.23182,-0.60454 -0.35065,-1.49981 -0.35644,-2.68572 0,-2.0132 0.24053,-3.5977 0.72145,-4.75312 0.47491,-1.15272 1.11165,-1.8797 1.90994,-2.18115 0.93057,-0.35142 1.6554,-0.18048 2.1749,0.51232 0.51347,0.69465 0.77011,2.16927 0.77011,4.4241 0,0 -1.80935,0.6884 -1.80935,0.6884 0,-0.85659 -0.078,-1.40351 -0.23397,-1.64081 -0.15601,-0.22086 -0.39873,-0.26879 -0.72823,-0.14376 -0.24286,0.0922 -0.44239,0.24204 -0.59856,0.44968 -0.16199,0.20985 -0.24299,0.5456 -0.24299,1.00723 0,0.41215 0.0897,0.68304 0.26902,0.81265 0.17352,0.14827 0.45978,0.26184 0.85868,0.3407 0.48541,0.11173 0.88686,0.26353 1.20445,0.45542 0.3175,0.20831 0.59451,0.63776 0.83106,1.28828 0.23651,0.6504 0.35474,1.60923 0.35474,2.8766 0,1.85991 -0.2509,3.32259 -0.75287,4.38842 -0.50799,1.08503 -1.14908,1.77707 -1.92353,2.07591 0,0 0,-7e-5 0,-7e-5" />
      <path
         inkscape:connector-curvature="0"
         id="path2099-8"
         style="font-style:normal;font-variant:normal;font-weight:normal;font-stretch:normal;font-family:'Archivo Black';-inkscape-font-specification:'Archivo Black, ';letter-spacing:0px;fill:#ffffff;fill-opacity:1;stroke-width:0.2842077"
         d="m 177.44459,221.72346 c 0,0 0.2533,2.31062 0.2533,2.31062 0,0 2.10274,-0.79671 2.10274,-0.79671 0,0 0.25275,-2.49943 0.25275,-2.49943 0,0 1.96766,-0.74331 1.96766,-0.74331 0,0 -2.18554,17.87593 -2.18554,17.87593 0,0 -2.24242,0.86497 -2.24242,0.86497 0,0 -2.1946,-16.23911 -2.1946,-16.23911 0,0 2.04611,-0.77296 2.04611,-0.77296 m 1.95501,5.48313 c 0,0 -1.30004,0.49488 -1.30004,0.49488 0,0 0.6284,5.83561 0.6284,5.83561 0,0 0.0349,-0.0134 0.0349,-0.0134 0,0 0.63674,-6.3171 0.63674,-6.3171" />
      <path
         inkscape:connector-curvature="0"
         id="path2101-4"
         style="font-style:normal;font-variant:normal;font-weight:normal;font-stretch:normal;font-family:'Archivo Black';-inkscape-font-specification:'Archivo Black, ';letter-spacing:0px;fill:#ffffff;fill-opacity:1;stroke-width:0.2842077"
         d="m 168.95373,231.83064 c 0,-2.34138 0.26118,-4.22547 0.78336,-5.65176 0.52192,-1.42561 1.26332,-2.31963 2.22374,-2.68231 0.95956,-0.36236 1.70205,-0.0297 2.22792,0.99742 0.51976,1.02879 0.77955,2.71042 0.77955,5.04526 0,0 0,10.20873 0,10.20873 0,0 -1.93679,0.74707 -1.93679,0.74707 0,0 0,-10.14334 0,-10.14334 0,-0.96131 -0.0907,-1.69755 -0.27196,-2.20878 -0.18134,-0.49473 -0.44463,-0.67662 -0.78994,-0.54556 -0.34542,0.1311 -0.60894,0.52139 -0.79052,1.17092 -0.18747,0.65187 -0.28122,1.45068 -0.28122,2.39635 0,0 0,10.15341 0,10.15341 0,0 -1.94414,0.74991 -1.94414,0.74991 0,0 0,-10.23732 0,-10.23732" />
      <path
         inkscape:connector-curvature="0"
         id="path2103-6"
         style="font-style:normal;font-variant:normal;font-weight:normal;font-stretch:normal;font-family:'Archivo Black';-inkscape-font-specification:'Archivo Black, ';letter-spacing:0px;fill:#ffffff;fill-opacity:1;stroke-width:0.2842077"
         d="m 167.64112,242.57427 c 0,0 -1.95004,0.75218 -1.95004,0.75218 0,0 0,-12.77238 0,-12.77238 0,0 -3.1221,1.18579 -3.1221,1.18579 0,0 0,-4.39686 0,-4.39686 0,0 5.07214,-1.9161 5.07214,-1.9161 0,0 0,17.14737 0,17.14737" />
      <path
         inkscape:connector-curvature="0"
         id="path2105-1"
         style="font-style:normal;font-variant:normal;font-weight:normal;font-stretch:normal;font-family:'Archivo Black';-inkscape-font-specification:'Archivo Black, ';letter-spacing:0px;fill:#ffffff;fill-opacity:1;stroke-width:0.2842077"
         d="m 161.6477,227.69103 c 0,0 0,17.19507 0,17.19507 0,0 -1.96091,0.75637 -1.96091,0.75637 0,0 0,-17.21067 0,-17.21067 0,0 1.96091,-0.74077 1.96091,-0.74077" />
      <path
         inkscape:connector-curvature="0"
         id="path2107-6"
         style="font-style:normal;font-variant:normal;font-weight:normal;font-stretch:normal;font-family:'Archivo Black';-inkscape-font-specification:'Archivo Black, ';letter-spacing:0px;fill:#ffffff;fill-opacity:1;stroke-width:0.2842077"
         d="m 152.17708,238.22209 c 0,-2.35962 0.26526,-4.25918 0.79561,-5.69813 0.53008,-1.43826 1.28307,-2.34143 2.2585,-2.70978 0.97455,-0.36802 1.72863,-0.0349 2.2627,0.99857 0.52788,1.03525 0.79172,2.72917 0.79172,5.08215 0,0 0,10.28805 0,10.28805 0,0 -1.96702,0.75873 -1.96702,0.75873 0,0 0,-10.22222 0,-10.22222 0,-0.96879 -0.0921,-1.71048 -0.27621,-2.22514 -0.18417,-0.49805 -0.45158,-0.68057 -0.80227,-0.54746 -0.35082,0.13314 -0.61846,0.52725 -0.80288,1.18238 -0.1904,0.65751 -0.28561,1.46282 -0.28561,2.41585 0,0 0,10.23245 0,10.23245 0,0 -1.97454,0.76164 -1.97454,0.76164 0,0 0,-10.31709 0,-10.31709" />
      <path
         inkscape:connector-curvature="0"
         id="path2109-0"
         style="font-style:normal;font-variant:normal;font-weight:normal;font-stretch:normal;font-family:'Archivo Black';-inkscape-font-specification:'Archivo Black, ';letter-spacing:0px;fill:#ffffff;fill-opacity:1;stroke-width:0.2842077"
         d="m 148.25321,250.35449 c -0.7901,0.30488 -1.43996,0.10268 -1.94935,-0.60701 -0.50962,-0.69323 -0.77052,-1.91894 -0.78251,-3.6769 0,0 0,-0.30213 0,-0.30213 0,0 1.86092,-0.71325 1.86092,-0.71325 0,0 0,0.10069 0,0.10069 0,0.50316 0.0659,0.89718 0.19759,1.18203 0.13172,0.28483 0.33224,0.3755 0.60155,0.27205 0.26325,-0.10113 0.46664,-0.28821 0.61018,-0.56124 0.13754,-0.27069 0.2063,-0.56524 0.2063,-0.88365 0,-0.45252 -0.0957,-0.75104 -0.28705,-0.8956 -0.1914,-0.14458 -0.49952,-0.25289 -0.92443,-0.32493 -0.49695,-0.0949 -0.90426,-0.24097 -1.22183,-0.43827 -0.32365,-0.17828 -0.60543,-0.57405 -0.84531,-1.18737 -0.23992,-0.61345 -0.3629,-1.52344 -0.3689,-2.72986 0,-2.04808 0.24895,-3.66164 0.74667,-4.84029 0.49151,-1.17585 1.15049,-1.91965 1.97665,-2.23163 0.96306,-0.36368 1.71318,-0.19461 2.2508,0.50672 0.53138,0.70324 0.79697,2.20163 0.79697,4.49543 0,0 -1.87247,0.71241 -1.87247,0.71241 0,-0.8714 -0.0807,-1.42727 -0.24214,-1.66763 -0.16145,-0.22363 -0.41264,-0.27078 -0.75364,-0.14138 -0.25133,0.0954 -0.45783,0.24919 -0.61946,0.46146 -0.16764,0.21457 -0.25148,0.55668 -0.25148,1.0263 0,0.41929 0.0928,0.69426 0.27842,0.82491 0.17959,0.14967 0.47584,0.26329 0.88866,0.34085 0.50235,0.1104 0.91782,0.26214 1.24649,0.45521 0.32856,0.20979 0.61523,0.6448 0.86004,1.30499 0.24475,0.66005 0.3671,1.63466 0.3671,2.92393 0,1.89206 -0.25964,3.38171 -0.77912,4.46937 -0.5257,1.10723 -1.18917,1.8156 -1.99065,2.12486 0,0 0,-7e-5 0,-7e-5" />
    </g>
    <g
       aria-label="GTO"
       style="font-style:normal;font-weight:normal;font-size:11.36830807px;line-height:1.25;font-family:sans-serif;letter-spacing:0px;word-spacing:0px;fill:#bf5555;fill-opacity:1;stroke:none;stroke-width:0.2842077"
       id="text845-7-8-2-2"
       transform="matrix(0.98103367,0,0,-0.98103367,-140.336,556.23465)">
      <path
         d="m 168.99528,276.71837 c 1.39934,0.53996 3.00028,0.90625 4.80941,1.10309 1.8011,0.19597 3.72235,0.1946 5.77663,-0.004 2.0522,-0.18667 4.12636,-0.60054 6.2388,-1.24803 0,0 -4.26417,-1.77703 -4.26417,-1.77703 -1.09049,0.34592 -2.22137,0.51412 -3.39896,0.50657 -1.20273,4.4e-4 -2.1824,-0.15249 -2.94284,-0.46033 -1.10754,-0.44836 -1.42814,-0.96311 -0.94911,-1.54641 0.45968,-0.58227 1.6648,-1.20028 3.63134,-1.85529 0,0 2.52354,-0.84055 2.52354,-0.84055 2.02975,-0.67607 3.91273,-1.07926 5.63062,-1.2026 1.6947,-0.11458 3.0924,0.0787 4.18162,0.57626 0.74754,0.34146 1.03615,0.7407 0.87099,1.19627 -0.19078,0.45988 -0.82687,0.8599 -1.90374,1.20149 0,0 -3.23407,-1.43342 -3.23407,-1.43342 0,0 -5.54937,1.80695 -5.54937,1.80695 0,0 7.509,3.18293 7.509,3.18293 0,0 15.58434,-4.77678 15.58434,-4.77678 0,0 -2.22349,-1.07067 -2.22349,-1.07067 0,0 -3.32703,0.69677 -3.32703,0.69677 1.01321,-1.30832 0.50334,-2.47265 -1.58231,-3.48124 -2.39832,-1.15979 -5.52935,-1.61296 -9.33512,-1.3401 -3.81317,0.28104 -8.14935,1.26607 -12.90283,2.91407 -4.5467,1.57631 -7.15702,3.03275 -7.92371,4.37789 -0.75446,1.32119 0.19221,2.47556 2.78046,3.47428 0,0 0,0 0,0"
         style="font-style:normal;font-variant:normal;font-weight:normal;font-stretch:normal;font-family:'Archivo Black';-inkscape-font-specification:'Archivo Black, ';letter-spacing:0px;fill:#bf5555;fill-opacity:1;stroke-width:0.2842077"
         id="path2520-2-9"
         inkscape:connector-curvature="0" />
      <path
         d="m 193.1954,281.53778 c 0,0 20.10233,-5.67699 20.10233,-5.67699 0,0 -3.93096,-1.89287 -3.93096,-1.89287 0,0 -20.24464,5.90954 -20.24464,5.90954 0,0 -4.33398,-1.76659 -4.33398,-1.76659 0,0 -6.40526,1.93636 -6.40526,1.93636 0,0 12.49898,4.83941 12.49898,4.83941 0,0 6.30269,-1.72282 6.30269,-1.72282 0,0 -3.98916,-1.62604 -3.98916,-1.62604"
         style="font-style:normal;font-variant:normal;font-weight:normal;font-stretch:normal;font-family:'Archivo Black';-inkscape-font-specification:'Archivo Black, ';letter-spacing:0px;fill:#bf5555;fill-opacity:1;stroke-width:0.2842077"
         id="path2522-5-7"
         inkscape:connector-curvature="0" />
      <path
         d="m 197.43267,287.69139 c 1.93018,0.74479 4.44354,1.04753 7.57521,0.91846 3.1421,-0.1295 6.79962,-0.70654 11.04803,-1.75129 4.36328,-1.07299 7.28629,-2.12977 8.70658,-3.16786 1.45695,-1.0649 1.30257,-2.04152 -0.51957,-2.92268 -1.86051,-0.89971 -4.55985,-1.27954 -8.05913,-1.12562 -3.50241,0.1657 -7.5494,0.87372 -12.05246,2.09773 -4.37624,1.18954 -7.05615,2.29086 -8.1115,3.30959 -1.04156,1.00441 -0.55466,1.88248 1.41284,2.64167 0,0 0,0 0,0 m 5.81894,-1.50266 c -0.77251,-0.31273 -0.8468,-0.68732 -0.21324,-1.12548 0.64048,-0.44293 1.86224,-0.90297 3.67572,-1.38061 0,0 2.41729,-0.63666 2.41729,-0.63666 1.86321,-0.49073 3.55987,-0.79533 5.07651,-0.90967 1.52079,-0.11465 2.6599,1.8e-4 3.40961,0.34263 0.74363,0.33968 0.7439,0.73952 0.0114,1.19776 -0.71409,0.45783 -1.99842,0.92044 -3.84295,1.38758 0,0 -2.39384,0.60625 -2.39384,0.60625 -1.79648,0.45497 -3.40968,0.72997 -4.85209,0.82866 -1.42818,0.1028 -2.52192,-1.6e-4 -3.28843,-0.31046 0,0 0,0 0,0"
         style="font-style:normal;font-variant:normal;font-weight:normal;font-stretch:normal;font-family:'Archivo Black';-inkscape-font-specification:'Archivo Black, ';letter-spacing:0px;fill:#bf5555;fill-opacity:1;stroke-width:0.2842077"
         id="path2524-9-6"
         inkscape:connector-curvature="0" />
    </g>
    <g
       aria-label="GTO"
       style="font-style:normal;font-weight:normal;font-size:11.36830807px;line-height:1.25;font-family:sans-serif;letter-spacing:0px;word-spacing:0px;fill:#040d17;fill-opacity:1;stroke:#bf5555;stroke-width:0.2842077;stroke-opacity:1"
       id="text845-7-8-8"
       transform="matrix(0.98103367,0,0,-0.98103367,-140.12986,554.47713)">
      <path
         d="m 168.99528,276.71837 c 1.39934,0.53996 3.00028,0.90625 4.80941,1.10309 1.8011,0.19597 3.72235,0.1946 5.77663,-0.004 2.0522,-0.18667 4.12636,-0.60054 6.2388,-1.24803 0,0 -4.26417,-1.77703 -4.26417,-1.77703 -1.09049,0.34592 -2.22137,0.51412 -3.39896,0.50657 -1.20273,4.4e-4 -2.1824,-0.15249 -2.94284,-0.46033 -1.10754,-0.44836 -1.42814,-0.96311 -0.94911,-1.54641 0.45968,-0.58227 1.6648,-1.20028 3.63134,-1.85529 0,0 2.52354,-0.84055 2.52354,-0.84055 2.02975,-0.67607 3.91273,-1.07926 5.63062,-1.2026 1.6947,-0.11458 3.0924,0.0787 4.18162,0.57626 0.74754,0.34146 1.03615,0.7407 0.87099,1.19627 -0.19078,0.45988 -0.82687,0.8599 -1.90374,1.20149 0,0 -3.23407,-1.43342 -3.23407,-1.43342 0,0 -5.54937,1.80695 -5.54937,1.80695 0,0 7.509,3.18293 7.509,3.18293 0,0 15.58434,-4.77678 15.58434,-4.77678 0,0 -2.22349,-1.07067 -2.22349,-1.07067 0,0 -3.32703,0.69677 -3.32703,0.69677 1.01321,-1.30832 0.50334,-2.47265 -1.58231,-3.48124 -2.39832,-1.15979 -5.52935,-1.61296 -9.33512,-1.3401 -3.81317,0.28104 -8.14935,1.26607 -12.90283,2.91407 -4.5467,1.57631 -7.15702,3.03275 -7.92371,4.37789 -0.75446,1.32119 0.19221,2.47556 2.78046,3.47428 0,0 0,0 0,0"
         style="font-style:normal;font-variant:normal;font-weight:normal;font-stretch:normal;font-family:'Archivo Black';-inkscape-font-specification:'Archivo Black, ';letter-spacing:0px;fill:#040d17;fill-opacity:1;stroke:#bf5555;stroke-width:0.2842077;stroke-opacity:1"
         id="path2520-9"
         inkscape:connector-curvature="0" />
      <path
         d="m 193.1954,281.53778 c 0,0 20.10233,-5.67699 20.10233,-5.67699 0,0 -3.93096,-1.89287 -3.93096,-1.89287 0,0 -20.24464,5.90954 -20.24464,5.90954 0,0 -4.33398,-1.76659 -4.33398,-1.76659 0,0 -6.40526,1.93636 -6.40526,1.93636 0,0 12.49898,4.83941 12.49898,4.83941 0,0 6.30269,-1.72282 6.30269,-1.72282 0,0 -3.98916,-1.62604 -3.98916,-1.62604"
         style="font-style:normal;font-variant:normal;font-weight:normal;font-stretch:normal;font-family:'Archivo Black';-inkscape-font-specification:'Archivo Black, ';letter-spacing:0px;fill:#040d17;fill-opacity:1;stroke:#bf5555;stroke-width:0.2842077;stroke-opacity:1"
         id="path2522-4"
         inkscape:connector-curvature="0" />
      <path
         d="m 197.43267,287.69139 c 1.93018,0.74479 4.44354,1.04753 7.57521,0.91846 3.1421,-0.1295 6.79962,-0.70654 11.04803,-1.75129 4.36328,-1.07299 7.28629,-2.12977 8.70658,-3.16786 1.45695,-1.0649 1.30257,-2.04152 -0.51957,-2.92268 -1.86051,-0.89971 -4.55985,-1.27954 -8.05913,-1.12562 -3.50241,0.1657 -7.5494,0.87372 -12.05246,2.09773 -4.37624,1.18954 -7.05615,2.29086 -8.1115,3.30959 -1.04156,1.00441 -0.55466,1.88248 1.41284,2.64167 0,0 0,0 0,0 m 5.81894,-1.50266 c -0.77251,-0.31273 -0.8468,-0.68732 -0.21324,-1.12548 0.64048,-0.44293 1.86224,-0.90297 3.67572,-1.38061 0,0 2.41729,-0.63666 2.41729,-0.63666 1.86321,-0.49073 3.55987,-0.79533 5.07651,-0.90967 1.52079,-0.11465 2.6599,1.8e-4 3.40961,0.34263 0.74363,0.33968 0.7439,0.73952 0.0114,1.19776 -0.71409,0.45783 -1.99842,0.92044 -3.84295,1.38758 0,0 -2.39384,0.60625 -2.39384,0.60625 -1.79648,0.45497 -3.40968,0.72997 -4.85209,0.82866 -1.42818,0.1028 -2.52192,-1.6e-4 -3.28843,-0.31046 0,0 0,0 0,0"
         style="font-style:normal;font-variant:normal;font-weight:normal;font-stretch:normal;font-family:'Archivo Black';-inkscape-font-specification:'Archivo Black, ';letter-spacing:0px;fill:#040d17;fill-opacity:1;stroke:#bf5555;stroke-width:0.2842077;stroke-opacity:1"
         id="path2524-8"
         inkscape:connector-curvature="0" />
    </g>
    <g
       id="text845-7-9-3-8-5"
       style="font-style:normal;font-weight:normal;font-size:10.58333302px;line-height:1.25;font-family:sans-serif;letter-spacing:0px;word-spacing:0px;fill:#bf5555;fill-opacity:1;stroke:none;stroke-width:0.26458332"
       aria-label="3000"
       transform="matrix(0.95518113,0,0,0.95518113,-84.523274,26.62002)">
      <path
         id="path3073-0-8"
         style="font-style:normal;font-variant:normal;font-weight:normal;font-stretch:normal;font-family:'Archivo Black';-inkscape-font-specification:'Archivo Black, ';letter-spacing:0px;fill:#bf5555;fill-opacity:1;stroke-width:0.26458332"
         d="m 141.71881,281.2626 c 1.00759,-0.48725 1.87209,-0.67493 2.597,-0.56718 0.73174,0.10113 1.28008,0.45334 1.64795,1.05554 0.37833,0.57593 0.56696,1.33538 0.56696,2.27997 0,0.94458 -0.16503,1.88379 -0.49592,2.81993 -0.33197,0.92098 -0.7604,1.67609 -1.2865,2.26534 0,0 0,0.10987 0,0.10987 0.68102,-0.0322 1.20361,0.26388 1.57018,0.88626 0.37701,0.59558 0.56498,1.46373 0.56498,2.60613 -0.047,1.62207 -0.50007,3.18505 -1.36487,4.69806 -0.86024,1.50079 -2.14617,2.75063 -3.87389,3.75247 -1.20561,0.69909 -2.22951,1.04832 -3.06612,1.04152 -0.84334,-0.007 -1.47386,-0.31996 -1.88767,-0.9411 -0.41545,-0.62357 -0.62378,-1.47131 -0.62378,-2.54136 0,0 0,-0.60191 0,-0.60191 0,0 3.38593,-1.8631 3.38593,-1.8631 0,1.54185 0.65421,1.94553 1.9504,1.21794 1.28013,-0.71859 1.91427,-1.92347 1.91427,-3.6213 0,-0.6459 -0.12165,-1.06885 -0.36537,-1.2692 -0.23208,-0.22595 -0.53824,-0.23671 -0.91915,-0.0313 0,0 -1.35686,0.73156 -1.35686,0.73156 0,0 0,-3.44881 0,-3.44881 0,0 1.06098,-0.5544 1.06098,-0.5544 0.38201,-0.19961 0.68905,-0.52686 0.92179,-0.98154 0.24442,-0.47846 0.36642,-1.04068 0.36642,-1.68753 0,-0.60987 -0.14641,-1.05306 -0.43986,-1.33016 -0.282,-0.28409 -0.67565,-0.29972 -1.18222,-0.0454 -0.53396,0.2681 -0.95187,0.68378 -1.2523,1.24721 -0.30131,0.56507 -0.45229,1.14871 -0.45229,1.74969 0,0 -3.2025,1.64092 -3.2025,1.64092 0,0 0,-0.7151 0,-0.7151 0,-0.99161 0.20749,-2.00118 0.62126,-3.02567 0.425,-1.0268 1.03374,-1.96976 1.82304,-2.82712 0.79596,-0.85706 1.7232,-1.54018 2.77814,-2.05033 0,0 0,1e-4 0,1e-4"
         inkscape:connector-curvature="0" />
      <path
         id="path3075-7-5"
         style="font-style:normal;font-variant:normal;font-weight:normal;font-stretch:normal;font-family:'Archivo Black';-inkscape-font-specification:'Archivo Black, ';letter-spacing:0px;fill:#bf5555;fill-opacity:1;stroke-width:0.26458332"
         d="m 153.30846,275.65802 c 1.75497,-0.84868 2.96796,-0.64008 3.6588,0.6076 0.69641,1.21625 1.04271,3.30282 1.04271,6.26635 0,2.96354 -0.3463,5.42696 -1.04271,7.40105 -0.69084,1.96517 -1.90383,3.45507 -3.6588,4.47272 -1.7984,1.04282 -3.08398,0.97691 -3.83598,-0.21901 -0.74622,-1.22944 -1.12143,-3.40472 -1.12143,-6.51888 0,-3.11417 0.37521,-5.67948 1.12143,-7.68462 0.752,-2.01357 2.03758,-3.45553 3.83598,-4.32521 0,0 0,0 0,0 m 0,3.55469 c -0.57367,0.28789 -0.98392,0.84663 -1.22867,1.6765 -0.24536,0.83193 -0.36827,2.05393 -0.36827,3.66444 0,0 0,2.62815 0,2.62815 0,1.62822 0.12291,2.72837 0.36827,3.29937 0.24475,0.56959 0.655,0.69205 1.22867,0.36988 0.5703,-0.32029 0.96862,-0.89333 1.19705,-1.71906 0.22789,-0.82377 0.34164,-2.03604 0.34164,-3.63825 0,0 0,-2.58618 0,-2.58618 0,-1.6022 -0.11375,-2.6848 -0.34164,-3.2488 -0.22843,-0.5828 -0.62675,-0.73225 -1.19705,-0.44605 0,0 0,0 0,0"
         inkscape:connector-curvature="0" />
      <path
         id="path3077-2-3"
         style="font-style:normal;font-variant:normal;font-weight:normal;font-stretch:normal;font-family:'Archivo Black';-inkscape-font-specification:'Archivo Black, ';letter-spacing:0px;fill:#bf5555;fill-opacity:1;stroke-width:0.26458332"
         d="m 163.73921,270.61386 c 1.57276,-0.76057 2.66069,-0.53347 3.28064,0.66542 0.62517,1.1697 0.93614,3.15574 0.93614,5.96416 0,2.80842 -0.31097,5.13329 -0.93614,6.98417 -0.61995,1.84189 -1.70788,3.21775 -3.28064,4.12974 -1.61009,0.93363 -2.76009,0.83322 -3.43241,-0.31971 -0.66687,-1.18396 -1.00208,-3.25078 -1.00208,-6.19411 0,-2.94334 0.33521,-5.35815 1.00208,-7.23441 0.67232,-1.88484 1.82232,-3.21664 3.43241,-3.99526 0,0 0,0 0,0 m 0,3.36428 c -0.51377,0.25783 -0.88109,0.77604 -1.10019,1.55491 -0.21961,0.7807 -0.32962,1.93354 -0.32962,3.45711 0,0 0,2.48628 0,2.48628 0,1.54033 0.11001,2.58455 0.32962,3.13171 0.2191,0.54587 0.58642,0.67345 1.10019,0.38491 0.51093,-0.28693 0.86787,-0.81811 1.0726,-1.59341 0.20428,-0.77356 0.30625,-1.91821 0.30625,-3.43525 0,0 0,-2.44868 0,-2.44868 0,-1.51702 -0.10197,-2.54499 -0.30625,-3.08482 -0.20473,-0.55757 -0.56167,-0.70916 -1.0726,-0.45276 0,0 0,0 0,0"
         inkscape:connector-curvature="0" />
      <path
         id="path3079-9-7"
         style="font-style:normal;font-variant:normal;font-weight:normal;font-stretch:normal;font-family:'Archivo Black';-inkscape-font-specification:'Archivo Black, ';letter-spacing:0px;fill:#bf5555;fill-opacity:1;stroke-width:0.26458332"
         d="m 173.10933,266.08261 c 1.41751,-0.68549 2.39877,-0.44458 2.9582,0.70879 0.56434,1.12616 0.84512,3.02084 0.84512,5.68958 0,2.66874 -0.28078,4.86974 -0.84512,6.61156 -0.55943,1.73282 -1.54069,3.00948 -2.9582,3.83144 -1.4499,0.84074 -2.48468,0.71308 -3.08934,-0.39912 -0.59954,-1.14107 -0.90082,-3.10963 -0.90082,-5.89991 0,-2.79028 0.30128,-5.07119 0.90082,-6.83381 0.60466,-1.77129 1.63944,-3.00739 3.08934,-3.70853 0,0 0,0 0,0 m 0,3.19323 c -0.4628,0.23225 -0.79359,0.71507 -0.99086,1.44877 -0.19772,0.73534 -0.29675,1.8264 -0.29675,3.27194 0,0 0,2.35894 0,2.35894 0,1.46144 0.099,2.45514 0.29675,2.98021 0.19727,0.52391 0.52806,0.65495 0.99086,0.39504 0.46035,-0.25853 0.78204,-0.75317 0.96659,-1.48377 0.18415,-0.72903 0.27608,-1.8132 0.27608,-3.25365 0,0 0,-2.32507 0,-2.32507 0,-1.44044 -0.0919,-2.41902 -0.27608,-2.93655 -0.18455,-0.53434 -0.50624,-0.68688 -0.96659,-0.45586 0,0 0,0 0,0"
         inkscape:connector-curvature="0" />
    </g>
    <g
       id="text845-7-9-3-2"
       style="font-style:normal;font-weight:normal;font-size:10.58333302px;line-height:1.25;font-family:sans-serif;letter-spacing:0px;word-spacing:0px;fill:#040d17;fill-opacity:1;stroke:#bf5555;stroke-width:0.26458332;stroke-opacity:1"
       aria-label="3000"
       transform="matrix(0.95518113,0,0,0.95518113,-83.366329,26.34205)">
      <path
         id="path3073-3"
         style="font-style:normal;font-variant:normal;font-weight:normal;font-stretch:normal;font-family:'Archivo Black';-inkscape-font-specification:'Archivo Black, ';letter-spacing:0px;fill:#040d17;fill-opacity:1;stroke-width:0.26458332;stroke:#bf5555;stroke-opacity:1"
         d="m 141.71881,281.2626 c 1.00759,-0.48725 1.87209,-0.67493 2.597,-0.56718 0.73174,0.10113 1.28008,0.45334 1.64795,1.05554 0.37833,0.57593 0.56696,1.33538 0.56696,2.27997 0,0.94458 -0.16503,1.88379 -0.49592,2.81993 -0.33197,0.92098 -0.7604,1.67609 -1.2865,2.26534 0,0 0,0.10987 0,0.10987 0.68102,-0.0322 1.20361,0.26388 1.57018,0.88626 0.37701,0.59558 0.56498,1.46373 0.56498,2.60613 -0.047,1.62207 -0.50007,3.18505 -1.36487,4.69806 -0.86024,1.50079 -2.14617,2.75063 -3.87389,3.75247 -1.20561,0.69909 -2.22951,1.04832 -3.06612,1.04152 -0.84334,-0.007 -1.47386,-0.31996 -1.88767,-0.9411 -0.41545,-0.62357 -0.62378,-1.47131 -0.62378,-2.54136 0,0 0,-0.60191 0,-0.60191 0,0 3.38593,-1.8631 3.38593,-1.8631 0,1.54185 0.65421,1.94553 1.9504,1.21794 1.28013,-0.71859 1.91427,-1.92347 1.91427,-3.6213 0,-0.6459 -0.12165,-1.06885 -0.36537,-1.2692 -0.23208,-0.22595 -0.53824,-0.23671 -0.91915,-0.0313 0,0 -1.35686,0.73156 -1.35686,0.73156 0,0 0,-3.44881 0,-3.44881 0,0 1.06098,-0.5544 1.06098,-0.5544 0.38201,-0.19961 0.68905,-0.52686 0.92179,-0.98154 0.24442,-0.47846 0.36642,-1.04068 0.36642,-1.68753 0,-0.60987 -0.14641,-1.05306 -0.43986,-1.33016 -0.282,-0.28409 -0.67565,-0.29972 -1.18222,-0.0454 -0.53396,0.2681 -0.95187,0.68378 -1.2523,1.24721 -0.30131,0.56507 -0.45229,1.14871 -0.45229,1.74969 0,0 -3.2025,1.64092 -3.2025,1.64092 0,0 0,-0.7151 0,-0.7151 0,-0.99161 0.20749,-2.00118 0.62126,-3.02567 0.425,-1.0268 1.03374,-1.96976 1.82304,-2.82712 0.79596,-0.85706 1.7232,-1.54018 2.77814,-2.05033 0,0 0,1e-4 0,1e-4"
         inkscape:connector-curvature="0" />
      <path
         id="path3075-4"
         style="font-style:normal;font-variant:normal;font-weight:normal;font-stretch:normal;font-family:'Archivo Black';-inkscape-font-specification:'Archivo Black, ';letter-spacing:0px;fill:#040d17;fill-opacity:1;stroke-width:0.26458332;stroke:#bf5555;stroke-opacity:1"
         d="m 153.30846,275.65802 c 1.75497,-0.84868 2.96796,-0.64008 3.6588,0.6076 0.69641,1.21625 1.04271,3.30282 1.04271,6.26635 0,2.96354 -0.3463,5.42696 -1.04271,7.40105 -0.69084,1.96517 -1.90383,3.45507 -3.6588,4.47272 -1.7984,1.04282 -3.08398,0.97691 -3.83598,-0.21901 -0.74622,-1.22944 -1.12143,-3.40472 -1.12143,-6.51888 0,-3.11417 0.37521,-5.67948 1.12143,-7.68462 0.752,-2.01357 2.03758,-3.45553 3.83598,-4.32521 0,0 0,0 0,0 m 0,3.55469 c -0.57367,0.28789 -0.98392,0.84663 -1.22867,1.6765 -0.24536,0.83193 -0.36827,2.05393 -0.36827,3.66444 0,0 0,2.62815 0,2.62815 0,1.62822 0.12291,2.72837 0.36827,3.29937 0.24475,0.56959 0.655,0.69205 1.22867,0.36988 0.5703,-0.32029 0.96862,-0.89333 1.19705,-1.71906 0.22789,-0.82377 0.34164,-2.03604 0.34164,-3.63825 0,0 0,-2.58618 0,-2.58618 0,-1.6022 -0.11375,-2.6848 -0.34164,-3.2488 -0.22843,-0.5828 -0.62675,-0.73225 -1.19705,-0.44605 0,0 0,0 0,0"
         inkscape:connector-curvature="0" />
      <path
         id="path3077-5"
         style="font-style:normal;font-variant:normal;font-weight:normal;font-stretch:normal;font-family:'Archivo Black';-inkscape-font-specification:'Archivo Black, ';letter-spacing:0px;fill:#040d17;fill-opacity:1;stroke-width:0.26458332;stroke:#bf5555;stroke-opacity:1"
         d="m 163.73921,270.61386 c 1.57276,-0.76057 2.66069,-0.53347 3.28064,0.66542 0.62517,1.1697 0.93614,3.15574 0.93614,5.96416 0,2.80842 -0.31097,5.13329 -0.93614,6.98417 -0.61995,1.84189 -1.70788,3.21775 -3.28064,4.12974 -1.61009,0.93363 -2.76009,0.83322 -3.43241,-0.31971 -0.66687,-1.18396 -1.00208,-3.25078 -1.00208,-6.19411 0,-2.94334 0.33521,-5.35815 1.00208,-7.23441 0.67232,-1.88484 1.82232,-3.21664 3.43241,-3.99526 0,0 0,0 0,0 m 0,3.36428 c -0.51377,0.25783 -0.88109,0.77604 -1.10019,1.55491 -0.21961,0.7807 -0.32962,1.93354 -0.32962,3.45711 0,0 0,2.48628 0,2.48628 0,1.54033 0.11001,2.58455 0.32962,3.13171 0.2191,0.54587 0.58642,0.67345 1.10019,0.38491 0.51093,-0.28693 0.86787,-0.81811 1.0726,-1.59341 0.20428,-0.77356 0.30625,-1.91821 0.30625,-3.43525 0,0 0,-2.44868 0,-2.44868 0,-1.51702 -0.10197,-2.54499 -0.30625,-3.08482 -0.20473,-0.55757 -0.56167,-0.70916 -1.0726,-0.45276 0,0 0,0 0,0"
         inkscape:connector-curvature="0" />
      <path
         id="path3079-7"
         style="font-style:normal;font-variant:normal;font-weight:normal;font-stretch:normal;font-family:'Archivo Black';-inkscape-font-specification:'Archivo Black, ';letter-spacing:0px;fill:#040d17;fill-opacity:1;stroke-width:0.26458332;stroke:#bf5555;stroke-opacity:1"
         d="m 173.10933,266.08261 c 1.41751,-0.68549 2.39877,-0.44458 2.9582,0.70879 0.56434,1.12616 0.84512,3.02084 0.84512,5.68958 0,2.66874 -0.28078,4.86974 -0.84512,6.61156 -0.55943,1.73282 -1.54069,3.00948 -2.9582,3.83144 -1.4499,0.84074 -2.48468,0.71308 -3.08934,-0.39912 -0.59954,-1.14107 -0.90082,-3.10963 -0.90082,-5.89991 0,-2.79028 0.30128,-5.07119 0.90082,-6.83381 0.60466,-1.77129 1.63944,-3.00739 3.08934,-3.70853 0,0 0,0 0,0 m 0,3.19323 c -0.4628,0.23225 -0.79359,0.71507 -0.99086,1.44877 -0.19772,0.73534 -0.29675,1.8264 -0.29675,3.27194 0,0 0,2.35894 0,2.35894 0,1.46144 0.099,2.45514 0.29675,2.98021 0.19727,0.52391 0.52806,0.65495 0.99086,0.39504 0.46035,-0.25853 0.78204,-0.75317 0.96659,-1.48377 0.18415,-0.72903 0.27608,-1.8132 0.27608,-3.25365 0,0 0,-2.32507 0,-2.32507 0,-1.44044 -0.0919,-2.41902 -0.27608,-2.93655 -0.18455,-0.53434 -0.50624,-0.68688 -0.96659,-0.45586 0,0 0,0 0,0"
         inkscape:connector-curvature="0" />
    </g>
    <g
       transform="matrix(-0.96274033,0,0,-0.96274033,197.33854,495.02597)"
       id="text845-7-8-1-0-4-0"
       style="font-style:normal;font-weight:normal;font-size:11.36830807px;line-height:1.25;font-family:sans-serif;letter-spacing:0px;word-spacing:0px;fill:#bf5555;fill-opacity:1;stroke:none;stroke-width:0.2842077"
       aria-label="SAULIUS">
      <path
         inkscape:connector-curvature="0"
         id="path2097-0-2-6"
         style="font-style:normal;font-variant:normal;font-weight:normal;font-stretch:normal;font-family:'Archivo Black';-inkscape-font-specification:'Archivo Black, ';letter-spacing:0px;fill:#bf5555;fill-opacity:1;stroke-width:0.2842077"
         d="m 185.23165,236.08576 c -0.76344,0.29459 -1.39138,0.0916 -1.88357,-0.60925 -0.49241,-0.68472 -0.7445,-1.89123 -0.75609,-3.61932 0,0 0,-0.29699 0,-0.29699 0,0 1.79811,-0.68917 1.79811,-0.68917 0,0 0,0.099 0,0.099 0,0.49459 0.0636,0.88233 0.19092,1.16318 0.12727,0.28083 0.32103,0.37124 0.58124,0.27128 0.25438,-0.0977 0.4509,-0.2803 0.5896,-0.54777 0.1329,-0.26521 0.19935,-0.5543 0.19935,-0.8673 0,-0.44482 -0.0925,-0.73889 -0.27736,-0.88221 -0.18495,-0.14334 -0.48268,-0.25178 -0.89326,-0.32533 -0.48018,-0.0965 -0.87375,-0.24265 -1.18059,-0.43863 -0.31273,-0.17731 -0.58499,-0.56815 -0.81676,-1.17255 -0.23182,-0.60454 -0.35065,-1.49981 -0.35644,-2.68572 0,-2.0132 0.24053,-3.5977 0.72145,-4.75312 0.47491,-1.15272 1.11165,-1.8797 1.90994,-2.18115 0.93057,-0.35142 1.6554,-0.18048 2.1749,0.51232 0.51347,0.69465 0.77011,2.16927 0.77011,4.4241 0,0 -1.80935,0.6884 -1.80935,0.6884 0,-0.85659 -0.078,-1.40351 -0.23397,-1.64081 -0.15601,-0.22086 -0.39873,-0.26879 -0.72823,-0.14376 -0.24286,0.0922 -0.44239,0.24204 -0.59856,0.44968 -0.16199,0.20985 -0.24299,0.5456 -0.24299,1.00723 0,0.41215 0.0897,0.68304 0.26902,0.81265 0.17352,0.14827 0.45978,0.26184 0.85868,0.3407 0.48541,0.11173 0.88686,0.26353 1.20445,0.45542 0.3175,0.20831 0.59451,0.63776 0.83106,1.28828 0.23651,0.6504 0.35474,1.60923 0.35474,2.8766 0,1.85991 -0.2509,3.32259 -0.75287,4.38842 -0.50799,1.08503 -1.14908,1.77707 -1.92353,2.07591 0,0 0,-7e-5 0,-7e-5" />
      <path
         inkscape:connector-curvature="0"
         id="path2099-8-7-9"
         style="font-style:normal;font-variant:normal;font-weight:normal;font-stretch:normal;font-family:'Archivo Black';-inkscape-font-specification:'Archivo Black, ';letter-spacing:0px;fill:#bf5555;fill-opacity:1;stroke-width:0.2842077"
         d="m 177.44459,221.72346 c 0,0 0.2533,2.31062 0.2533,2.31062 0,0 2.10274,-0.79671 2.10274,-0.79671 0,0 0.25275,-2.49943 0.25275,-2.49943 0,0 1.96766,-0.74331 1.96766,-0.74331 0,0 -2.18554,17.87593 -2.18554,17.87593 0,0 -2.24242,0.86497 -2.24242,0.86497 0,0 -2.1946,-16.23911 -2.1946,-16.23911 0,0 2.04611,-0.77296 2.04611,-0.77296 m 1.95501,5.48313 c 0,0 -1.30004,0.49488 -1.30004,0.49488 0,0 0.6284,5.83561 0.6284,5.83561 0,0 0.0349,-0.0134 0.0349,-0.0134 0,0 0.63674,-6.3171 0.63674,-6.3171" />
      <path
         inkscape:connector-curvature="0"
         id="path2101-4-3-2"
         style="font-style:normal;font-variant:normal;font-weight:normal;font-stretch:normal;font-family:'Archivo Black';-inkscape-font-specification:'Archivo Black, ';letter-spacing:0px;fill:#bf5555;fill-opacity:1;stroke-width:0.2842077"
         d="m 168.95373,231.83064 c 0,-2.34138 0.26118,-4.22547 0.78336,-5.65176 0.52192,-1.42561 1.26332,-2.31963 2.22374,-2.68231 0.95956,-0.36236 1.70205,-0.0297 2.22792,0.99742 0.51976,1.02879 0.77955,2.71042 0.77955,5.04526 0,0 0,10.20873 0,10.20873 0,0 -1.93679,0.74707 -1.93679,0.74707 0,0 0,-10.14334 0,-10.14334 0,-0.96131 -0.0907,-1.69755 -0.27196,-2.20878 -0.18134,-0.49473 -0.44463,-0.67662 -0.78994,-0.54556 -0.34542,0.1311 -0.60894,0.52139 -0.79052,1.17092 -0.18747,0.65187 -0.28122,1.45068 -0.28122,2.39635 0,0 0,10.15341 0,10.15341 0,0 -1.94414,0.74991 -1.94414,0.74991 0,0 0,-10.23732 0,-10.23732" />
      <path
         inkscape:connector-curvature="0"
         id="path2103-6-7-2"
         style="font-style:normal;font-variant:normal;font-weight:normal;font-stretch:normal;font-family:'Archivo Black';-inkscape-font-specification:'Archivo Black, ';letter-spacing:0px;fill:#bf5555;fill-opacity:1;stroke-width:0.2842077"
         d="m 167.64112,242.57427 c 0,0 -1.95004,0.75218 -1.95004,0.75218 0,0 0,-12.77238 0,-12.77238 0,0 -3.1221,1.18579 -3.1221,1.18579 0,0 0,-4.39686 0,-4.39686 0,0 5.07214,-1.9161 5.07214,-1.9161 0,0 0,17.14737 0,17.14737" />
      <path
         inkscape:connector-curvature="0"
         id="path2105-1-9-7"
         style="font-style:normal;font-variant:normal;font-weight:normal;font-stretch:normal;font-family:'Archivo Black';-inkscape-font-specification:'Archivo Black, ';letter-spacing:0px;fill:#bf5555;fill-opacity:1;stroke-width:0.2842077"
         d="m 161.6477,227.69103 c 0,0 0,17.19507 0,17.19507 0,0 -1.96091,0.75637 -1.96091,0.75637 0,0 0,-17.21067 0,-17.21067 0,0 1.96091,-0.74077 1.96091,-0.74077" />
      <path
         inkscape:connector-curvature="0"
         id="path2107-6-6-2"
         style="font-style:normal;font-variant:normal;font-weight:normal;font-stretch:normal;font-family:'Archivo Black';-inkscape-font-specification:'Archivo Black, ';letter-spacing:0px;fill:#bf5555;fill-opacity:1;stroke-width:0.2842077"
         d="m 152.17708,238.22209 c 0,-2.35962 0.26526,-4.25918 0.79561,-5.69813 0.53008,-1.43826 1.28307,-2.34143 2.2585,-2.70978 0.97455,-0.36802 1.72863,-0.0349 2.2627,0.99857 0.52788,1.03525 0.79172,2.72917 0.79172,5.08215 0,0 0,10.28805 0,10.28805 0,0 -1.96702,0.75873 -1.96702,0.75873 0,0 0,-10.22222 0,-10.22222 0,-0.96879 -0.0921,-1.71048 -0.27621,-2.22514 -0.18417,-0.49805 -0.45158,-0.68057 -0.80227,-0.54746 -0.35082,0.13314 -0.61846,0.52725 -0.80288,1.18238 -0.1904,0.65751 -0.28561,1.46282 -0.28561,2.41585 0,0 0,10.23245 0,10.23245 0,0 -1.97454,0.76164 -1.97454,0.76164 0,0 0,-10.31709 0,-10.31709" />
      <path
         inkscape:connector-curvature="0"
         id="path2109-0-5-3"
         style="font-style:normal;font-variant:normal;font-weight:normal;font-stretch:normal;font-family:'Archivo Black';-inkscape-font-specification:'Archivo Black, ';letter-spacing:0px;fill:#bf5555;fill-opacity:1;stroke-width:0.2842077"
         d="m 148.25321,250.35449 c -0.7901,0.30488 -1.43996,0.10268 -1.94935,-0.60701 -0.50962,-0.69323 -0.77052,-1.91894 -0.78251,-3.6769 0,0 0,-0.30213 0,-0.30213 0,0 1.86092,-0.71325 1.86092,-0.71325 0,0 0,0.10069 0,0.10069 0,0.50316 0.0659,0.89718 0.19759,1.18203 0.13172,0.28483 0.33224,0.3755 0.60155,0.27205 0.26325,-0.10113 0.46664,-0.28821 0.61018,-0.56124 0.13754,-0.27069 0.2063,-0.56524 0.2063,-0.88365 0,-0.45252 -0.0957,-0.75104 -0.28705,-0.8956 -0.1914,-0.14458 -0.49952,-0.25289 -0.92443,-0.32493 -0.49695,-0.0949 -0.90426,-0.24097 -1.22183,-0.43827 -0.32365,-0.17828 -0.60543,-0.57405 -0.84531,-1.18737 -0.23992,-0.61345 -0.3629,-1.52344 -0.3689,-2.72986 0,-2.04808 0.24895,-3.66164 0.74667,-4.84029 0.49151,-1.17585 1.15049,-1.91965 1.97665,-2.23163 0.96306,-0.36368 1.71318,-0.19461 2.2508,0.50672 0.53138,0.70324 0.79697,2.20163 0.79697,4.49543 0,0 -1.87247,0.71241 -1.87247,0.71241 0,-0.8714 -0.0807,-1.42727 -0.24214,-1.66763 -0.16145,-0.22363 -0.41264,-0.27078 -0.75364,-0.14138 -0.25133,0.0954 -0.45783,0.24919 -0.61946,0.46146 -0.16764,0.21457 -0.25148,0.55668 -0.25148,1.0263 0,0.41929 0.0928,0.69426 0.27842,0.82491 0.17959,0.14967 0.47584,0.26329 0.88866,0.34085 0.50235,0.1104 0.91782,0.26214 1.24649,0.45521 0.32856,0.20979 0.61523,0.6448 0.86004,1.30499 0.24475,0.66005 0.3671,1.63466 0.3671,2.92393 0,1.89206 -0.25964,3.38171 -0.77912,4.46937 -0.5257,1.10723 -1.18917,1.8156 -1.99065,2.12486 0,0 0,-7e-5 0,-7e-5" />
    </g>
    <g
       transform="matrix(-0.96274033,0,0,-0.96274033,198.45638,494.14885)"
       id="text845-7-8-1-0-8"
       style="font-style:normal;font-weight:normal;font-size:11.36830807px;line-height:1.25;font-family:sans-serif;letter-spacing:0px;word-spacing:0px;fill:#040d17;fill-opacity:1;stroke:#bf5555;stroke-width:0.2842077;stroke-opacity:1"
       aria-label="SAULIUS">
      <path
         inkscape:connector-curvature="0"
         id="path2097-0-8"
         style="font-style:normal;font-variant:normal;font-weight:normal;font-stretch:normal;font-family:'Archivo Black';-inkscape-font-specification:'Archivo Black, ';letter-spacing:0px;fill:#040d17;fill-opacity:1;stroke-width:0.2842077;stroke:#bf5555;stroke-opacity:1"
         d="m 185.23165,236.08576 c -0.76344,0.29459 -1.39138,0.0916 -1.88357,-0.60925 -0.49241,-0.68472 -0.7445,-1.89123 -0.75609,-3.61932 0,0 0,-0.29699 0,-0.29699 0,0 1.79811,-0.68917 1.79811,-0.68917 0,0 0,0.099 0,0.099 0,0.49459 0.0636,0.88233 0.19092,1.16318 0.12727,0.28083 0.32103,0.37124 0.58124,0.27128 0.25438,-0.0977 0.4509,-0.2803 0.5896,-0.54777 0.1329,-0.26521 0.19935,-0.5543 0.19935,-0.8673 0,-0.44482 -0.0925,-0.73889 -0.27736,-0.88221 -0.18495,-0.14334 -0.48268,-0.25178 -0.89326,-0.32533 -0.48018,-0.0965 -0.87375,-0.24265 -1.18059,-0.43863 -0.31273,-0.17731 -0.58499,-0.56815 -0.81676,-1.17255 -0.23182,-0.60454 -0.35065,-1.49981 -0.35644,-2.68572 0,-2.0132 0.24053,-3.5977 0.72145,-4.75312 0.47491,-1.15272 1.11165,-1.8797 1.90994,-2.18115 0.93057,-0.35142 1.6554,-0.18048 2.1749,0.51232 0.51347,0.69465 0.77011,2.16927 0.77011,4.4241 0,0 -1.80935,0.6884 -1.80935,0.6884 0,-0.85659 -0.078,-1.40351 -0.23397,-1.64081 -0.15601,-0.22086 -0.39873,-0.26879 -0.72823,-0.14376 -0.24286,0.0922 -0.44239,0.24204 -0.59856,0.44968 -0.16199,0.20985 -0.24299,0.5456 -0.24299,1.00723 0,0.41215 0.0897,0.68304 0.26902,0.81265 0.17352,0.14827 0.45978,0.26184 0.85868,0.3407 0.48541,0.11173 0.88686,0.26353 1.20445,0.45542 0.3175,0.20831 0.59451,0.63776 0.83106,1.28828 0.23651,0.6504 0.35474,1.60923 0.35474,2.8766 0,1.85991 -0.2509,3.32259 -0.75287,4.38842 -0.50799,1.08503 -1.14908,1.77707 -1.92353,2.07591 0,0 0,-7e-5 0,-7e-5" />
      <path
         inkscape:connector-curvature="0"
         id="path2099-8-9"
         style="font-style:normal;font-variant:normal;font-weight:normal;font-stretch:normal;font-family:'Archivo Black';-inkscape-font-specification:'Archivo Black, ';letter-spacing:0px;fill:#040d17;fill-opacity:1;stroke-width:0.2842077;stroke:#bf5555;stroke-opacity:1"
         d="m 177.44459,221.72346 c 0,0 0.2533,2.31062 0.2533,2.31062 0,0 2.10274,-0.79671 2.10274,-0.79671 0,0 0.25275,-2.49943 0.25275,-2.49943 0,0 1.96766,-0.74331 1.96766,-0.74331 0,0 -2.18554,17.87593 -2.18554,17.87593 0,0 -2.24242,0.86497 -2.24242,0.86497 0,0 -2.1946,-16.23911 -2.1946,-16.23911 0,0 2.04611,-0.77296 2.04611,-0.77296 m 1.95501,5.48313 c 0,0 -1.30004,0.49488 -1.30004,0.49488 0,0 0.6284,5.83561 0.6284,5.83561 0,0 0.0349,-0.0134 0.0349,-0.0134 0,0 0.63674,-6.3171 0.63674,-6.3171" />
      <path
         inkscape:connector-curvature="0"
         id="path2101-4-0"
         style="font-style:normal;font-variant:normal;font-weight:normal;font-stretch:normal;font-family:'Archivo Black';-inkscape-font-specification:'Archivo Black, ';letter-spacing:0px;fill:#040d17;fill-opacity:1;stroke-width:0.2842077;stroke:#bf5555;stroke-opacity:1"
         d="m 168.95373,231.83064 c 0,-2.34138 0.26118,-4.22547 0.78336,-5.65176 0.52192,-1.42561 1.26332,-2.31963 2.22374,-2.68231 0.95956,-0.36236 1.70205,-0.0297 2.22792,0.99742 0.51976,1.02879 0.77955,2.71042 0.77955,5.04526 0,0 0,10.20873 0,10.20873 0,0 -1.93679,0.74707 -1.93679,0.74707 0,0 0,-10.14334 0,-10.14334 0,-0.96131 -0.0907,-1.69755 -0.27196,-2.20878 -0.18134,-0.49473 -0.44463,-0.67662 -0.78994,-0.54556 -0.34542,0.1311 -0.60894,0.52139 -0.79052,1.17092 -0.18747,0.65187 -0.28122,1.45068 -0.28122,2.39635 0,0 0,10.15341 0,10.15341 0,0 -1.94414,0.74991 -1.94414,0.74991 0,0 0,-10.23732 0,-10.23732" />
      <path
         inkscape:connector-curvature="0"
         id="path2103-6-4"
         style="font-style:normal;font-variant:normal;font-weight:normal;font-stretch:normal;font-family:'Archivo Black';-inkscape-font-specification:'Archivo Black, ';letter-spacing:0px;fill:#040d17;fill-opacity:1;stroke-width:0.2842077;stroke:#bf5555;stroke-opacity:1"
         d="m 167.64112,242.57427 c 0,0 -1.95004,0.75218 -1.95004,0.75218 0,0 0,-12.77238 0,-12.77238 0,0 -3.1221,1.18579 -3.1221,1.18579 0,0 0,-4.39686 0,-4.39686 0,0 5.07214,-1.9161 5.07214,-1.9161 0,0 0,17.14737 0,17.14737" />
      <path
         inkscape:connector-curvature="0"
         id="path2105-1-2"
         style="font-style:normal;font-variant:normal;font-weight:normal;font-stretch:normal;font-family:'Archivo Black';-inkscape-font-specification:'Archivo Black, ';letter-spacing:0px;fill:#040d17;fill-opacity:1;stroke-width:0.2842077;stroke:#bf5555;stroke-opacity:1"
         d="m 161.6477,227.69103 c 0,0 0,17.19507 0,17.19507 0,0 -1.96091,0.75637 -1.96091,0.75637 0,0 0,-17.21067 0,-17.21067 0,0 1.96091,-0.74077 1.96091,-0.74077" />
      <path
         inkscape:connector-curvature="0"
         id="path2107-6-66"
         style="font-style:normal;font-variant:normal;font-weight:normal;font-stretch:normal;font-family:'Archivo Black';-inkscape-font-specification:'Archivo Black, ';letter-spacing:0px;fill:#040d17;fill-opacity:1;stroke-width:0.2842077;stroke:#bf5555;stroke-opacity:1"
         d="m 152.17708,238.22209 c 0,-2.35962 0.26526,-4.25918 0.79561,-5.69813 0.53008,-1.43826 1.28307,-2.34143 2.2585,-2.70978 0.97455,-0.36802 1.72863,-0.0349 2.2627,0.99857 0.52788,1.03525 0.79172,2.72917 0.79172,5.08215 0,0 0,10.28805 0,10.28805 0,0 -1.96702,0.75873 -1.96702,0.75873 0,0 0,-10.22222 0,-10.22222 0,-0.96879 -0.0921,-1.71048 -0.27621,-2.22514 -0.18417,-0.49805 -0.45158,-0.68057 -0.80227,-0.54746 -0.35082,0.13314 -0.61846,0.52725 -0.80288,1.18238 -0.1904,0.65751 -0.28561,1.46282 -0.28561,2.41585 0,0 0,10.23245 0,10.23245 0,0 -1.97454,0.76164 -1.97454,0.76164 0,0 0,-10.31709 0,-10.31709" />
      <path
         inkscape:connector-curvature="0"
         id="path2109-0-8"
         style="font-style:normal;font-variant:normal;font-weight:normal;font-stretch:normal;font-family:'Archivo Black';-inkscape-font-specification:'Archivo Black, ';letter-spacing:0px;fill:#040d17;fill-opacity:1;stroke-width:0.2842077;stroke:#bf5555;stroke-opacity:1"
         d="m 148.25321,250.35449 c -0.7901,0.30488 -1.43996,0.10268 -1.94935,-0.60701 -0.50962,-0.69323 -0.77052,-1.91894 -0.78251,-3.6769 0,0 0,-0.30213 0,-0.30213 0,0 1.86092,-0.71325 1.86092,-0.71325 0,0 0,0.10069 0,0.10069 0,0.50316 0.0659,0.89718 0.19759,1.18203 0.13172,0.28483 0.33224,0.3755 0.60155,0.27205 0.26325,-0.10113 0.46664,-0.28821 0.61018,-0.56124 0.13754,-0.27069 0.2063,-0.56524 0.2063,-0.88365 0,-0.45252 -0.0957,-0.75104 -0.28705,-0.8956 -0.1914,-0.14458 -0.49952,-0.25289 -0.92443,-0.32493 -0.49695,-0.0949 -0.90426,-0.24097 -1.22183,-0.43827 -0.32365,-0.17828 -0.60543,-0.57405 -0.84531,-1.18737 -0.23992,-0.61345 -0.3629,-1.52344 -0.3689,-2.72986 0,-2.04808 0.24895,-3.66164 0.74667,-4.84029 0.49151,-1.17585 1.15049,-1.91965 1.97665,-2.23163 0.96306,-0.36368 1.71318,-0.19461 2.2508,0.50672 0.53138,0.70324 0.79697,2.20163 0.79697,4.49543 0,0 -1.87247,0.71241 -1.87247,0.71241 0,-0.8714 -0.0807,-1.42727 -0.24214,-1.66763 -0.16145,-0.22363 -0.41264,-0.27078 -0.75364,-0.14138 -0.25133,0.0954 -0.45783,0.24919 -0.61946,0.46146 -0.16764,0.21457 -0.25148,0.55668 -0.25148,1.0263 0,0.41929 0.0928,0.69426 0.27842,0.82491 0.17959,0.14967 0.47584,0.26329 0.88866,0.34085 0.50235,0.1104 0.91782,0.26214 1.24649,0.45521 0.32856,0.20979 0.61523,0.6448 0.86004,1.30499 0.24475,0.66005 0.3671,1.63466 0.3671,2.92393 0,1.89206 -0.25964,3.38171 -0.77912,4.46937 -0.5257,1.10723 -1.18917,1.8156 -1.99065,2.12486 0,0 0,-7e-5 0,-7e-5" />
    </g>
    <path
       style="fill:#bf5555;stroke:none;stroke-width:0.26458332px;stroke-linecap:butt;stroke-linejoin:miter;stroke-opacity:1;fill-opacity:1"
       d="m 69.500371,283.82989 -0.584118,1.77604 -3.219268,1.24775 0.67327,-1.74813 z"
       id="path3471"
       inkscape:connector-curvature="0" />
    <path
       style="fill:#bf5555;stroke:none;stroke-width:0.26458332px;stroke-linecap:butt;stroke-linejoin:miter;stroke-opacity:1;fill-opacity:1"
       d="m 53.108693,278.44141 -0.1768,-1.71214 -2.296845,1.10667 1.862534,0.65982 z"
       id="path3473"
       inkscape:connector-curvature="0" />
    <path
       style="fill:#bf5555;fill-opacity:1;stroke:none;stroke-width:0.26458332px;stroke-linecap:butt;stroke-linejoin:miter;stroke-opacity:1"
       d="m 34.443229,279.7554 0.220391,1.74348 2.655623,-0.90543 z"
       id="path3475"
       inkscape:connector-curvature="0"
       sodipodi:nodetypes="cccc" />
    <path
       style="fill:#bf5555;stroke:none;stroke-width:0.26458332px;stroke-linecap:butt;stroke-linejoin:miter;stroke-opacity:1;fill-opacity:1"
       d="m 59.885913,288.44652 -0.572429,1.78332 -2.181283,-0.62571 z"
       id="path3477"
       inkscape:connector-curvature="0" />
  </g>
  <path
     inkscape:connector-curvature="0"
     id="path2388"
     d="m 235.43574,245.63542 v 17.57788 l -42.65283,16.45829 v -17.9292 z"
     style="fill:none;stroke:#000000;stroke-width:0.26458332px;stroke-linecap:butt;stroke-linejoin:miter;stroke-opacity:1" />
</svg>
