<?xml version="1.0" encoding="UTF-8" standalone="no"?>
<!-- Created with Inkscape (http://www.inkscape.org/) -->

<svg
   xmlns:dc="http://purl.org/dc/elements/1.1/"
   xmlns:cc="http://creativecommons.org/ns#"
   xmlns:rdf="http://www.w3.org/1999/02/22-rdf-syntax-ns#"
   xmlns:svg="http://www.w3.org/2000/svg"
   xmlns="http://www.w3.org/2000/svg"
   xmlns:sodipodi="http://sodipodi.sourceforge.net/DTD/sodipodi-0.dtd"
   xmlns:inkscape="http://www.inkscape.org/namespaces/inkscape"
   width="210mm"
   height="297mm"
   viewBox="0 0 210 297"
   version="1.1"
   id="svg8"
   inkscape:version="0.92.2 (5c3e80d, 2017-08-06)"
   sodipodi:docname="finished logo.svg">
  <defs
     id="defs2" />
  <sodipodi:namedview
     id="base"
     pagecolor="#ffffff"
     bordercolor="#666666"
     borderopacity="1.0"
     inkscape:pageopacity="0.0"
     inkscape:pageshadow="2"
     inkscape:zoom="1"
     inkscape:cx="-944.68963"
     inkscape:cy="25.584984"
     inkscape:document-units="mm"
     inkscape:current-layer="layer1"
     showgrid="false"
     inkscape:window-width="1858"
     inkscape:window-height="1057"
     inkscape:window-x="1654"
     inkscape:window-y="-8"
     inkscape:window-maximized="1" />
  <metadata
     id="metadata5">
    <rdf:RDF>
      <cc:Work
         rdf:about="">
        <dc:format>image/svg+xml</dc:format>
        <dc:type
           rdf:resource="http://purl.org/dc/dcmitype/StillImage" />
        <dc:title />
      </cc:Work>
    </rdf:RDF>
  </metadata>
  <g
     inkscape:label="Layer 1"
     inkscape:groupmode="layer"
     id="layer1">
    <rect
       style="fill:#ffffff;fill-opacity:1;stroke:#000055;stroke-width:0.26458332;stroke-opacity:1"
       id="rect2240"
       width="191.29375"
       height="191.29375"
       x="-337.87292"
       y="193.54791"
       inkscape:export-filename="D:\Junk\insta.png"
       inkscape:export-xdpi="96"
       inkscape:export-ydpi="96" />
    <path
       style="fill:#040d17;fill-opacity:1;stroke:none;stroke-width:1.61839497;stroke-opacity:1"
       d="M 178.98081,7.7766623 -28.184005,61.643277 -51.319842,155.75478 155.02133,111.70142 Z"
       id="rect1146"
       inkscape:connector-curvature="0"
       sodipodi:nodetypes="ccccc" />
    <rect
       style="fill:#fffff2;fill-opacity:1;stroke:none;stroke-width:0.41600001;stroke-linecap:round;stroke-linejoin:round;stroke-miterlimit:4;stroke-dasharray:none;stroke-opacity:1"
       id="rect1734"
       width="98.595726"
       height="98.595726"
       x="29.185829"
       y="68.377647" />
    <g
       id="g1661"
       transform="matrix(3.420965,0,0,3.420965,-507.24996,-268.98645)"
       inkscape:export-filename="C:\Users\SauliusGTO3000\g1661.png"
       inkscape:export-xdpi="96"
       inkscape:export-ydpi="96">
      <g
         inkscape:label="Layer 1"
         id="layer1-6"
         transform="matrix(0.44221086,0,0,0.44221086,46.933527,-45.556592)">
        <g
           aria-label="GTO"
           style="font-style:normal;font-weight:normal;font-size:11.36830807px;line-height:1.25;font-family:sans-serif;letter-spacing:0px;word-spacing:0px;fill:#bf5555;fill-opacity:1;stroke:none;stroke-width:0.2842077"
           id="text845-7-8-2-2-4"
           transform="matrix(1.7932435,0,0,-1.7932435,-285.15015,734.88375)"
           inkscape:export-filename="C:\xampp\htdocs\SauliusGTO3000\img.png"
           inkscape:export-xdpi="96"
           inkscape:export-ydpi="96">
          <path
             d="m 168.99528,276.71837 c 1.39934,0.53996 3.00028,0.90625 4.80941,1.10309 1.8011,0.19597 3.72235,0.1946 5.77663,-0.004 2.0522,-0.18667 4.12636,-0.60054 6.2388,-1.24803 0,0 -4.26417,-1.77703 -4.26417,-1.77703 -1.09049,0.34592 -2.22137,0.51412 -3.39896,0.50657 -1.20273,4.4e-4 -2.1824,-0.15249 -2.94284,-0.46033 -1.10754,-0.44836 -1.42814,-0.96311 -0.94911,-1.54641 0.45968,-0.58227 1.6648,-1.20028 3.63134,-1.85529 0,0 2.52354,-0.84055 2.52354,-0.84055 2.02975,-0.67607 3.91273,-1.07926 5.63062,-1.2026 1.6947,-0.11458 3.0924,0.0787 4.18162,0.57626 0.74754,0.34146 1.03615,0.7407 0.87099,1.19627 -0.19078,0.45988 -0.82687,0.8599 -1.90374,1.20149 0,0 -3.23407,-1.43342 -3.23407,-1.43342 0,0 -5.54937,1.80695 -5.54937,1.80695 0,0 7.509,3.18293 7.509,3.18293 0,0 15.58434,-4.77678 15.58434,-4.77678 0,0 -2.22349,-1.07067 -2.22349,-1.07067 0,0 -3.32703,0.69677 -3.32703,0.69677 1.01321,-1.30832 0.50334,-2.47265 -1.58231,-3.48124 -2.39832,-1.15979 -5.52935,-1.61296 -9.33512,-1.3401 -3.81317,0.28104 -8.14935,1.26607 -12.90283,2.91407 -4.5467,1.57631 -7.15702,3.03275 -7.92371,4.37789 -0.75446,1.32119 0.19221,2.47556 2.78046,3.47428 0,0 0,0 0,0"
             style="font-style:normal;font-variant:normal;font-weight:normal;font-stretch:normal;font-family:'Archivo Black';-inkscape-font-specification:'Archivo Black, ';letter-spacing:0px;fill:#bf5555;fill-opacity:1;stroke-width:0.2842077"
             id="path2520-2-9-3"
             inkscape:connector-curvature="0" />
          <path
             d="m 193.1954,281.53778 c 0,0 20.10233,-5.67699 20.10233,-5.67699 0,0 -3.93096,-1.89287 -3.93096,-1.89287 0,0 -20.24464,5.90954 -20.24464,5.90954 0,0 -4.33398,-1.76659 -4.33398,-1.76659 0,0 -6.40526,1.93636 -6.40526,1.93636 0,0 12.49898,4.83941 12.49898,4.83941 0,0 6.30269,-1.72282 6.30269,-1.72282 0,0 -3.98916,-1.62604 -3.98916,-1.62604"
             style="font-style:normal;font-variant:normal;font-weight:normal;font-stretch:normal;font-family:'Archivo Black';-inkscape-font-specification:'Archivo Black, ';letter-spacing:0px;fill:#bf5555;fill-opacity:1;stroke-width:0.2842077"
             id="path2522-5-7-9"
             inkscape:connector-curvature="0" />
          <path
             d="m 197.43267,287.69139 c 1.93018,0.74479 4.44354,1.04753 7.57521,0.91846 3.1421,-0.1295 6.79962,-0.70654 11.04803,-1.75129 4.36328,-1.07299 7.28629,-2.12977 8.70658,-3.16786 1.45695,-1.0649 1.30257,-2.04152 -0.51957,-2.92268 -1.86051,-0.89971 -4.55985,-1.27954 -8.05913,-1.12562 -3.50241,0.1657 -7.5494,0.87372 -12.05246,2.09773 -4.37624,1.18954 -7.05615,2.29086 -8.1115,3.30959 -1.04156,1.00441 -0.55466,1.88248 1.41284,2.64167 0,0 0,0 0,0 m 5.81894,-1.50266 c -0.77251,-0.31273 -0.8468,-0.68732 -0.21324,-1.12548 0.64048,-0.44293 1.86224,-0.90297 3.67572,-1.38061 0,0 2.41729,-0.63666 2.41729,-0.63666 1.86321,-0.49073 3.55987,-0.79533 5.07651,-0.90967 1.52079,-0.11465 2.6599,1.8e-4 3.40961,0.34263 0.74363,0.33968 0.7439,0.73952 0.0114,1.19776 -0.71409,0.45783 -1.99842,0.92044 -3.84295,1.38758 0,0 -2.39384,0.60625 -2.39384,0.60625 -1.79648,0.45497 -3.40968,0.72997 -4.85209,0.82866 -1.42818,0.1028 -2.52192,-1.6e-4 -3.28843,-0.31046 0,0 0,0 0,0"
             style="font-style:normal;font-variant:normal;font-weight:normal;font-stretch:normal;font-family:'Archivo Black';-inkscape-font-specification:'Archivo Black, ';letter-spacing:0px;fill:#bf5555;fill-opacity:1;stroke-width:0.2842077"
             id="path2524-9-6-8"
             inkscape:connector-curvature="0" />
        </g>
        <g
           aria-label="GTO"
           style="font-style:normal;font-weight:normal;font-size:11.36830807px;line-height:1.25;font-family:sans-serif;letter-spacing:0px;word-spacing:0px;fill:#040d17;fill-opacity:1;stroke:#bf5555;stroke-width:0.2842077;stroke-opacity:1"
           id="text845-7-8-8-8"
           transform="matrix(1.7932435,0,0,-1.7932435,-284.77338,731.67115)"
           inkscape:export-filename="C:\xampp\htdocs\SauliusGTO3000\img.png"
           inkscape:export-xdpi="96"
           inkscape:export-ydpi="96">
          <path
             d="m 168.99528,276.71837 c 1.39934,0.53996 3.00028,0.90625 4.80941,1.10309 1.8011,0.19597 3.72235,0.1946 5.77663,-0.004 2.0522,-0.18667 4.12636,-0.60054 6.2388,-1.24803 0,0 -4.26417,-1.77703 -4.26417,-1.77703 -1.09049,0.34592 -2.22137,0.51412 -3.39896,0.50657 -1.20273,4.4e-4 -2.1824,-0.15249 -2.94284,-0.46033 -1.10754,-0.44836 -1.42814,-0.96311 -0.94911,-1.54641 0.45968,-0.58227 1.6648,-1.20028 3.63134,-1.85529 0,0 2.52354,-0.84055 2.52354,-0.84055 2.02975,-0.67607 3.91273,-1.07926 5.63062,-1.2026 1.6947,-0.11458 3.0924,0.0787 4.18162,0.57626 0.74754,0.34146 1.03615,0.7407 0.87099,1.19627 -0.19078,0.45988 -0.82687,0.8599 -1.90374,1.20149 0,0 -3.23407,-1.43342 -3.23407,-1.43342 0,0 -5.54937,1.80695 -5.54937,1.80695 0,0 7.509,3.18293 7.509,3.18293 0,0 15.58434,-4.77678 15.58434,-4.77678 0,0 -2.22349,-1.07067 -2.22349,-1.07067 0,0 -3.32703,0.69677 -3.32703,0.69677 1.01321,-1.30832 0.50334,-2.47265 -1.58231,-3.48124 -2.39832,-1.15979 -5.52935,-1.61296 -9.33512,-1.3401 -3.81317,0.28104 -8.14935,1.26607 -12.90283,2.91407 -4.5467,1.57631 -7.15702,3.03275 -7.92371,4.37789 -0.75446,1.32119 0.19221,2.47556 2.78046,3.47428 0,0 0,0 0,0"
             style="font-style:normal;font-variant:normal;font-weight:normal;font-stretch:normal;font-family:'Archivo Black';-inkscape-font-specification:'Archivo Black, ';letter-spacing:0px;fill:#040d17;fill-opacity:1;stroke:#bf5555;stroke-width:0.2842077;stroke-opacity:1"
             id="path2520-9-8"
             inkscape:connector-curvature="0" />
          <path
             d="m 193.1954,281.53778 c 0,0 20.10233,-5.67699 20.10233,-5.67699 0,0 -3.93096,-1.89287 -3.93096,-1.89287 0,0 -20.24464,5.90954 -20.24464,5.90954 0,0 -4.33398,-1.76659 -4.33398,-1.76659 0,0 -6.40526,1.93636 -6.40526,1.93636 0,0 12.49898,4.83941 12.49898,4.83941 0,0 6.30269,-1.72282 6.30269,-1.72282 0,0 -3.98916,-1.62604 -3.98916,-1.62604"
             style="font-style:normal;font-variant:normal;font-weight:normal;font-stretch:normal;font-family:'Archivo Black';-inkscape-font-specification:'Archivo Black, ';letter-spacing:0px;fill:#040d17;fill-opacity:1;stroke:#bf5555;stroke-width:0.2842077;stroke-opacity:1"
             id="path2522-4-9"
             inkscape:connector-curvature="0" />
          <path
             d="m 197.43267,287.69139 c 1.93018,0.74479 4.44354,1.04753 7.57521,0.91846 3.1421,-0.1295 6.79962,-0.70654 11.04803,-1.75129 4.36328,-1.07299 7.28629,-2.12977 8.70658,-3.16786 1.45695,-1.0649 1.30257,-2.04152 -0.51957,-2.92268 -1.86051,-0.89971 -4.55985,-1.27954 -8.05913,-1.12562 -3.50241,0.1657 -7.5494,0.87372 -12.05246,2.09773 -4.37624,1.18954 -7.05615,2.29086 -8.1115,3.30959 -1.04156,1.00441 -0.55466,1.88248 1.41284,2.64167 0,0 0,0 0,0 m 5.81894,-1.50266 c -0.77251,-0.31273 -0.8468,-0.68732 -0.21324,-1.12548 0.64048,-0.44293 1.86224,-0.90297 3.67572,-1.38061 0,0 2.41729,-0.63666 2.41729,-0.63666 1.86321,-0.49073 3.55987,-0.79533 5.07651,-0.90967 1.52079,-0.11465 2.6599,1.8e-4 3.40961,0.34263 0.74363,0.33968 0.7439,0.73952 0.0114,1.19776 -0.71409,0.45783 -1.99842,0.92044 -3.84295,1.38758 0,0 -2.39384,0.60625 -2.39384,0.60625 -1.79648,0.45497 -3.40968,0.72997 -4.85209,0.82866 -1.42818,0.1028 -2.52192,-1.6e-4 -3.28843,-0.31046 0,0 0,0 0,0"
             style="font-style:normal;font-variant:normal;font-weight:normal;font-stretch:normal;font-family:'Archivo Black';-inkscape-font-specification:'Archivo Black, ';letter-spacing:0px;fill:#040d17;fill-opacity:1;stroke:#bf5555;stroke-width:0.2842077;stroke-opacity:1"
             id="path2524-8-6"
             inkscape:connector-curvature="0" />
        </g>
        <g
           id="text845-7-9-3-8-5-3"
           style="font-style:normal;font-weight:normal;font-size:10.58333302px;line-height:1.25;font-family:sans-serif;letter-spacing:0px;word-spacing:0px;fill:#bf5555;fill-opacity:1;stroke:none;stroke-width:0.26458332"
           aria-label="3000"
           transform="matrix(1.7459874,0,0,1.7459874,-183.12937,-233.20537)"
           inkscape:export-filename="C:\xampp\htdocs\SauliusGTO3000\img.png"
           inkscape:export-xdpi="96"
           inkscape:export-ydpi="96">
          <path
             id="path3073-0-8-5"
             style="font-style:normal;font-variant:normal;font-weight:normal;font-stretch:normal;font-family:'Archivo Black';-inkscape-font-specification:'Archivo Black, ';letter-spacing:0px;fill:#bf5555;fill-opacity:1;stroke-width:0.26458332"
             d="m 141.71881,281.2626 c 1.00759,-0.48725 1.87209,-0.67493 2.597,-0.56718 0.73174,0.10113 1.28008,0.45334 1.64795,1.05554 0.37833,0.57593 0.56696,1.33538 0.56696,2.27997 0,0.94458 -0.16503,1.88379 -0.49592,2.81993 -0.33197,0.92098 -0.7604,1.67609 -1.2865,2.26534 0,0 0,0.10987 0,0.10987 0.68102,-0.0322 1.20361,0.26388 1.57018,0.88626 0.37701,0.59558 0.56498,1.46373 0.56498,2.60613 -0.047,1.62207 -0.50007,3.18505 -1.36487,4.69806 -0.86024,1.50079 -2.14617,2.75063 -3.87389,3.75247 -1.20561,0.69909 -2.22951,1.04832 -3.06612,1.04152 -0.84334,-0.007 -1.47386,-0.31996 -1.88767,-0.9411 -0.41545,-0.62357 -0.62378,-1.47131 -0.62378,-2.54136 0,0 0,-0.60191 0,-0.60191 0,0 3.38593,-1.8631 3.38593,-1.8631 0,1.54185 0.65421,1.94553 1.9504,1.21794 1.28013,-0.71859 1.91427,-1.92347 1.91427,-3.6213 0,-0.6459 -0.12165,-1.06885 -0.36537,-1.2692 -0.23208,-0.22595 -0.53824,-0.23671 -0.91915,-0.0313 0,0 -1.35686,0.73156 -1.35686,0.73156 0,0 0,-3.44881 0,-3.44881 0,0 1.06098,-0.5544 1.06098,-0.5544 0.38201,-0.19961 0.68905,-0.52686 0.92179,-0.98154 0.24442,-0.47846 0.36642,-1.04068 0.36642,-1.68753 0,-0.60987 -0.14641,-1.05306 -0.43986,-1.33016 -0.282,-0.28409 -0.67565,-0.29972 -1.18222,-0.0454 -0.53396,0.2681 -0.95187,0.68378 -1.2523,1.24721 -0.30131,0.56507 -0.45229,1.14871 -0.45229,1.74969 0,0 -3.2025,1.64092 -3.2025,1.64092 0,0 0,-0.7151 0,-0.7151 0,-0.99161 0.20749,-2.00118 0.62126,-3.02567 0.425,-1.0268 1.03374,-1.96976 1.82304,-2.82712 0.79596,-0.85706 1.7232,-1.54018 2.77814,-2.05033 0,0 0,1e-4 0,1e-4"
             inkscape:connector-curvature="0" />
          <path
             id="path3075-7-5-2"
             style="font-style:normal;font-variant:normal;font-weight:normal;font-stretch:normal;font-family:'Archivo Black';-inkscape-font-specification:'Archivo Black, ';letter-spacing:0px;fill:#bf5555;fill-opacity:1;stroke-width:0.26458332"
             d="m 153.30846,275.65802 c 1.75497,-0.84868 2.96796,-0.64008 3.6588,0.6076 0.69641,1.21625 1.04271,3.30282 1.04271,6.26635 0,2.96354 -0.3463,5.42696 -1.04271,7.40105 -0.69084,1.96517 -1.90383,3.45507 -3.6588,4.47272 -1.7984,1.04282 -3.08398,0.97691 -3.83598,-0.21901 -0.74622,-1.22944 -1.12143,-3.40472 -1.12143,-6.51888 0,-3.11417 0.37521,-5.67948 1.12143,-7.68462 0.752,-2.01357 2.03758,-3.45553 3.83598,-4.32521 0,0 0,0 0,0 m 0,3.55469 c -0.57367,0.28789 -0.98392,0.84663 -1.22867,1.6765 -0.24536,0.83193 -0.36827,2.05393 -0.36827,3.66444 0,0 0,2.62815 0,2.62815 0,1.62822 0.12291,2.72837 0.36827,3.29937 0.24475,0.56959 0.655,0.69205 1.22867,0.36988 0.5703,-0.32029 0.96862,-0.89333 1.19705,-1.71906 0.22789,-0.82377 0.34164,-2.03604 0.34164,-3.63825 0,0 0,-2.58618 0,-2.58618 0,-1.6022 -0.11375,-2.6848 -0.34164,-3.2488 -0.22843,-0.5828 -0.62675,-0.73225 -1.19705,-0.44605 0,0 0,0 0,0"
             inkscape:connector-curvature="0" />
          <path
             id="path3077-2-3-5"
             style="font-style:normal;font-variant:normal;font-weight:normal;font-stretch:normal;font-family:'Archivo Black';-inkscape-font-specification:'Archivo Black, ';letter-spacing:0px;fill:#bf5555;fill-opacity:1;stroke-width:0.26458332"
             d="m 163.73921,270.61386 c 1.57276,-0.76057 2.66069,-0.53347 3.28064,0.66542 0.62517,1.1697 0.93614,3.15574 0.93614,5.96416 0,2.80842 -0.31097,5.13329 -0.93614,6.98417 -0.61995,1.84189 -1.70788,3.21775 -3.28064,4.12974 -1.61009,0.93363 -2.76009,0.83322 -3.43241,-0.31971 -0.66687,-1.18396 -1.00208,-3.25078 -1.00208,-6.19411 0,-2.94334 0.33521,-5.35815 1.00208,-7.23441 0.67232,-1.88484 1.82232,-3.21664 3.43241,-3.99526 0,0 0,0 0,0 m 0,3.36428 c -0.51377,0.25783 -0.88109,0.77604 -1.10019,1.55491 -0.21961,0.7807 -0.32962,1.93354 -0.32962,3.45711 0,0 0,2.48628 0,2.48628 0,1.54033 0.11001,2.58455 0.32962,3.13171 0.2191,0.54587 0.58642,0.67345 1.10019,0.38491 0.51093,-0.28693 0.86787,-0.81811 1.0726,-1.59341 0.20428,-0.77356 0.30625,-1.91821 0.30625,-3.43525 0,0 0,-2.44868 0,-2.44868 0,-1.51702 -0.10197,-2.54499 -0.30625,-3.08482 -0.20473,-0.55757 -0.56167,-0.70916 -1.0726,-0.45276 0,0 0,0 0,0"
             inkscape:connector-curvature="0" />
          <path
             id="path3079-9-7-7"
             style="font-style:normal;font-variant:normal;font-weight:normal;font-stretch:normal;font-family:'Archivo Black';-inkscape-font-specification:'Archivo Black, ';letter-spacing:0px;fill:#bf5555;fill-opacity:1;stroke-width:0.26458332"
             d="m 173.10933,266.08261 c 1.41751,-0.68549 2.39877,-0.44458 2.9582,0.70879 0.56434,1.12616 0.84512,3.02084 0.84512,5.68958 0,2.66874 -0.28078,4.86974 -0.84512,6.61156 -0.55943,1.73282 -1.54069,3.00948 -2.9582,3.83144 -1.4499,0.84074 -2.48468,0.71308 -3.08934,-0.39912 -0.59954,-1.14107 -0.90082,-3.10963 -0.90082,-5.89991 0,-2.79028 0.30128,-5.07119 0.90082,-6.83381 0.60466,-1.77129 1.63944,-3.00739 3.08934,-3.70853 0,0 0,0 0,0 m 0,3.19323 c -0.4628,0.23225 -0.79359,0.71507 -0.99086,1.44877 -0.19772,0.73534 -0.29675,1.8264 -0.29675,3.27194 0,0 0,2.35894 0,2.35894 0,1.46144 0.099,2.45514 0.29675,2.98021 0.19727,0.52391 0.52806,0.65495 0.99086,0.39504 0.46035,-0.25853 0.78204,-0.75317 0.96659,-1.48377 0.18415,-0.72903 0.27608,-1.8132 0.27608,-3.25365 0,0 0,-2.32507 0,-2.32507 0,-1.44044 -0.0919,-2.41902 -0.27608,-2.93655 -0.18455,-0.53434 -0.50624,-0.68688 -0.96659,-0.45586 0,0 0,0 0,0"
             inkscape:connector-curvature="0" />
        </g>
        <g
           id="text845-7-9-3-2-9"
           style="font-style:normal;font-weight:normal;font-size:10.58333302px;line-height:1.25;font-family:sans-serif;letter-spacing:0px;word-spacing:0px;fill:#040d17;fill-opacity:1;stroke:#bf5555;stroke-width:0.26458332;stroke-opacity:1"
           aria-label="3000"
           transform="matrix(1.7459874,0,0,1.7459874,-179.08003,-231.77893)"
           inkscape:export-filename="C:\xampp\htdocs\SauliusGTO3000\img.png"
           inkscape:export-xdpi="96"
           inkscape:export-ydpi="96">
          <path
             id="path3073-3-0"
             style="font-style:normal;font-variant:normal;font-weight:normal;font-stretch:normal;font-family:'Archivo Black';-inkscape-font-specification:'Archivo Black, ';letter-spacing:0px;fill:#040d17;fill-opacity:1;stroke:#bf5555;stroke-width:0.26458332;stroke-opacity:1"
             d="m 141.71881,281.2626 c 1.00759,-0.48725 1.87209,-0.67493 2.597,-0.56718 0.73174,0.10113 1.28008,0.45334 1.64795,1.05554 0.37833,0.57593 0.56696,1.33538 0.56696,2.27997 0,0.94458 -0.16503,1.88379 -0.49592,2.81993 -0.33197,0.92098 -0.7604,1.67609 -1.2865,2.26534 0,0 0,0.10987 0,0.10987 0.68102,-0.0322 1.20361,0.26388 1.57018,0.88626 0.37701,0.59558 0.56498,1.46373 0.56498,2.60613 -0.047,1.62207 -0.50007,3.18505 -1.36487,4.69806 -0.86024,1.50079 -2.14617,2.75063 -3.87389,3.75247 -1.20561,0.69909 -2.22951,1.04832 -3.06612,1.04152 -0.84334,-0.007 -1.47386,-0.31996 -1.88767,-0.9411 -0.41545,-0.62357 -0.62378,-1.47131 -0.62378,-2.54136 0,0 0,-0.60191 0,-0.60191 0,0 3.38593,-1.8631 3.38593,-1.8631 0,1.54185 0.65421,1.94553 1.9504,1.21794 1.28013,-0.71859 1.91427,-1.92347 1.91427,-3.6213 0,-0.6459 -0.12165,-1.06885 -0.36537,-1.2692 -0.23208,-0.22595 -0.53824,-0.23671 -0.91915,-0.0313 0,0 -1.35686,0.73156 -1.35686,0.73156 0,0 0,-3.44881 0,-3.44881 0,0 1.06098,-0.5544 1.06098,-0.5544 0.38201,-0.19961 0.68905,-0.52686 0.92179,-0.98154 0.24442,-0.47846 0.36642,-1.04068 0.36642,-1.68753 0,-0.60987 -0.14641,-1.05306 -0.43986,-1.33016 -0.282,-0.28409 -0.67565,-0.29972 -1.18222,-0.0454 -0.53396,0.2681 -0.95187,0.68378 -1.2523,1.24721 -0.30131,0.56507 -0.45229,1.14871 -0.45229,1.74969 0,0 -3.2025,1.64092 -3.2025,1.64092 0,0 0,-0.7151 0,-0.7151 0,-0.99161 0.20749,-2.00118 0.62126,-3.02567 0.425,-1.0268 1.03374,-1.96976 1.82304,-2.82712 0.79596,-0.85706 1.7232,-1.54018 2.77814,-2.05033 0,0 0,1e-4 0,1e-4"
             inkscape:connector-curvature="0" />
          <path
             id="path3075-4-9"
             style="font-style:normal;font-variant:normal;font-weight:normal;font-stretch:normal;font-family:'Archivo Black';-inkscape-font-specification:'Archivo Black, ';letter-spacing:0px;fill:#040d17;fill-opacity:1;stroke:#bf5555;stroke-width:0.26458332;stroke-opacity:1"
             d="m 153.30846,275.65802 c 1.75497,-0.84868 2.96796,-0.64008 3.6588,0.6076 0.69641,1.21625 1.04271,3.30282 1.04271,6.26635 0,2.96354 -0.3463,5.42696 -1.04271,7.40105 -0.69084,1.96517 -1.90383,3.45507 -3.6588,4.47272 -1.7984,1.04282 -3.08398,0.97691 -3.83598,-0.21901 -0.74622,-1.22944 -1.12143,-3.40472 -1.12143,-6.51888 0,-3.11417 0.37521,-5.67948 1.12143,-7.68462 0.752,-2.01357 2.03758,-3.45553 3.83598,-4.32521 0,0 0,0 0,0 m 0,3.55469 c -0.57367,0.28789 -0.98392,0.84663 -1.22867,1.6765 -0.24536,0.83193 -0.36827,2.05393 -0.36827,3.66444 0,0 0,2.62815 0,2.62815 0,1.62822 0.12291,2.72837 0.36827,3.29937 0.24475,0.56959 0.655,0.69205 1.22867,0.36988 0.5703,-0.32029 0.96862,-0.89333 1.19705,-1.71906 0.22789,-0.82377 0.34164,-2.03604 0.34164,-3.63825 0,0 0,-2.58618 0,-2.58618 0,-1.6022 -0.11375,-2.6848 -0.34164,-3.2488 -0.22843,-0.5828 -0.62675,-0.73225 -1.19705,-0.44605 0,0 0,0 0,0"
             inkscape:connector-curvature="0" />
          <path
             id="path3077-5-9"
             style="font-style:normal;font-variant:normal;font-weight:normal;font-stretch:normal;font-family:'Archivo Black';-inkscape-font-specification:'Archivo Black, ';letter-spacing:0px;fill:#040d17;fill-opacity:1;stroke:#bf5555;stroke-width:0.26458332;stroke-opacity:1"
             d="m 163.73921,270.61386 c 1.57276,-0.76057 2.66069,-0.53347 3.28064,0.66542 0.62517,1.1697 0.93614,3.15574 0.93614,5.96416 0,2.80842 -0.31097,5.13329 -0.93614,6.98417 -0.61995,1.84189 -1.70788,3.21775 -3.28064,4.12974 -1.61009,0.93363 -2.76009,0.83322 -3.43241,-0.31971 -0.66687,-1.18396 -1.00208,-3.25078 -1.00208,-6.19411 0,-2.94334 0.33521,-5.35815 1.00208,-7.23441 0.67232,-1.88484 1.82232,-3.21664 3.43241,-3.99526 0,0 0,0 0,0 m 0,3.36428 c -0.51377,0.25783 -0.88109,0.77604 -1.10019,1.55491 -0.21961,0.7807 -0.32962,1.93354 -0.32962,3.45711 0,0 0,2.48628 0,2.48628 0,1.54033 0.11001,2.58455 0.32962,3.13171 0.2191,0.54587 0.58642,0.67345 1.10019,0.38491 0.51093,-0.28693 0.86787,-0.81811 1.0726,-1.59341 0.20428,-0.77356 0.30625,-1.91821 0.30625,-3.43525 0,0 0,-2.44868 0,-2.44868 0,-1.51702 -0.10197,-2.54499 -0.30625,-3.08482 -0.20473,-0.55757 -0.56167,-0.70916 -1.0726,-0.45276 0,0 0,0 0,0"
             inkscape:connector-curvature="0" />
          <path
             id="path3079-7-1"
             style="font-style:normal;font-variant:normal;font-weight:normal;font-stretch:normal;font-family:'Archivo Black';-inkscape-font-specification:'Archivo Black, ';letter-spacing:0px;fill:#040d17;fill-opacity:1;stroke:#bf5555;stroke-width:0.26458332;stroke-opacity:1"
             d="m 173.10933,266.08261 c 1.41751,-0.68549 2.39877,-0.44458 2.9582,0.70879 0.56434,1.12616 0.84512,3.02084 0.84512,5.68958 0,2.66874 -0.28078,4.86974 -0.84512,6.61156 -0.55943,1.73282 -1.54069,3.00948 -2.9582,3.83144 -1.4499,0.84074 -2.48468,0.71308 -3.08934,-0.39912 -0.59954,-1.14107 -0.90082,-3.10963 -0.90082,-5.89991 0,-2.79028 0.30128,-5.07119 0.90082,-6.83381 0.60466,-1.77129 1.63944,-3.00739 3.08934,-3.70853 0,0 0,0 0,0 m 0,3.19323 c -0.4628,0.23225 -0.79359,0.71507 -0.99086,1.44877 -0.19772,0.73534 -0.29675,1.8264 -0.29675,3.27194 0,0 0,2.35894 0,2.35894 0,1.46144 0.099,2.45514 0.29675,2.98021 0.19727,0.52391 0.52806,0.65495 0.99086,0.39504 0.46035,-0.25853 0.78204,-0.75317 0.96659,-1.48377 0.18415,-0.72903 0.27608,-1.8132 0.27608,-3.25365 0,0 0,-2.32507 0,-2.32507 0,-1.44044 -0.0919,-2.41902 -0.27608,-2.93655 -0.18455,-0.53434 -0.50624,-0.68688 -0.96659,-0.45586 0,0 0,0 0,0"
             inkscape:connector-curvature="0" />
        </g>
        <g
           transform="matrix(-1.7598049,0,0,-1.7598049,332.0893,620.09786)"
           id="text845-7-8-1-0-4-0-2"
           style="font-style:normal;font-weight:normal;font-size:11.36830807px;line-height:1.25;font-family:sans-serif;letter-spacing:0px;word-spacing:0px;fill:#bf5555;fill-opacity:1;stroke:none;stroke-width:0.2842077"
           aria-label="SAULIUS"
           inkscape:export-filename="C:\xampp\htdocs\SauliusGTO3000\img.png"
           inkscape:export-xdpi="96"
           inkscape:export-ydpi="96">
          <path
             inkscape:connector-curvature="0"
             id="path2097-0-2-6-9"
             style="font-style:normal;font-variant:normal;font-weight:normal;font-stretch:normal;font-family:'Archivo Black';-inkscape-font-specification:'Archivo Black, ';letter-spacing:0px;fill:#bf5555;fill-opacity:1;stroke-width:0.2842077"
             d="m 185.23165,236.08576 c -0.76344,0.29459 -1.39138,0.0916 -1.88357,-0.60925 -0.49241,-0.68472 -0.7445,-1.89123 -0.75609,-3.61932 0,0 0,-0.29699 0,-0.29699 0,0 1.79811,-0.68917 1.79811,-0.68917 0,0 0,0.099 0,0.099 0,0.49459 0.0636,0.88233 0.19092,1.16318 0.12727,0.28083 0.32103,0.37124 0.58124,0.27128 0.25438,-0.0977 0.4509,-0.2803 0.5896,-0.54777 0.1329,-0.26521 0.19935,-0.5543 0.19935,-0.8673 0,-0.44482 -0.0925,-0.73889 -0.27736,-0.88221 -0.18495,-0.14334 -0.48268,-0.25178 -0.89326,-0.32533 -0.48018,-0.0965 -0.87375,-0.24265 -1.18059,-0.43863 -0.31273,-0.17731 -0.58499,-0.56815 -0.81676,-1.17255 -0.23182,-0.60454 -0.35065,-1.49981 -0.35644,-2.68572 0,-2.0132 0.24053,-3.5977 0.72145,-4.75312 0.47491,-1.15272 1.11165,-1.8797 1.90994,-2.18115 0.93057,-0.35142 1.6554,-0.18048 2.1749,0.51232 0.51347,0.69465 0.77011,2.16927 0.77011,4.4241 0,0 -1.80935,0.6884 -1.80935,0.6884 0,-0.85659 -0.078,-1.40351 -0.23397,-1.64081 -0.15601,-0.22086 -0.39873,-0.26879 -0.72823,-0.14376 -0.24286,0.0922 -0.44239,0.24204 -0.59856,0.44968 -0.16199,0.20985 -0.24299,0.5456 -0.24299,1.00723 0,0.41215 0.0897,0.68304 0.26902,0.81265 0.17352,0.14827 0.45978,0.26184 0.85868,0.3407 0.48541,0.11173 0.88686,0.26353 1.20445,0.45542 0.3175,0.20831 0.59451,0.63776 0.83106,1.28828 0.23651,0.6504 0.35474,1.60923 0.35474,2.8766 0,1.85991 -0.2509,3.32259 -0.75287,4.38842 -0.50799,1.08503 -1.14908,1.77707 -1.92353,2.07591 0,0 0,-7e-5 0,-7e-5" />
          <path
             inkscape:connector-curvature="0"
             id="path2099-8-7-9-8"
             style="font-style:normal;font-variant:normal;font-weight:normal;font-stretch:normal;font-family:'Archivo Black';-inkscape-font-specification:'Archivo Black, ';letter-spacing:0px;fill:#bf5555;fill-opacity:1;stroke-width:0.2842077"
             d="m 177.44459,221.72346 c 0,0 0.2533,2.31062 0.2533,2.31062 0,0 2.10274,-0.79671 2.10274,-0.79671 0,0 0.25275,-2.49943 0.25275,-2.49943 0,0 1.96766,-0.74331 1.96766,-0.74331 0,0 -2.18554,17.87593 -2.18554,17.87593 0,0 -2.24242,0.86497 -2.24242,0.86497 0,0 -2.1946,-16.23911 -2.1946,-16.23911 0,0 2.04611,-0.77296 2.04611,-0.77296 m 1.95501,5.48313 c 0,0 -1.30004,0.49488 -1.30004,0.49488 0,0 0.6284,5.83561 0.6284,5.83561 0,0 0.0349,-0.0134 0.0349,-0.0134 0,0 0.63674,-6.3171 0.63674,-6.3171" />
          <path
             inkscape:connector-curvature="0"
             id="path2101-4-3-2-9"
             style="font-style:normal;font-variant:normal;font-weight:normal;font-stretch:normal;font-family:'Archivo Black';-inkscape-font-specification:'Archivo Black, ';letter-spacing:0px;fill:#bf5555;fill-opacity:1;stroke-width:0.2842077"
             d="m 168.95373,231.83064 c 0,-2.34138 0.26118,-4.22547 0.78336,-5.65176 0.52192,-1.42561 1.26332,-2.31963 2.22374,-2.68231 0.95956,-0.36236 1.70205,-0.0297 2.22792,0.99742 0.51976,1.02879 0.77955,2.71042 0.77955,5.04526 0,0 0,10.20873 0,10.20873 0,0 -1.93679,0.74707 -1.93679,0.74707 0,0 0,-10.14334 0,-10.14334 0,-0.96131 -0.0907,-1.69755 -0.27196,-2.20878 -0.18134,-0.49473 -0.44463,-0.67662 -0.78994,-0.54556 -0.34542,0.1311 -0.60894,0.52139 -0.79052,1.17092 -0.18747,0.65187 -0.28122,1.45068 -0.28122,2.39635 0,0 0,10.15341 0,10.15341 0,0 -1.94414,0.74991 -1.94414,0.74991 0,0 0,-10.23732 0,-10.23732" />
          <path
             inkscape:connector-curvature="0"
             id="path2103-6-7-2-0"
             style="font-style:normal;font-variant:normal;font-weight:normal;font-stretch:normal;font-family:'Archivo Black';-inkscape-font-specification:'Archivo Black, ';letter-spacing:0px;fill:#bf5555;fill-opacity:1;stroke-width:0.2842077"
             d="m 167.64112,242.57427 c 0,0 -1.95004,0.75218 -1.95004,0.75218 0,0 0,-12.77238 0,-12.77238 0,0 -3.1221,1.18579 -3.1221,1.18579 0,0 0,-4.39686 0,-4.39686 0,0 5.07214,-1.9161 5.07214,-1.9161 0,0 0,17.14737 0,17.14737" />
          <path
             inkscape:connector-curvature="0"
             id="path2105-1-9-7-6"
             style="font-style:normal;font-variant:normal;font-weight:normal;font-stretch:normal;font-family:'Archivo Black';-inkscape-font-specification:'Archivo Black, ';letter-spacing:0px;fill:#bf5555;fill-opacity:1;stroke-width:0.2842077"
             d="m 161.6477,227.69103 c 0,0 0,17.19507 0,17.19507 0,0 -1.96091,0.75637 -1.96091,0.75637 0,0 0,-17.21067 0,-17.21067 0,0 1.96091,-0.74077 1.96091,-0.74077" />
          <path
             inkscape:connector-curvature="0"
             id="path2107-6-6-2-5"
             style="font-style:normal;font-variant:normal;font-weight:normal;font-stretch:normal;font-family:'Archivo Black';-inkscape-font-specification:'Archivo Black, ';letter-spacing:0px;fill:#bf5555;fill-opacity:1;stroke-width:0.2842077"
             d="m 152.17708,238.22209 c 0,-2.35962 0.26526,-4.25918 0.79561,-5.69813 0.53008,-1.43826 1.28307,-2.34143 2.2585,-2.70978 0.97455,-0.36802 1.72863,-0.0349 2.2627,0.99857 0.52788,1.03525 0.79172,2.72917 0.79172,5.08215 0,0 0,10.28805 0,10.28805 0,0 -1.96702,0.75873 -1.96702,0.75873 0,0 0,-10.22222 0,-10.22222 0,-0.96879 -0.0921,-1.71048 -0.27621,-2.22514 -0.18417,-0.49805 -0.45158,-0.68057 -0.80227,-0.54746 -0.35082,0.13314 -0.61846,0.52725 -0.80288,1.18238 -0.1904,0.65751 -0.28561,1.46282 -0.28561,2.41585 0,0 0,10.23245 0,10.23245 0,0 -1.97454,0.76164 -1.97454,0.76164 0,0 0,-10.31709 0,-10.31709" />
          <path
             inkscape:connector-curvature="0"
             id="path2109-0-5-3-4"
             style="font-style:normal;font-variant:normal;font-weight:normal;font-stretch:normal;font-family:'Archivo Black';-inkscape-font-specification:'Archivo Black, ';letter-spacing:0px;fill:#bf5555;fill-opacity:1;stroke-width:0.2842077"
             d="m 148.25321,250.35449 c -0.7901,0.30488 -1.43996,0.10268 -1.94935,-0.60701 -0.50962,-0.69323 -0.77052,-1.91894 -0.78251,-3.6769 0,0 0,-0.30213 0,-0.30213 0,0 1.86092,-0.71325 1.86092,-0.71325 0,0 0,0.10069 0,0.10069 0,0.50316 0.0659,0.89718 0.19759,1.18203 0.13172,0.28483 0.33224,0.3755 0.60155,0.27205 0.26325,-0.10113 0.46664,-0.28821 0.61018,-0.56124 0.13754,-0.27069 0.2063,-0.56524 0.2063,-0.88365 0,-0.45252 -0.0957,-0.75104 -0.28705,-0.8956 -0.1914,-0.14458 -0.49952,-0.25289 -0.92443,-0.32493 -0.49695,-0.0949 -0.90426,-0.24097 -1.22183,-0.43827 -0.32365,-0.17828 -0.60543,-0.57405 -0.84531,-1.18737 -0.23992,-0.61345 -0.3629,-1.52344 -0.3689,-2.72986 0,-2.04808 0.24895,-3.66164 0.74667,-4.84029 0.49151,-1.17585 1.15049,-1.91965 1.97665,-2.23163 0.96306,-0.36368 1.71318,-0.19461 2.2508,0.50672 0.53138,0.70324 0.79697,2.20163 0.79697,4.49543 0,0 -1.87247,0.71241 -1.87247,0.71241 0,-0.8714 -0.0807,-1.42727 -0.24214,-1.66763 -0.16145,-0.22363 -0.41264,-0.27078 -0.75364,-0.14138 -0.25133,0.0954 -0.45783,0.24919 -0.61946,0.46146 -0.16764,0.21457 -0.25148,0.55668 -0.25148,1.0263 0,0.41929 0.0928,0.69426 0.27842,0.82491 0.17959,0.14967 0.47584,0.26329 0.88866,0.34085 0.50235,0.1104 0.91782,0.26214 1.24649,0.45521 0.32856,0.20979 0.61523,0.6448 0.86004,1.30499 0.24475,0.66005 0.3671,1.63466 0.3671,2.92393 0,1.89206 -0.25964,3.38171 -0.77912,4.46937 -0.5257,1.10723 -1.18917,1.8156 -1.99065,2.12486 0,0 0,-7e-5 0,-7e-5" />
        </g>
        <g
           transform="matrix(-1.7598049,0,0,-1.7598049,334.13262,621.39635)"
           id="text845-7-8-1-0-8-7"
           style="font-style:normal;font-weight:normal;font-size:11.36830807px;line-height:1.25;font-family:sans-serif;letter-spacing:0px;word-spacing:0px;fill:#040d17;fill-opacity:1;stroke:#bf5555;stroke-width:0.2842077;stroke-opacity:1"
           aria-label="SAULIUS"
           inkscape:export-filename="C:\xampp\htdocs\SauliusGTO3000\img.png"
           inkscape:export-xdpi="96"
           inkscape:export-ydpi="96">
          <path
             inkscape:connector-curvature="0"
             id="path2097-0-8-0"
             style="font-style:normal;font-variant:normal;font-weight:normal;font-stretch:normal;font-family:'Archivo Black';-inkscape-font-specification:'Archivo Black, ';letter-spacing:0px;fill:#040d17;fill-opacity:1;stroke:#bf5555;stroke-width:0.2842077;stroke-opacity:1"
             d="m 185.23165,236.08576 c -0.76344,0.29459 -1.39138,0.0916 -1.88357,-0.60925 -0.49241,-0.68472 -0.7445,-1.89123 -0.75609,-3.61932 0,0 0,-0.29699 0,-0.29699 0,0 1.79811,-0.68917 1.79811,-0.68917 0,0 0,0.099 0,0.099 0,0.49459 0.0636,0.88233 0.19092,1.16318 0.12727,0.28083 0.32103,0.37124 0.58124,0.27128 0.25438,-0.0977 0.4509,-0.2803 0.5896,-0.54777 0.1329,-0.26521 0.19935,-0.5543 0.19935,-0.8673 0,-0.44482 -0.0925,-0.73889 -0.27736,-0.88221 -0.18495,-0.14334 -0.48268,-0.25178 -0.89326,-0.32533 -0.48018,-0.0965 -0.87375,-0.24265 -1.18059,-0.43863 -0.31273,-0.17731 -0.58499,-0.56815 -0.81676,-1.17255 -0.23182,-0.60454 -0.35065,-1.49981 -0.35644,-2.68572 0,-2.0132 0.24053,-3.5977 0.72145,-4.75312 0.47491,-1.15272 1.11165,-1.8797 1.90994,-2.18115 0.93057,-0.35142 1.6554,-0.18048 2.1749,0.51232 0.51347,0.69465 0.77011,2.16927 0.77011,4.4241 0,0 -1.80935,0.6884 -1.80935,0.6884 0,-0.85659 -0.078,-1.40351 -0.23397,-1.64081 -0.15601,-0.22086 -0.39873,-0.26879 -0.72823,-0.14376 -0.24286,0.0922 -0.44239,0.24204 -0.59856,0.44968 -0.16199,0.20985 -0.24299,0.5456 -0.24299,1.00723 0,0.41215 0.0897,0.68304 0.26902,0.81265 0.17352,0.14827 0.45978,0.26184 0.85868,0.3407 0.48541,0.11173 0.88686,0.26353 1.20445,0.45542 0.3175,0.20831 0.59451,0.63776 0.83106,1.28828 0.23651,0.6504 0.35474,1.60923 0.35474,2.8766 0,1.85991 -0.2509,3.32259 -0.75287,4.38842 -0.50799,1.08503 -1.14908,1.77707 -1.92353,2.07591 0,0 0,-7e-5 0,-7e-5" />
          <path
             inkscape:connector-curvature="0"
             id="path2099-8-9-3"
             style="font-style:normal;font-variant:normal;font-weight:normal;font-stretch:normal;font-family:'Archivo Black';-inkscape-font-specification:'Archivo Black, ';letter-spacing:0px;fill:#040d17;fill-opacity:1;stroke:#bf5555;stroke-width:0.2842077;stroke-opacity:1"
             d="m 177.44459,221.72346 c 0,0 0.2533,2.31062 0.2533,2.31062 0,0 2.10274,-0.79671 2.10274,-0.79671 0,0 0.25275,-2.49943 0.25275,-2.49943 0,0 1.96766,-0.74331 1.96766,-0.74331 0,0 -2.18554,17.87593 -2.18554,17.87593 0,0 -2.24242,0.86497 -2.24242,0.86497 0,0 -2.1946,-16.23911 -2.1946,-16.23911 0,0 2.04611,-0.77296 2.04611,-0.77296 m 1.95501,5.48313 c 0,0 -1.30004,0.49488 -1.30004,0.49488 0,0 0.6284,5.83561 0.6284,5.83561 0,0 0.0349,-0.0134 0.0349,-0.0134 0,0 0.63674,-6.3171 0.63674,-6.3171" />
          <path
             inkscape:connector-curvature="0"
             id="path2101-4-0-3"
             style="font-style:normal;font-variant:normal;font-weight:normal;font-stretch:normal;font-family:'Archivo Black';-inkscape-font-specification:'Archivo Black, ';letter-spacing:0px;fill:#040d17;fill-opacity:1;stroke:#bf5555;stroke-width:0.2842077;stroke-opacity:1"
             d="m 168.95373,231.83064 c 0,-2.34138 0.26118,-4.22547 0.78336,-5.65176 0.52192,-1.42561 1.26332,-2.31963 2.22374,-2.68231 0.95956,-0.36236 1.70205,-0.0297 2.22792,0.99742 0.51976,1.02879 0.77955,2.71042 0.77955,5.04526 0,0 0,10.20873 0,10.20873 0,0 -1.93679,0.74707 -1.93679,0.74707 0,0 0,-10.14334 0,-10.14334 0,-0.96131 -0.0907,-1.69755 -0.27196,-2.20878 -0.18134,-0.49473 -0.44463,-0.67662 -0.78994,-0.54556 -0.34542,0.1311 -0.60894,0.52139 -0.79052,1.17092 -0.18747,0.65187 -0.28122,1.45068 -0.28122,2.39635 0,0 0,10.15341 0,10.15341 0,0 -1.94414,0.74991 -1.94414,0.74991 0,0 0,-10.23732 0,-10.23732" />
          <path
             inkscape:connector-curvature="0"
             id="path2103-6-4-9"
             style="font-style:normal;font-variant:normal;font-weight:normal;font-stretch:normal;font-family:'Archivo Black';-inkscape-font-specification:'Archivo Black, ';letter-spacing:0px;fill:#040d17;fill-opacity:1;stroke:#bf5555;stroke-width:0.2842077;stroke-opacity:1"
             d="m 167.64112,242.57427 c 0,0 -1.95004,0.75218 -1.95004,0.75218 0,0 0,-12.77238 0,-12.77238 0,0 -3.1221,1.18579 -3.1221,1.18579 0,0 0,-4.39686 0,-4.39686 0,0 5.07214,-1.9161 5.07214,-1.9161 0,0 0,17.14737 0,17.14737" />
          <path
             inkscape:connector-curvature="0"
             id="path2105-1-2-2"
             style="font-style:normal;font-variant:normal;font-weight:normal;font-stretch:normal;font-family:'Archivo Black';-inkscape-font-specification:'Archivo Black, ';letter-spacing:0px;fill:#040d17;fill-opacity:1;stroke:#bf5555;stroke-width:0.2842077;stroke-opacity:1"
             d="m 161.6477,227.69103 c 0,0 0,17.19507 0,17.19507 0,0 -1.96091,0.75637 -1.96091,0.75637 0,0 0,-17.21067 0,-17.21067 0,0 1.96091,-0.74077 1.96091,-0.74077" />
          <path
             inkscape:connector-curvature="0"
             id="path2107-6-66-3"
             style="font-style:normal;font-variant:normal;font-weight:normal;font-stretch:normal;font-family:'Archivo Black';-inkscape-font-specification:'Archivo Black, ';letter-spacing:0px;fill:#040d17;fill-opacity:1;stroke:#bf5555;stroke-width:0.2842077;stroke-opacity:1"
             d="m 152.17708,238.22209 c 0,-2.35962 0.26526,-4.25918 0.79561,-5.69813 0.53008,-1.43826 1.28307,-2.34143 2.2585,-2.70978 0.97455,-0.36802 1.72863,-0.0349 2.2627,0.99857 0.52788,1.03525 0.79172,2.72917 0.79172,5.08215 0,0 0,10.28805 0,10.28805 0,0 -1.96702,0.75873 -1.96702,0.75873 0,0 0,-10.22222 0,-10.22222 0,-0.96879 -0.0921,-1.71048 -0.27621,-2.22514 -0.18417,-0.49805 -0.45158,-0.68057 -0.80227,-0.54746 -0.35082,0.13314 -0.61846,0.52725 -0.80288,1.18238 -0.1904,0.65751 -0.28561,1.46282 -0.28561,2.41585 0,0 0,10.23245 0,10.23245 0,0 -1.97454,0.76164 -1.97454,0.76164 0,0 0,-10.31709 0,-10.31709" />
          <path
             inkscape:connector-curvature="0"
             id="path2109-0-8-6"
             style="font-style:normal;font-variant:normal;font-weight:normal;font-stretch:normal;font-family:'Archivo Black';-inkscape-font-specification:'Archivo Black, ';letter-spacing:0px;fill:#040d17;fill-opacity:1;stroke:#bf5555;stroke-width:0.2842077;stroke-opacity:1"
             d="m 148.25321,250.35449 c -0.7901,0.30488 -1.43996,0.10268 -1.94935,-0.60701 -0.50962,-0.69323 -0.77052,-1.91894 -0.78251,-3.6769 0,0 0,-0.30213 0,-0.30213 0,0 1.86092,-0.71325 1.86092,-0.71325 0,0 0,0.10069 0,0.10069 0,0.50316 0.0659,0.89718 0.19759,1.18203 0.13172,0.28483 0.33224,0.3755 0.60155,0.27205 0.26325,-0.10113 0.46664,-0.28821 0.61018,-0.56124 0.13754,-0.27069 0.2063,-0.56524 0.2063,-0.88365 0,-0.45252 -0.0957,-0.75104 -0.28705,-0.8956 -0.1914,-0.14458 -0.49952,-0.25289 -0.92443,-0.32493 -0.49695,-0.0949 -0.90426,-0.24097 -1.22183,-0.43827 -0.32365,-0.17828 -0.60543,-0.57405 -0.84531,-1.18737 -0.23992,-0.61345 -0.3629,-1.52344 -0.3689,-2.72986 0,-2.04808 0.24895,-3.66164 0.74667,-4.84029 0.49151,-1.17585 1.15049,-1.91965 1.97665,-2.23163 0.96306,-0.36368 1.71318,-0.19461 2.2508,0.50672 0.53138,0.70324 0.79697,2.20163 0.79697,4.49543 0,0 -1.87247,0.71241 -1.87247,0.71241 0,-0.8714 -0.0807,-1.42727 -0.24214,-1.66763 -0.16145,-0.22363 -0.41264,-0.27078 -0.75364,-0.14138 -0.25133,0.0954 -0.45783,0.24919 -0.61946,0.46146 -0.16764,0.21457 -0.25148,0.55668 -0.25148,1.0263 0,0.41929 0.0928,0.69426 0.27842,0.82491 0.17959,0.14967 0.47584,0.26329 0.88866,0.34085 0.50235,0.1104 0.91782,0.26214 1.24649,0.45521 0.32856,0.20979 0.61523,0.6448 0.86004,1.30499 0.24475,0.66005 0.3671,1.63466 0.3671,2.92393 0,1.89206 -0.25964,3.38171 -0.77912,4.46937 -0.5257,1.10723 -1.18917,1.8156 -1.99065,2.12486 0,0 0,-7e-5 0,-7e-5" />
        </g>
        <path
           style="fill:#bf5555;fill-opacity:1;stroke:none;stroke-width:0.4836351px;stroke-linecap:butt;stroke-linejoin:miter;stroke-opacity:1"
           d="m 98.412345,236.95173 -1.067719,3.24645 -5.884524,2.28077 1.230677,-3.19541 z"
           id="path3471-4"
           inkscape:connector-curvature="0"
           inkscape:export-filename="C:\xampp\htdocs\SauliusGTO3000\img.png"
           inkscape:export-xdpi="96"
           inkscape:export-ydpi="96" />
        <path
           style="fill:#bf5555;fill-opacity:1;stroke:none;stroke-width:0.4836351px;stroke-linecap:butt;stroke-linejoin:miter;stroke-opacity:1"
           d="m 68.449796,227.10207 -0.32318,-3.12965 -4.198422,2.02289 3.404547,1.2061 z"
           id="path3473-1"
           inkscape:connector-curvature="0"
           inkscape:export-filename="C:\xampp\htdocs\SauliusGTO3000\img.png"
           inkscape:export-xdpi="96"
           inkscape:export-ydpi="96" />
        <path
           style="fill:#bf5555;fill-opacity:1;stroke:none;stroke-width:0.4836351px;stroke-linecap:butt;stroke-linejoin:miter;stroke-opacity:1"
           d="m 34.33097,229.50392 0.402852,3.18693 4.854236,-1.65504 z"
           id="path3475-5"
           inkscape:connector-curvature="0"
           sodipodi:nodetypes="cccc"
           inkscape:export-filename="C:\xampp\htdocs\SauliusGTO3000\img.png"
           inkscape:export-xdpi="96"
           inkscape:export-ydpi="96" />
        <path
           style="fill:#bf5555;fill-opacity:1;stroke:none;stroke-width:0.4836351px;stroke-linecap:butt;stroke-linejoin:miter;stroke-opacity:1"
           d="m 80.837964,245.39053 -1.046353,3.25975 -3.98719,-1.14374 z"
           id="path3477-0"
           inkscape:connector-curvature="0"
           inkscape:export-filename="C:\xampp\htdocs\SauliusGTO3000\img.png"
           inkscape:export-xdpi="96"
           inkscape:export-ydpi="96" />
        <path
           style="fill:#bf5555;fill-opacity:1;stroke:none;stroke-width:0.4836351px;stroke-linecap:butt;stroke-linejoin:miter;stroke-opacity:1"
           d="m 49.194616,235.67861 -0.0433,2.41275 c 0,0 -3.334308,1.18626 -3.248824,1.21832 0.08553,0.032 -2.586239,-1.50685 -2.586239,-1.50685 l 5.131226,-2.08804 z"
           id="path3479-7"
           inkscape:connector-curvature="0"
           sodipodi:nodetypes="cccccc"
           inkscape:export-filename="C:\xampp\htdocs\SauliusGTO3000\img.png"
           inkscape:export-xdpi="96"
           inkscape:export-ydpi="96" />
        <path
           style="fill:#bf5555;fill-opacity:1;stroke:none;stroke-width:0.4836351px;stroke-linecap:butt;stroke-linejoin:miter;stroke-opacity:1"
           d="m 65.409176,222.08021 0.120642,-3.35934 1.233413,2.18592 z"
           id="path3481-1"
           inkscape:connector-curvature="0"
           sodipodi:nodetypes="cccc"
           inkscape:export-filename="C:\xampp\htdocs\SauliusGTO3000\img.png"
           inkscape:export-xdpi="96"
           inkscape:export-ydpi="96" />
        <path
           style="fill:#bf5555;fill-opacity:1;stroke:none;stroke-width:0.4836351px;stroke-linecap:butt;stroke-linejoin:miter;stroke-opacity:1"
           d="m 12.580545,240.13256 -0.117535,3.31294 0.844276,0.19239 0.203045,-1.66718 z"
           id="path3483-0"
           inkscape:connector-curvature="0"
           inkscape:export-filename="C:\xampp\htdocs\SauliusGTO3000\img.png"
           inkscape:export-xdpi="96"
           inkscape:export-ydpi="96" />
        <path
           style="fill:#bf5555;fill-opacity:1;stroke:none;stroke-width:0.4836351px;stroke-linecap:butt;stroke-linejoin:miter;stroke-opacity:1"
           d="m 38.030272,242.61718 0.349359,3.17493 4.441658,-1.68626 c 0,0 -4.473611,-1.54159 -4.52651,-1.52649 -0.05284,0.0146 -0.264507,0.0377 -0.264507,0.0377 z"
           id="path3485-3"
           inkscape:connector-curvature="0"
           inkscape:export-filename="C:\xampp\htdocs\SauliusGTO3000\img.png"
           inkscape:export-xdpi="96"
           inkscape:export-ydpi="96" />
        <path
           style="fill:#bf5555;fill-opacity:1;stroke:none;stroke-width:0.4836351px;stroke-linecap:butt;stroke-linejoin:miter;stroke-opacity:1"
           d="m 120.24027,225.64562 -0.63025,3.32021 -0.65004,-1.55408 z"
           id="path3487-4"
           inkscape:connector-curvature="0"
           sodipodi:nodetypes="cccc"
           inkscape:export-filename="C:\xampp\htdocs\SauliusGTO3000\img.png"
           inkscape:export-xdpi="96"
           inkscape:export-ydpi="96" />
        <path
           style="fill:#bf5555;fill-opacity:1;stroke:none;stroke-width:0.4836351px;stroke-linecap:butt;stroke-linejoin:miter;stroke-opacity:1"
           d="m 1.2403615,226.80408 2.0005589,1.27983 3.4833424,-1.55344 -2.3425426,-0.95658 z"
           id="path3489-8"
           inkscape:connector-curvature="0"
           sodipodi:nodetypes="ccccc"
           inkscape:export-filename="C:\xampp\htdocs\SauliusGTO3000\img.png"
           inkscape:export-xdpi="96"
           inkscape:export-ydpi="96" />
      </g>
      <path
         sodipodi:nodetypes="ccccc"
         inkscape:connector-curvature="0"
         id="path909"
         d="m 86.156797,63.804189 1.808855,0.52631 -0.107112,0.10342 -1.370257,0.01848 z"
         style="fill:#bf5555;fill-opacity:1;stroke:none;stroke-width:0.11700162px;stroke-linecap:butt;stroke-linejoin:miter;stroke-opacity:1" />
      <path
         sodipodi:nodetypes="ccccc"
         inkscape:connector-curvature="0"
         id="path911"
         d="m 93.917196,59.948201 1.967148,0.570689 -0.487529,0.110803 -0.875343,0.04432 z"
         style="fill:#bf5555;fill-opacity:1;stroke:none;stroke-width:0.11700162px;stroke-linecap:butt;stroke-linejoin:miter;stroke-opacity:1" />
      <path
         sodipodi:nodetypes="ccccc"
         inkscape:connector-curvature="0"
         id="path913"
         d="m 100.96426,56.492835 1.86425,0.55393 -0.6106,0.124314 -0.69469,0.13894 z"
         style="fill:#bf5555;fill-opacity:1;stroke:none;stroke-width:0.11700162px;stroke-linecap:butt;stroke-linejoin:miter;stroke-opacity:1" />
      <path
         sodipodi:nodetypes="cccccc"
         inkscape:connector-curvature="0"
         id="path915"
         d="m 77.545652,68.072342 1.962978,0.570381 -0.321757,0.08958 -1.065812,-0.02742 -0.581348,-0.466179 z"
         style="fill:#bf5555;fill-opacity:1;stroke:none;stroke-width:0.11700162px;stroke-linecap:butt;stroke-linejoin:miter;stroke-opacity:1" />
      <path
         inkscape:connector-curvature="0"
         id="path917"
         d="m 102.19049,65.304827 -0.84283,2.16139 0.0982,0.310246 0.23268,0.01035 0.58431,-1.122062 0.0465,-0.977277 z"
         style="fill:#bf5555;fill-opacity:1;stroke:none;stroke-width:0.11700162px;stroke-linecap:butt;stroke-linejoin:miter;stroke-opacity:1" />
      <path
         inkscape:connector-curvature="0"
         id="path919"
         d="m 98.969092,59.353247 -0.646349,1.344405 0.243026,0.351615 0.274052,-0.155125 0.465373,-1.256501 -0.361958,-0.263711 z"
         style="fill:#bf5555;fill-opacity:1;stroke:none;stroke-width:0.11700162px;stroke-linecap:butt;stroke-linejoin:miter;stroke-opacity:1" />
      <path
         sodipodi:nodetypes="cccccccc"
         inkscape:connector-curvature="0"
         id="path921"
         d="m 97.838629,70.07488 1.837567,0.761399 0.130585,-0.08661 -0.584298,-0.372298 -0.243025,-0.398149 -0.227518,-0.144784 -0.656692,0.180979 z"
         style="fill:#bf5555;fill-opacity:1;stroke:none;stroke-width:0.11700162px;stroke-linecap:butt;stroke-linejoin:miter;stroke-opacity:1" />
      <path
         sodipodi:nodetypes="ccccccc"
         inkscape:connector-curvature="0"
         id="path923"
         d="m 90.344738,74.317597 1.975568,0.805921 -0.193781,-0.244976 -0.530167,-0.318096 -0.146252,-0.292504 c 0,0 -0.226691,-0.05119 -0.263253,-0.04753 -0.03657,0.0035 -0.842115,0.09719 -0.842115,0.09719 z"
         style="fill:#bf5555;fill-opacity:1;stroke:none;stroke-width:0.11700162px;stroke-linecap:butt;stroke-linejoin:miter;stroke-opacity:1" />
      <path
         inkscape:connector-curvature="0"
         id="path925"
         d="m 82.029581,79.064298 1.789097,0.744594 -0.09825,-0.144784 -0.356784,-0.372293 -0.274052,-0.2482 -0.687717,-0.06205 z"
         style="fill:#bf5555;fill-opacity:1;stroke:none;stroke-width:0.11700162px;stroke-linecap:butt;stroke-linejoin:miter;stroke-opacity:1" />
      <path
         sodipodi:nodetypes="cccccc"
         inkscape:connector-curvature="0"
         id="path927"
         d="m 74.102762,85.289928 -1.962311,-0.809228 0.411075,-0.08532 0.754933,0.149954 0.413666,0.403318 z"
         style="fill:#bf5555;fill-opacity:1;stroke:none;stroke-width:0.11700162px;stroke-linecap:butt;stroke-linejoin:miter;stroke-opacity:1" />
      <path
         inkscape:connector-curvature="0"
         id="path929"
         d="m 73.622684,80.06055 1.889607,0.463322 -0.44241,0.32541 -0.976233,0.497257 -0.387567,-0.09141 c 0,0 -0.234005,-0.3766 -0.234005,-0.391224 0,-0.01464 0.02193,-0.424133 0.02193,-0.449728 0,-0.0256 0.12867,-0.353632 0.12867,-0.353632 z"
         style="fill:#bf5555;fill-opacity:1;stroke:none;stroke-width:0.11700162px;stroke-linecap:butt;stroke-linejoin:miter;stroke-opacity:1" />
      <path
         inkscape:connector-curvature="0"
         id="path931"
         d="m 74.56718,77.765653 1.691802,0.791906 0.09886,-0.161119 0.0149,-0.723081 v -0.63601 l -0.325759,-0.113759 -0.367128,0.03104 -0.465374,0.310251 z"
         style="fill:#bf5555;fill-opacity:1;stroke:none;stroke-width:0.11700162px;stroke-linecap:butt;stroke-linejoin:miter;stroke-opacity:1" />
      <path
         inkscape:connector-curvature="0"
         id="path933"
         d="m 71.339841,75.132795 1.692567,0.787662 0.04654,-0.253365 0.05171,-0.677374 0.03104,-0.599815 c 0,0 0.04135,-0.186148 0.04135,-0.206831 0,-0.02069 -0.04135,-0.0879 -0.04135,-0.0879 0,0 -0.408492,0.103415 -0.429179,0.118928 -0.0207,0.01552 -1.392659,0.918697 -1.392659,0.918697 z"
         style="fill:#bf5555;fill-opacity:1;stroke:none;stroke-width:0.11700162px;stroke-linecap:butt;stroke-linejoin:miter;stroke-opacity:1" />
      <path
         inkscape:connector-curvature="0"
         id="path935"
         d="m 77.815387,74.058975 -0.346441,0.356784 0.06722,0.305077 0.149954,0.09307 0.155123,-0.124097 0.165467,-0.403323 z"
         style="fill:#bf5555;fill-opacity:1;stroke:none;stroke-width:0.11700162px;stroke-linecap:butt;stroke-linejoin:miter;stroke-opacity:1" />
      <path
         sodipodi:nodetypes="cccccc"
         inkscape:connector-curvature="0"
         id="path937"
         d="m 49.191686,59.1245 -0.906091,-0.720544 0.129853,-0.07383 0.405849,0.08044 0.382258,0.574267 z"
         style="fill:#bf5555;fill-opacity:1;stroke:none;stroke-width:0.11700162px;stroke-linecap:butt;stroke-linejoin:miter;stroke-opacity:1" />
      <path
         inkscape:connector-curvature="0"
         id="path939"
         d="m 78.368664,64.513694 -0.191318,1.489189 -0.118929,-0.263712 -0.155123,-0.444687 0.129267,-0.191318 z"
         style="fill:#bf5555;fill-opacity:1;stroke:none;stroke-width:0.11700162px;stroke-linecap:butt;stroke-linejoin:miter;stroke-opacity:1" />
      <path
         sodipodi:nodetypes="cccccc"
         inkscape:connector-curvature="0"
         id="path941"
         d="m 49.198625,53.776289 -0.731133,-0.579862 0.06861,-0.135028 0.369286,0.120658 0.16819,0.285192 z"
         style="fill:#bf5555;fill-opacity:1;stroke:none;stroke-width:0.11700162px;stroke-linecap:butt;stroke-linejoin:miter;stroke-opacity:1" />
      <path
         inkscape:connector-curvature="0"
         id="path943"
         d="m 50.707522,50.066508 1.098793,0.550689 -0.180978,0.01293 c 0,0 -0.333515,-0.04137 -0.369711,-0.05688 -0.03619,-0.01551 -0.424005,-0.152539 -0.424005,-0.152539 l -0.191319,-0.162879 z"
         style="fill:#bf5555;fill-opacity:1;stroke:none;stroke-width:0.11700162px;stroke-linecap:butt;stroke-linejoin:miter;stroke-opacity:1" />
      <path
         sodipodi:nodetypes="cccccccccc"
         inkscape:connector-curvature="0"
         id="path945"
         d="m 50.293755,48.992463 0.793821,0.734066 0.05946,-0.140905 0.06981,-0.274052 c 0,0 -0.0078,-0.263709 -0.0181,-0.286978 -0.01034,-0.02327 -0.05946,-0.201661 -0.08532,-0.237857 -0.02586,-0.03619 -0.0879,-0.137025 -0.118929,-0.142197 -0.03102,-0.0052 -0.160295,0.02844 -0.196489,0.03878 -0.03619,0.01034 -0.444688,0.2301 -0.444688,0.2301 z"
         style="fill:#bf5555;fill-opacity:1;stroke:none;stroke-width:0.11700162px;stroke-linecap:butt;stroke-linejoin:miter;stroke-opacity:1" />
      <path
         sodipodi:nodetypes="ccccsccc"
         inkscape:connector-curvature="0"
         id="path947"
         d="m 50.521116,44.90774 1.057032,0.522958 -0.234003,0.01096 -0.307129,-0.0073 c 0,0 -0.296161,-0.01828 -0.318099,-0.02559 -0.02194,-0.0073 -0.212065,-0.186472 -0.219378,-0.201097 -0.0073,-0.01462 -0.239548,-0.192631 -0.239548,-0.192631 z"
         style="fill:#bf5555;fill-opacity:1;stroke:none;stroke-width:0.11700162px;stroke-linecap:butt;stroke-linejoin:miter;stroke-opacity:1" />
      <path
         inkscape:connector-curvature="0"
         id="path949"
         d="m 52.907693,58.18982 -0.770325,-0.733289 0.392857,-0.30604 0.496396,-0.160295 0.124099,0.01034 -0.05688,0.692886 z"
         style="fill:#bf5555;fill-opacity:1;stroke:none;stroke-width:0.11700162px;stroke-linecap:butt;stroke-linejoin:miter;stroke-opacity:1" />
      <path
         sodipodi:nodetypes="ccccccc"
         inkscape:connector-curvature="0"
         id="path951"
         d="m 55.698784,56.111148 0.795708,0.587494 0.145777,0.09031 0.0393,-0.06855 -0.178182,-0.754021 -0.05688,-0.305076 z"
         style="fill:#bf5555;fill-opacity:1;stroke:none;stroke-width:0.11700162px;stroke-linecap:butt;stroke-linejoin:miter;stroke-opacity:1" />
      <path
         inkscape:connector-curvature="0"
         id="path953"
         d="m 55.583228,42.872273 0.993083,0.423145 -0.29616,0.215722 -0.354662,0.09141 -0.292503,0.149908 -0.127971,-0.0841 c 0,0 0,-0.358318 0.0073,-0.394881 0.0073,-0.03656 0.0709,-0.401207 0.0709,-0.401207 z"
         style="fill:#bf5555;fill-opacity:1;stroke:none;stroke-width:0.11700162px;stroke-linecap:butt;stroke-linejoin:miter;stroke-opacity:1" />
      <path
         sodipodi:nodetypes="ccccc"
         inkscape:connector-curvature="0"
         id="path955"
         d="m 59.603728,55.291741 -0.903106,-0.716635 0.270566,-0.02194 0.340036,0.131626 z"
         style="fill:#bf5555;fill-opacity:1;stroke:none;stroke-width:0.11700162px;stroke-linecap:butt;stroke-linejoin:miter;stroke-opacity:1" />
      <path
         inkscape:connector-curvature="0"
         id="path957"
         d="m 59.133063,41.503005 1.011798,0.413988 -0.108219,0.160218 -0.389038,0.09938 c 0,0 -0.361974,0.19744 -0.380255,0.19744 -0.01828,0 -0.310786,0.04388 -0.310786,0.04388 0,0 0.0585,-0.383912 0.0585,-0.398537 0,-0.01462 0.117999,-0.516364 0.117999,-0.516364 z"
         style="fill:#bf5555;fill-opacity:1;stroke:none;stroke-width:0.11700162px;stroke-linecap:butt;stroke-linejoin:miter;stroke-opacity:1" />
      <path
         inkscape:connector-curvature="0"
         id="path959"
         d="m 62.306412,40.278958 1.012668,0.415493 -0.548105,0.338687 -0.480883,0.124099 c 0,0 -0.106001,-0.01034 -0.118928,-0.06205 -0.01293,-0.05171 -0.04912,-0.343858 -0.04654,-0.361956 0.0026,-0.0181 0.181786,-0.454274 0.181786,-0.454274 z"
         style="fill:#bf5555;fill-opacity:1;stroke:none;stroke-width:0.11700162px;stroke-linecap:butt;stroke-linejoin:miter;stroke-opacity:1" />
      <path
         inkscape:connector-curvature="0"
         id="path961"
         d="m 63.327891,53.229112 0.791369,0.731735 0.06216,-0.05484 0.0256,-0.23766 c 0,0 0.0037,-0.749542 0.0037,-0.767823 0,-0.01828 -0.01828,-0.08409 -0.01828,-0.08409 l -0.146252,0.01096 -0.665446,0.288847 z"
         style="fill:#bf5555;fill-opacity:1;stroke:none;stroke-width:0.11700162px;stroke-linecap:butt;stroke-linejoin:miter;stroke-opacity:1" />
      <path
         inkscape:connector-curvature="0"
         id="path963"
         d="m 64.845422,39.299596 1.00993,0.412405 -0.106352,0.161802 c 0,0 -0.413313,0.156202 -0.42624,0.156202 -0.01292,0 -0.491225,0.160294 -0.491225,0.160294 l -0.134441,-0.103415 c 0,0 0.02327,-0.281809 0.02844,-0.318005 0.0052,-0.03619 0.119888,-0.469283 0.119888,-0.469283 z"
         style="fill:#bf5555;fill-opacity:1;stroke:none;stroke-width:0.11700162px;stroke-linecap:butt;stroke-linejoin:miter;stroke-opacity:1" />
      <path
         inkscape:connector-curvature="0"
         id="path965"
         d="m 67.275055,48.316336 0.903578,0.574206 -0.984047,0.374494 -0.08273,-0.206832 0.163202,-0.741868"
         style="fill:#bf5555;fill-opacity:1;stroke:none;stroke-width:0.11700162px;stroke-linecap:butt;stroke-linejoin:miter;stroke-opacity:1" />
      <path
         inkscape:connector-curvature="0"
         id="path967"
         d="m 68.937143,52.139996 -0.729081,-0.294736 -0.02068,-0.692886 0.532592,-0.155124 0.124099,0.01034 0.06205,0.232685 z"
         style="fill:#bf5555;fill-opacity:1;stroke:none;stroke-width:0.11700162px;stroke-linecap:butt;stroke-linejoin:miter;stroke-opacity:1" />
      <path
         inkscape:connector-curvature="0"
         id="path969"
         d="m 69.517989,37.497257 1.010766,0.408774 -0.107188,0.165433 -0.624073,0.233104 -0.431443,0.106032 -0.07678,-0.255941 c 0,0 0.04753,-0.358317 0.05119,-0.383911 0.0037,-0.0256 0.177532,-0.273491 0.177532,-0.273491 z"
         style="fill:#bf5555;fill-opacity:1;stroke:none;stroke-width:0.11700162px;stroke-linecap:butt;stroke-linejoin:miter;stroke-opacity:1" />
      <path
         inkscape:connector-curvature="0"
         id="path971"
         d="m 72.139138,36.486207 1.012198,0.412885 -0.06205,0.118927 -0.361954,0.15771 -0.648931,0.261124 -0.09825,-0.103415 c 0,0 0.0077,-0.302492 0.0077,-0.323175 0,-0.02068 0.0027,-0.361955 0.0027,-0.361955 z"
         style="fill:#bf5555;fill-opacity:1;stroke:none;stroke-width:0.11700162px;stroke-linecap:butt;stroke-linejoin:miter;stroke-opacity:1" />
      <path
         inkscape:connector-curvature="0"
         id="path973"
         d="m 75.362081,35.243023 1.016753,0.421695 -0.113175,0.152512 -0.321925,0.136336 -0.6691,0.175502 -0.109691,-0.131626 -0.0035,-0.405849 0.124314,-0.270567 z"
         style="fill:#bf5555;fill-opacity:1;stroke:none;stroke-width:0.11700162px;stroke-linecap:butt;stroke-linejoin:miter;stroke-opacity:1" />
      <path
         sodipodi:nodetypes="ccccccc"
         inkscape:connector-curvature="0"
         id="path975"
         d="m 72.492062,50.281095 -0.729082,-0.575249 0.129271,-0.0892 0.253365,0.05688 0.328346,0.42142 0.139615,0.142197 0.219756,0.118927"
         style="fill:#bf5555;fill-opacity:1;stroke:none;stroke-width:0.11700162px;stroke-linecap:butt;stroke-linejoin:miter;stroke-opacity:1" />
      <path
         inkscape:connector-curvature="0"
         id="path977"
         d="m 77.640736,43.264362 1.009735,0.413635 -0.193905,0.188734 c 0,0 -0.584297,0.193905 -0.594641,0.196491 -0.01035,0.0026 -0.361954,0.126683 -0.361954,0.126683 0,0 -0.05946,-0.307662 -0.05946,-0.328345 0,-0.02068 0.04396,-0.29732 0.04654,-0.307662 0.0027,-0.01034 0.15369,-0.289536 0.15369,-0.289536 z"
         style="fill:#bf5555;fill-opacity:1;stroke:none;stroke-width:0.11700162px;stroke-linecap:butt;stroke-linejoin:miter;stroke-opacity:1" />
      <path
         inkscape:connector-curvature="0"
         id="path979"
         d="m 79.093425,37.954274 0.799115,0.726892 0.104463,-0.152685 -0.01672,-0.297039 -0.05484,-0.383912 c 0,0 -0.0402,-0.226691 -0.06581,-0.244972 -0.0256,-0.01828 -0.226691,-0.04753 -0.226691,-0.04753 l -0.296162,0.149908 -0.208409,0.131627 z"
         style="fill:#bf5555;fill-opacity:1;stroke:none;stroke-width:0.11700162px;stroke-linecap:butt;stroke-linejoin:miter;stroke-opacity:1" />
      <path
         inkscape:connector-curvature="0"
         id="path981"
         d="m 79.318502,33.790864 1.058498,0.530163 -0.259596,0.03839 c 0,0 -0.321757,0 -0.330897,-0.0073 -0.0092,-0.0073 -0.272393,-0.06581 -0.27422,-0.07313 -0.0018,-0.0073 -0.118831,-0.16819 -0.124314,-0.179159 -0.0055,-0.01096 -0.120662,-0.257769 -0.120662,-0.257769 z"
         style="fill:#bf5555;fill-opacity:1;stroke:none;stroke-width:0.11700162px;stroke-linecap:butt;stroke-linejoin:miter;stroke-opacity:1" />
      <path
         inkscape:connector-curvature="0"
         id="path983"
         d="m 77.197481,42.235347 0.78596,0.623079 -0.03878,-0.183562 -0.188736,-0.302491 c 0,0 -0.142193,-0.100832 -0.157706,-0.106002 -0.01552,-0.0052 -0.400736,-0.03102 -0.400736,-0.03102 z"
         style="fill:#bf5555;fill-opacity:1;stroke:none;stroke-width:0.11700162px;stroke-linecap:butt;stroke-linejoin:miter;stroke-opacity:1" />
      <path
         inkscape:connector-curvature="0"
         id="path985"
         d="m 77.186877,47.67201 0.70201,0.566727 0.02193,-0.13894 -0.195612,-0.232175 c 0,0 -0.120658,-0.129798 -0.135281,-0.140767 -0.01464,-0.01096 -0.287022,-0.06764 -0.287022,-0.06764 z"
         style="fill:#bf5555;fill-opacity:1;stroke:none;stroke-width:0.11700162px;stroke-linecap:butt;stroke-linejoin:miter;stroke-opacity:1" />
    </g>
    <path
       style="fill:#040d17;fill-opacity:1;stroke:none;stroke-width:0.28920421;stroke-opacity:1"
       d="m 50.997489,118.63649 c -6.644318,-10.28874 -9.646582,-15.19704 -9.336722,-15.2643 0.711836,-0.1545 71.394483,-4.769848 71.871313,-4.692968 0.61342,0.0989 42.83289,18.824158 42.78768,18.977278 -0.0208,0.0705 -20.95628,3.62769 -46.52307,7.90448 -25.566836,4.2768 -47.052281,7.88056 -47.745457,8.00838 l -1.260303,0.23235 z"
       id="path1716"
       inkscape:connector-curvature="0"
       inkscape:export-filename="C:\Users\SauliusGTO3000\path1732.png"
       inkscape:export-xdpi="96"
       inkscape:export-ydpi="96" />
    <path
       style="fill:#040d17;fill-opacity:1;stroke:none;stroke-width:0.29709786;stroke-opacity:1"
       d="m 54.477315,167.73217 c 0.156637,-0.52077 1.826503,-6.85378 3.710759,-14.07343 1.884255,-7.21963 3.478406,-13.15126 3.54257,-13.18139 0.23887,-0.11216 95.471536,-17.17987 95.526046,-17.11419 0.11797,0.14207 -8.51926,23.65073 -8.81447,23.78369 -0.31589,0.14227 -91.343897,20.97554 -93.218481,21.33459 l -1.031256,0.19752 z"
       id="path1718"
       inkscape:connector-curvature="0"
       inkscape:export-filename="C:\Users\SauliusGTO3000\path1732.png"
       inkscape:export-xdpi="96"
       inkscape:export-ydpi="96"
       sodipodi:nodetypes="cscccccc" />
    <path
       style="fill:none;stroke:#000000;stroke-width:0.26458332px;stroke-linecap:butt;stroke-linejoin:miter;stroke-opacity:1"
       d="M 123.19414,35.9123 123.48697,17.213385 162.45411,2.1772856 161.89285,22.745935 Z"
       id="path1722"
       inkscape:connector-curvature="0"
       sodipodi:nodetypes="ccccc" />
    <path
       style="fill:none;stroke:#000000;stroke-width:0.26458332px;stroke-linecap:butt;stroke-linejoin:miter;stroke-opacity:1"
       d="m 172.01013,45.190005 -21.7268,11.039168 -28.50886,-10.384896 43.52396,-18.107422 27.38437,7.457943 z"
       id="path1724"
       inkscape:connector-curvature="0"
       sodipodi:nodetypes="cccccc" />
    <path
       style="fill:none;stroke:#000000;stroke-width:0.26458332px;stroke-linecap:butt;stroke-linejoin:miter;stroke-opacity:1"
       d="m 152.82144,59.314846 -0.0246,20.859118 44.58229,-25.069271 -0.26458,-16.470312 -43.52396,20.240625 z"
       id="path1726"
       inkscape:connector-curvature="0"
       sodipodi:nodetypes="cccccc" />
    <path
       style="fill:#040d17;fill-opacity:1;stroke:none;stroke-width:1.52184033;stroke-linecap:round;stroke-linejoin:round;stroke-miterlimit:4;stroke-dasharray:none;stroke-opacity:1"
       d="m 48.191791,73.05523 c 0.160735,0.02923 16.233389,-1.685578 35.716984,-3.810671 19.483585,-2.125098 35.935895,-3.709766 36.005575,-3.622419 0.0697,0.08736 -4.09829,23.306148 -6.5104,30.547873 v 0 c -24.305366,1.37155 -48.433165,1.640419 -72.673453,3.474029 z"
       id="path1732"
       inkscape:connector-curvature="0"
       sodipodi:nodetypes="csccccc"
       inkscape:export-filename="C:\Users\SauliusGTO3000\path1732.png"
       inkscape:export-xdpi="96"
       inkscape:export-ydpi="96" />
    <text
       xml:space="preserve"
       style="font-style:normal;font-variant:normal;font-weight:normal;font-stretch:normal;font-size:10.58333302px;line-height:1.25;font-family:'Archivo Black';-inkscape-font-specification:'Archivo Black, ';letter-spacing:0px;word-spacing:0px;fill:#000000;fill-opacity:1;stroke:none;stroke-width:0.26458332"
       x="-265.72656"
       y="336.19083"
       id="text1024"
       inkscape:export-filename="D:\Junk\insta.png"
       inkscape:export-xdpi="96"
       inkscape:export-ydpi="96"><tspan
         sodipodi:role="line"
         id="tspan1022"
         x="-265.72656"
         y="336.19083"
         style="font-style:normal;font-variant:normal;font-weight:normal;font-stretch:normal;font-family:'Archivo Black';-inkscape-font-specification:'Archivo Black, ';stroke-width:0.26458332">SAULIUS</tspan></text>
    <text
       xml:space="preserve"
       style="font-style:normal;font-variant:normal;font-weight:normal;font-stretch:normal;font-size:10.58333302px;line-height:1.25;font-family:'Archivo Black';-inkscape-font-specification:'Archivo Black, ';letter-spacing:0px;word-spacing:0px;fill:#000000;fill-opacity:1;stroke:none;stroke-width:0.26458332"
       x="-255.46851"
       y="347.87076"
       id="text1024-2"
       inkscape:export-filename="D:\Junk\insta.png"
       inkscape:export-xdpi="96"
       inkscape:export-ydpi="96"><tspan
         sodipodi:role="line"
         id="tspan1022-1"
         x="-255.46851"
         y="347.87076"
         style="font-style:normal;font-variant:normal;font-weight:normal;font-stretch:normal;font-family:'Archivo Black';-inkscape-font-specification:'Archivo Black, ';letter-spacing:4.82600927px;stroke-width:0.26458332">GTO</tspan></text>
    <text
       xml:space="preserve"
       style="font-style:normal;font-variant:normal;font-weight:normal;font-stretch:normal;font-size:10.58333302px;line-height:1.25;font-family:'Archivo Black';-inkscape-font-specification:'Archivo Black, ';letter-spacing:0px;word-spacing:0px;fill:#000000;fill-opacity:1;stroke:none;stroke-width:0.26458332"
       x="-265.474"
       y="357.69016"
       id="text1024-2-4"
       inkscape:export-filename="D:\Junk\insta.png"
       inkscape:export-xdpi="96"
       inkscape:export-ydpi="96"><tspan
         sodipodi:role="line"
         id="tspan1022-1-9"
         x="-265.474"
         y="357.69016"
         style="font-style:normal;font-variant:normal;font-weight:normal;font-stretch:normal;font-family:'Archivo Black';-inkscape-font-specification:'Archivo Black, ';letter-spacing:8.16239548px;stroke-width:0.26458332">3000</tspan></text>
    <rect
       style="fill:#fffff2;fill-opacity:1;stroke:none;stroke-width:0.41600001;stroke-linecap:round;stroke-linejoin:round;stroke-miterlimit:4;stroke-dasharray:none;stroke-opacity:1"
       id="rect1734-6"
       width="98.595726"
       height="98.595726"
       x="-290.52988"
       y="217.31667"
       inkscape:export-filename="D:\Junk\insta.png"
       inkscape:export-xdpi="96"
       inkscape:export-ydpi="96" />
    <path
       style="fill:#bf5555;fill-opacity:1;stroke:none;stroke-width:0.20614721;stroke-opacity:1"
       d="m -267.4577,264.13787 c -1.97259,-9.05086 -2.81103,-13.34164 -2.60746,-13.3439 0.46765,-0.006 44.7162,7.80223 44.99268,7.93867 0.35567,0.17552 22.40452,21.50145 22.34561,21.61294 -0.0272,0.0513 -13.57978,-0.56234 -30.11681,-1.36397 -16.53705,-0.80164 -30.43617,-1.46777 -30.88694,-1.48031 l -0.81958,-0.0227 z"
       id="path1716-6"
       inkscape:connector-curvature="0"
       inkscape:export-filename="D:\Junk\insta.png"
       inkscape:export-xdpi="96"
       inkscape:export-ydpi="96" />
    <path
       style="fill:#040d17;fill-opacity:1;stroke:none;stroke-width:0.20614721;stroke-opacity:1"
       d="m -274.17757,298.60365 c 0.19715,-0.38002 2.45824,-5.03729 5.02464,-10.34954 2.56639,-5.31224 4.70167,-9.66974 4.74506,-9.6833 0.16156,-0.0506 62.09577,2.95835 62.11402,3.01763 0.0395,0.12821 -12.93321,15.3346 -13.13172,15.39266 -0.2124,0.0622 -57.3099,2.32533 -58.47146,2.31768 l -0.63901,-0.005 z"
       id="path1718-7"
       inkscape:connector-curvature="0"
       inkscape:export-filename="D:\Junk\insta.png"
       inkscape:export-xdpi="96"
       inkscape:export-ydpi="96" />
    <path
       style="fill:#040d17;fill-opacity:1;stroke:none;stroke-width:1.0775491;stroke-linecap:round;stroke-linejoin:round;stroke-miterlimit:4;stroke-dasharray:none;stroke-opacity:1"
       d="m -264.39803,241.08257 c 4.67377,-8.58552 5.08369,-9.28054 5.38099,-9.12337 0.0912,0.0481 10.1578,1.27311 22.37019,2.72196 12.21237,1.44884 22.48195,2.835 22.50627,2.91384 0.0243,0.0789 -2.35731,4.42537 -5.29252,9.65896 l -5.3367,9.51562 -21.97629,-3.60298 c -11.93705,-1.95706 -21.84206,-3.49792 -21.99304,-3.53605 -0.22736,-0.0566 0.52147,-1.53147 4.3411,-8.54798 z"
       id="path1732-4"
       inkscape:connector-curvature="0"
       sodipodi:nodetypes="ssscccscs"
       inkscape:export-filename="D:\Junk\insta.png"
       inkscape:export-xdpi="96"
       inkscape:export-ydpi="96" />
    <path
       style="fill:#040d17;fill-opacity:1;stroke:none;stroke-width:0.26458332;stroke-opacity:1"
       d="m -13.153755,-102.26523 36.103935,-6.72925 13.7192,6.3731 -29.2433896,14.592911 z"
       id="rect1149"
       inkscape:connector-curvature="0"
       sodipodi:nodetypes="ccccc" />
    <path
       style="fill:#040d17;fill-opacity:1;stroke:none;stroke-width:0.26458332;stroke-opacity:1"
       d="m -3.7993294,-78.11277 28.7142304,-13.534582 0.21918,13.972958 -35.0431304,13.096207 z"
       id="rect1152"
       inkscape:connector-curvature="0"
       sodipodi:nodetypes="ccccc" />
  </g>
</svg>
