<?xml version="1.0" encoding="utf-8"?>
<!-- Generator: Adobe Illustrator 16.0.0, SVG Export Plug-In . SVG Version: 6.00 Build 0)  -->
<!DOCTYPE svg PUBLIC "-//W3C//DTD SVG 1.1//EN" "http://www.w3.org/Graphics/SVG/1.1/DTD/svg11.dtd">
<svg version="1.1"
	 id="svg3878" xmlns:sodipodi="http://sodipodi.sourceforge.net/DTD/sodipodi-0.dtd" xmlns:svg="http://www.w3.org/2000/svg" xmlns:dc="http://purl.org/dc/elements/1.1/" xmlns:cc="http://creativecommons.org/ns#" xmlns:inkscape="http://www.inkscape.org/namespaces/inkscape" xmlns:rdf="http://www.w3.org/1999/02/22-rdf-syntax-ns#" sodipodi:docname="logoSmall-CROPPED.svg" inkscape:version="0.92.2 (5c3e80d, 2017-08-06)"
	 xmlns="http://www.w3.org/2000/svg" xmlns:xlink="http://www.w3.org/1999/xlink" x="0px" y="0px" width="182.344px"
	 height="39.873px" viewBox="-62.5 0 182.344 39.873" enable-background="new -62.5 0 182.344 39.873" xml:space="preserve">
<sodipodi:namedview  id="base" units="px" inkscape:window-maximized="1" showgrid="false" pagecolor="#ffffff" inkscape:cx="72.728213" borderopacity="1.0" inkscape:cy="34.216221" inkscape:zoom="3.959798" bordercolor="#666666" inkscape:pageopacity="0.0" inkscape:pageshadow="2" inkscape:document-units="mm" inkscape:current-layer="layer1" inkscape:window-width="1858" inkscape:window-height="1057" inkscape:window-x="1592" inkscape:window-y="-8">
	</sodipodi:namedview>
<g>
	<defs>
		<rect id="SVGID_1_" x="-62.5" width="183.093" height="39.873"/>
	</defs>
	<clipPath id="SVGID_2_">
		<use xlink:href="#SVGID_1_"  overflow="visible"/>
	</clipPath>
	
		<g id="layer1" transform="translate(0,-286.41666)" inkscape:label="Layer 1" inkscape:groupmode="layer" clip-path="url(#SVGID_2_)">
		
			<g id="text845-7-8-2-2-4" transform="matrix(0.59366662,-0.31817431,-0.36284106,-0.53149659,-4.9139744,494.3304)" inkscape:export-xdpi="96" inkscape:export-ydpi="96" inkscape:export-filename="C:\xampp\htdocs\SauliusGTO3000\img.png">
			<path id="path2520-2-9-3" inkscape:connector-curvature="0" fill="#BF5555" d="M136.827,260.262
				c5.289,2.041,11.339,3.424,18.178,4.167c6.806,0.741,14.067,0.736,21.833-0.015c7.756-0.705,15.596-2.27,23.579-4.716
				l-16.117-6.717c-4.121,1.308-8.396,1.943-12.846,1.913c-4.546,0.002-8.248-0.576-11.123-1.739
				c-4.185-1.695-5.397-3.641-3.586-5.846c1.738-2.198,6.292-4.535,13.724-7.011l9.537-3.177c7.674-2.554,14.789-4.08,21.281-4.546
				c6.407-0.433,11.689,0.299,15.806,2.18c2.825,1.289,3.916,2.798,3.29,4.52c-0.72,1.739-3.124,3.252-7.194,4.542l-12.222-5.418
				l-20.974,6.829l28.379,12.031l58.903-18.054l-8.405-4.046l-12.574,2.633c3.829-4.945,1.901-9.345-5.98-13.157
				c-9.065-4.383-20.898-6.097-35.282-5.064c-14.413,1.062-30.801,4.784-48.768,11.012c-17.184,5.958-27.049,11.463-29.948,16.547
				C123.467,252.124,127.044,256.486,136.827,260.262L136.827,260.262"/>
			<path id="path2522-5-7-9" inkscape:connector-curvature="0" fill="#BF5555" d="M228.292,278.475l75.976-21.456l-14.856-7.155
				L212.896,272.2l-16.38-6.677l-24.209,7.318l47.24,18.291l23.822-6.512L228.292,278.475"/>
			<path id="path2524-9-6-8" inkscape:connector-curvature="0" fill="#BF5555" d="M244.307,301.733
				c7.294,2.815,16.794,3.959,28.63,3.471c11.875-0.489,25.699-2.67,41.756-6.618c16.491-4.056,27.539-8.049,32.908-11.974
				c5.505-4.024,4.922-7.716-1.964-11.046c-7.032-3.4-17.234-4.836-30.459-4.254c-13.237,0.626-28.533,3.303-45.552,7.929
				c-16.541,4.496-26.67,8.658-30.658,12.508C235.03,295.545,236.87,298.864,244.307,301.733L244.307,301.733 M266.299,296.054
				c-2.92-1.182-3.201-2.597-0.807-4.254c2.421-1.674,7.039-3.413,13.892-5.218l9.136-2.406c7.042-1.855,13.454-3.006,19.188-3.439
				c5.748-0.433,10.053,0.001,12.886,1.296c2.811,1.284,2.812,2.795,0.044,4.527c-2.699,1.731-7.554,3.479-14.525,5.245
				l-9.047,2.291c-6.791,1.72-12.887,2.759-18.338,3.132C273.329,297.616,269.195,297.227,266.299,296.054L266.299,296.054"/>
		</g>
		
			<g id="text845-7-8-8-8" transform="matrix(0.59366662,-0.31817431,-0.36284106,-0.53149659,-5.4392536,493.31139)" inkscape:export-xdpi="96" inkscape:export-ydpi="96" inkscape:export-filename="C:\xampp\htdocs\SauliusGTO3000\img.png">
			<path id="path2520-9-8" inkscape:connector-curvature="0" fill="#040D17" stroke="#BF5555" stroke-width="0.2842" d="
				M137.411,265.241c5.288,2.039,11.339,3.423,18.176,4.168c6.808,0.74,14.07,0.735,21.833-0.015
				c7.757-0.706,15.596-2.27,23.581-4.717l-16.117-6.717c-4.122,1.308-8.396,1.943-12.847,1.916c-4.546,0-8.248-0.576-11.121-1.741
				c-4.187-1.694-5.4-3.64-3.589-5.845c1.739-2.199,6.293-4.535,13.726-7.011l9.538-3.178c7.67-2.555,14.789-4.079,21.282-4.544
				c6.404-0.433,11.686,0.297,15.804,2.179c2.825,1.289,3.915,2.799,3.292,4.52c-0.721,1.738-3.126,3.25-7.196,4.541l-12.224-5.418
				l-20.974,6.83l28.381,12.029l58.902-18.054l-8.404-4.047l-12.575,2.633c3.829-4.945,1.903-9.345-5.98-13.157
				c-9.065-4.384-20.899-6.095-35.282-5.064c-14.413,1.062-30.801,4.784-48.768,11.012c-17.185,5.959-27.049,11.463-29.947,16.546
				C124.051,257.103,127.627,261.467,137.411,265.241L137.411,265.241"/>
			<path id="path2522-4-9" inkscape:connector-curvature="0" fill="#040D17" stroke="#BF5555" stroke-width="0.2842" d="
				M228.875,283.455l75.977-21.457l-14.857-7.154L213.48,277.18l-16.38-6.677l-24.208,7.319l47.24,18.291l23.821-6.511
				L228.875,283.455"/>
			<path id="path2524-8-6" inkscape:connector-curvature="0" fill="#040D17" stroke="#BF5555" stroke-width="0.2842" d="
				M244.889,306.713c7.297,2.814,16.795,3.959,28.632,3.471c11.876-0.489,25.699-2.67,41.757-6.619
				c16.491-4.056,27.539-8.049,32.905-11.972c5.508-4.026,4.923-7.716-1.963-11.047c-7.031-3.4-17.234-4.836-30.461-4.254
				c-13.236,0.626-28.532,3.302-45.552,7.928c-16.54,4.496-26.668,8.658-30.658,12.509
				C235.613,300.525,237.453,303.843,244.889,306.713L244.889,306.713 M266.882,301.034c-2.92-1.182-3.2-2.598-0.805-4.254
				c2.42-1.674,7.038-3.413,13.894-5.218l9.136-2.406c7.042-1.855,13.454-3.006,19.185-3.437c5.749-0.434,10.054,0,12.888,1.294
				c2.81,1.284,2.811,2.795,0.043,4.527c-2.699,1.731-7.553,3.479-14.524,5.244l-9.048,2.292c-6.789,1.719-12.888,2.76-18.339,3.132
				C273.913,302.596,269.78,302.206,266.882,301.034L266.882,301.034"/>
		</g>
		
			<g id="text845-7-9-3-8-5-3" transform="matrix(0.5780221,-0.30978969,0.35327938,0.51749041,-167.02031,189.2985)" inkscape:export-xdpi="96" inkscape:export-ydpi="96" inkscape:export-filename="C:\xampp\htdocs\SauliusGTO3000\img.png">
			<path id="path3073-0-8-5" inkscape:connector-curvature="0" fill="#BF5555" d="M182.562,328.757
				c3.809-1.843,7.076-2.552,9.816-2.146c2.766,0.384,4.838,1.715,6.228,3.991c1.431,2.176,2.142,5.047,2.144,8.617
				c-0.001,3.57-0.625,7.12-1.875,10.658c-1.255,3.48-2.874,6.334-4.863,8.562l0.001,0.416c2.573-0.124,4.549,0.994,5.934,3.349
				c1.426,2.25,2.135,5.532,2.135,9.85c-0.178,6.132-1.89,12.037-5.159,17.757c-3.253,5.673-8.111,10.396-14.641,14.183
				c-4.558,2.642-8.426,3.961-11.589,3.936c-3.188-0.025-5.57-1.209-7.133-3.557c-1.571-2.356-2.358-5.56-2.359-9.606l0-2.272
				l12.798-7.043c0,5.827,2.472,7.353,7.373,4.602c4.837-2.717,7.233-7.268,7.232-13.685c0.002-2.441-0.458-4.041-1.38-4.797
				c-0.876-0.856-2.034-0.897-3.474-0.121l-5.127,2.766l-0.002-13.033l4.012-2.097c1.443-0.755,2.602-1.99,3.483-3.708
				c0.924-1.81,1.384-3.934,1.385-6.38c-0.001-2.303-0.554-3.981-1.662-5.026c-1.066-1.076-2.555-1.133-4.469-0.173
				c-2.019,1.014-3.598,2.586-4.733,4.715c-1.137,2.135-1.708,4.34-1.708,6.613l-12.104,6.201l-0.001-2.703
				c0-3.748,0.784-7.563,2.349-11.434c1.605-3.881,3.905-7.445,6.889-10.686c3.01-3.241,6.514-5.82,10.501-7.749L182.562,328.757"/>
			<path id="path3075-7-5-2" inkscape:connector-curvature="0" fill="#BF5555" d="M226.366,307.574
				c6.634-3.208,11.217-2.42,13.829,2.296c2.631,4.596,3.941,12.482,3.941,23.683c0,11.201-1.308,20.511-3.942,27.972
				c-2.611,7.429-7.194,13.059-13.828,16.905c-6.796,3.941-11.655,3.692-14.498-0.829c-2.821-4.644-4.239-12.868-4.24-24.636
				c0-11.771,1.419-21.467,4.239-29.045C214.711,316.311,219.569,310.86,226.366,307.574L226.366,307.574 M226.366,321.008
				c-2.169,1.088-3.719,3.2-4.643,6.337c-0.928,3.144-1.392,7.762-1.392,13.849l0,9.935c0.001,6.152,0.465,10.311,1.391,12.469
				c0.927,2.151,2.477,2.615,4.646,1.396c2.153-1.209,3.66-3.375,4.522-6.495c0.862-3.113,1.292-7.696,1.292-13.752l0-9.774
				c0.001-6.055-0.431-10.148-1.291-12.279C230.027,320.492,228.521,319.926,226.366,321.008L226.366,321.008"/>
			<path id="path3077-2-3-5" inkscape:connector-curvature="0" fill="#BF5555" d="M265.789,288.509
				c5.944-2.875,10.056-2.018,12.398,2.514c2.363,4.421,3.539,11.928,3.538,22.542c0,10.614-1.175,19.401-3.538,26.396
				c-2.343,6.962-6.455,12.162-12.399,15.609c-6.086,3.528-10.433,3.149-12.973-1.209c-2.52-4.474-3.787-12.286-3.788-23.411
				c0-11.124,1.267-20.251,3.788-27.342C255.356,296.485,259.703,291.451,265.789,288.509L265.789,288.509 M265.79,301.225
				c-1.943,0.973-3.33,2.933-4.159,5.876c-0.83,2.951-1.246,7.307-1.245,13.066l0,9.397c0,5.822,0.416,9.769,1.245,11.836
				c0.829,2.063,2.217,2.546,4.159,1.455c1.93-1.085,3.279-3.093,4.053-6.023c0.773-2.923,1.158-7.25,1.158-12.983l0-9.255
				c-0.001-5.734-0.386-9.618-1.158-11.659C269.069,300.829,267.72,300.255,265.79,301.225L265.79,301.225"/>
			<path id="path3079-9-7-7" inkscape:connector-curvature="0" fill="#BF5555" d="M301.204,271.383
				c5.358-2.591,9.066-1.681,11.179,2.679c2.134,4.257,3.195,11.418,3.194,21.504c0.001,10.087-1.061,18.405-3.193,24.989
				c-2.114,6.549-5.823,11.374-11.181,14.48c-5.48,3.178-9.391,2.696-11.676-1.507c-2.267-4.313-3.405-11.753-3.405-22.299
				c-0.001-10.547,1.138-19.167,3.405-25.828C291.813,278.704,295.724,274.033,301.204,271.383L301.204,271.383 M301.204,283.452
				c-1.749,0.878-3,2.703-3.746,5.476c-0.747,2.779-1.121,6.903-1.121,12.366l0,8.915c0.001,5.524,0.375,9.28,1.122,11.265
				c0.746,1.98,1.995,2.475,3.744,1.492c1.741-0.977,2.956-2.846,3.654-5.608c0.697-2.755,1.043-6.853,1.043-12.297l0-8.788
				c-0.001-5.445-0.347-9.142-1.043-11.098C304.159,283.155,302.944,282.579,301.204,283.452L301.204,283.452"/>
		</g>
		
			<g id="text845-7-9-3-2-9" transform="matrix(0.5780221,-0.30978969,0.35327938,0.51749041,-165.39113,189.00281)" inkscape:export-xdpi="96" inkscape:export-ydpi="96" inkscape:export-filename="C:\xampp\htdocs\SauliusGTO3000\img.png">
			<path id="path3073-3-0" inkscape:connector-curvature="0" fill="#040D17" stroke="#BF5555" stroke-width="0.2646" d="
				M189.008,331.027c3.808-1.842,7.075-2.551,9.817-2.144c2.763,0.382,4.837,1.714,6.228,3.989c1.43,2.177,2.143,5.049,2.143,8.618
				c-0.001,3.57-0.623,7.121-1.875,10.658c-1.254,3.48-2.873,6.334-4.863,8.562l0,0.415c2.575-0.123,4.551,0.996,5.936,3.35
				c1.425,2.249,2.135,5.532,2.135,9.85c-0.176,6.129-1.89,12.037-5.159,17.757c-3.25,5.671-8.111,10.396-14.641,14.183
				c-4.557,2.643-8.427,3.961-11.588,3.936c-3.188-0.025-5.571-1.21-7.135-3.558c-1.571-2.356-2.358-5.56-2.357-9.605l0-2.276
				l12.796-7.04c0,5.827,2.473,7.353,7.372,4.602c4.839-2.715,7.234-7.267,7.236-13.686c-0.002-2.44-0.461-4.039-1.381-4.797
				c-0.877-0.854-2.034-0.893-3.475-0.117l-5.128,2.765l0.001-13.035l4.009-2.095c1.443-0.755,2.605-1.992,3.483-3.708
				c0.925-1.809,1.385-3.934,1.386-6.379c0-2.306-0.554-3.981-1.665-5.027c-1.063-1.074-2.552-1.132-4.467-0.172
				c-2.019,1.014-3.596,2.584-4.733,4.715c-1.139,2.134-1.71,4.34-1.71,6.612l-12.103,6.202l-0.001-2.703
				c0-3.748,0.784-7.562,2.346-11.435c1.608-3.88,3.909-7.446,6.892-10.684C181.517,335.536,185.02,332.955,189.008,331.027
				L189.008,331.027"/>
			<path id="path3075-4-9" inkscape:connector-curvature="0" fill="#040D17" stroke="#BF5555" stroke-width="0.2646" d="
				M232.812,309.844c6.632-3.208,11.218-2.419,13.829,2.296c2.632,4.597,3.941,12.484,3.941,23.685c0,11.2-1.309,20.51-3.942,27.972
				c-2.61,7.428-7.196,13.059-13.829,16.904c-6.796,3.941-11.655,3.692-14.497-0.828c-2.821-4.648-4.239-12.868-4.239-24.638
				c-0.001-11.769,1.417-21.465,4.238-29.044C221.155,318.581,226.015,313.131,232.812,309.844L232.812,309.844 M232.813,323.28
				c-2.169,1.088-3.719,3.199-4.644,6.335c-0.927,3.145-1.391,7.764-1.391,13.85l-0.001,9.933c0,6.154,0.464,10.312,1.393,12.469
				c0.924,2.153,2.475,2.618,4.643,1.398c2.155-1.209,3.662-3.376,4.524-6.496c0.861-3.114,1.291-7.696,1.292-13.751l0-9.774
				c0-6.056-0.431-10.147-1.292-12.279C236.474,322.763,234.967,322.198,232.813,323.28L232.813,323.28"/>
			<path id="path3077-5-9" inkscape:connector-curvature="0" fill="#040D17" stroke="#BF5555" stroke-width="0.2646" d="
				M272.235,290.78c5.945-2.874,10.056-2.016,12.399,2.515c2.363,4.421,3.537,11.926,3.537,22.541
				c0,10.614-1.174,19.402-3.537,26.398c-2.344,6.961-6.456,12.161-12.399,15.608c-6.085,3.529-10.431,3.149-12.972-1.208
				c-2.522-4.476-3.788-12.286-3.789-23.411c0-11.124,1.267-20.251,3.788-27.342C261.804,298.756,266.151,293.722,272.235,290.78
				L272.235,290.78 M272.234,303.495c-1.941,0.975-3.33,2.933-4.156,5.877c-0.83,2.951-1.246,7.308-1.247,13.066l0,9.397
				c0,5.822,0.416,9.769,1.247,11.837c0.828,2.063,2.216,2.545,4.158,1.454c1.931-1.084,3.28-3.092,4.054-6.022
				c0.773-2.924,1.157-7.25,1.157-12.984l0-9.255c0-5.734-0.385-9.619-1.156-11.659
				C275.515,303.099,274.166,302.526,272.234,303.495L272.234,303.495"/>
			<path id="path3079-7-1" inkscape:connector-curvature="0" fill="#040D17" stroke="#BF5555" stroke-width="0.2646" d="
				M307.65,273.654c5.358-2.591,9.067-1.68,11.181,2.679c2.133,4.256,3.194,11.418,3.194,21.504
				c-0.001,10.086-1.062,18.405-3.194,24.988c-2.116,6.549-5.823,11.374-11.181,14.481c-5.48,3.177-9.391,2.694-11.676-1.509
				c-2.266-4.312-3.405-11.753-3.405-22.299c0-10.545,1.139-19.166,3.404-25.828C298.259,280.976,302.17,276.304,307.65,273.654
				L307.65,273.654 M307.65,285.723c-1.748,0.878-2.999,2.703-3.744,5.476c-0.749,2.779-1.123,6.902-1.123,12.366l0,8.915
				c0,5.523,0.375,9.28,1.122,11.264c0.746,1.98,1.996,2.475,3.745,1.493c1.739-0.977,2.956-2.846,3.654-5.608
				c0.695-2.756,1.043-6.853,1.042-12.298l0.001-8.787c-0.001-5.445-0.348-9.144-1.044-11.099
				C310.606,285.427,309.389,284.85,307.65,285.723L307.65,285.723"/>
		</g>
		
			<g id="text845-7-8-1-0-4-0-2" transform="matrix(-0.58259646,0.31224131,-0.35607518,-0.52158573,176.2022,350.79271)" inkscape:export-xdpi="96" inkscape:export-ydpi="96" inkscape:export-filename="C:\xampp\htdocs\SauliusGTO3000\img.png">
			<path id="path2097-0-2-6-9" inkscape:connector-curvature="0" fill="#BF5555" d="M236.621,273.059
				c-2.885,1.113-5.259,0.346-7.119-2.302c-1.861-2.588-2.814-7.149-2.858-13.679l0-1.123l6.797-2.605l-0.001,0.374
				c0,1.87,0.241,3.335,0.722,4.396c0.481,1.061,1.213,1.403,2.197,1.025c0.961-0.369,1.704-1.059,2.228-2.07
				c0.503-1.002,0.754-2.095,0.754-3.278c0-1.681-0.35-2.792-1.048-3.334c-0.699-0.542-1.825-0.952-3.376-1.23
				c-1.815-0.365-3.302-0.917-4.462-1.657c-1.182-0.67-2.211-2.147-3.087-4.432c-0.876-2.285-1.325-5.669-1.348-10.15
				c0.001-7.61,0.91-13.598,2.727-17.966c1.794-4.356,4.201-7.105,7.218-8.242c3.517-1.328,6.258-0.684,8.22,1.936
				c1.94,2.626,2.911,8.198,2.911,16.721l-6.838,2.601c0-3.238-0.294-5.305-0.885-6.202c-0.589-0.836-1.508-1.015-2.752-0.543
				c-0.918,0.349-1.673,0.916-2.263,1.701c-0.611,0.791-0.917,2.06-0.918,3.806c0,1.558,0.34,2.581,1.018,3.07
				c0.656,0.561,1.737,0.991,3.245,1.289c1.835,0.422,3.352,0.995,4.553,1.72c1.198,0.789,2.246,2.412,3.14,4.87
				c0.894,2.458,1.341,6.082,1.341,10.872c0,7.029-0.949,12.558-2.846,16.586C241.971,269.315,239.548,271.93,236.621,273.059
				L236.621,273.059"/>
			<path id="path2099-8-7-9-8" inkscape:connector-curvature="0" fill="#BF5555" d="M207.191,218.777l0.956,8.734l7.948-3.012
				l0.955-9.447l7.438-2.809l-8.261,67.563l-8.475,3.269l-8.294-61.377L207.191,218.777 M214.579,239.5l-4.914,1.87l2.375,22.056
				l0.132-0.051L214.579,239.5"/>
			<path id="path2101-4-3-2-9" inkscape:connector-curvature="0" fill="#BF5555" d="M175.098,256.977
				c0-8.85,0.987-15.97,2.96-21.361c1.974-5.388,4.775-8.767,8.405-10.138c3.627-1.37,6.433-0.112,8.421,3.77
				c1.965,3.888,2.948,10.244,2.947,19.069l0,38.584l-7.32,2.823l0.001-38.337c-0.002-3.634-0.343-6.416-1.029-8.349
				c-0.685-1.869-1.679-2.557-2.984-2.062c-1.307,0.495-2.302,1.97-2.989,4.425c-0.708,2.464-1.062,5.484-1.062,9.058l-0.001,38.375
				l-7.348,2.834L175.098,256.977"/>
			<path id="path2103-6-7-2-0" inkscape:connector-curvature="0" fill="#BF5555" d="M170.137,297.583l-7.369,2.843l-0.001-48.274
				l-11.8,4.483l-0.001-16.619l19.17-7.242L170.137,297.583"/>
			<path id="path2105-1-9-7-6" inkscape:connector-curvature="0" fill="#BF5555" d="M147.485,241.332l-0.001,64.989l-7.411,2.859
				l0-65.048L147.485,241.332"/>
			<path id="path2107-6-6-2-5" inkscape:connector-curvature="0" fill="#BF5555" d="M111.692,281.134
				c0-8.918,1.002-16.098,3.005-21.537c2.005-5.435,4.85-8.849,8.537-10.24c3.683-1.392,6.533-0.132,8.552,3.774
				c1.995,3.913,2.992,10.315,2.992,19.208l0,38.884l-7.435,2.868l0-38.635c0-3.661-0.348-6.465-1.044-8.41
				c-0.697-1.882-1.707-2.572-3.033-2.069c-1.326,0.503-2.337,1.992-3.035,4.469c-0.719,2.485-1.079,5.529-1.08,9.131l0.001,38.675
				l-7.463,2.878L111.692,281.134"/>
			<path id="path2109-0-5-3-4" inkscape:connector-curvature="0" fill="#BF5555" d="M96.861,326.989
				c-2.987,1.152-5.443,0.388-7.368-2.294c-1.927-2.62-2.912-7.253-2.958-13.897l0.001-1.142l7.032-2.697l0.001,0.382
				c0,1.901,0.248,3.39,0.746,4.467c0.499,1.076,1.255,1.419,2.273,1.028c0.996-0.381,1.764-1.089,2.307-2.12
				c0.519-1.024,0.78-2.137,0.779-3.34c0.001-1.711-0.362-2.839-1.084-3.385c-0.725-0.547-1.89-0.956-3.494-1.228
				c-1.879-0.359-3.419-0.912-4.619-1.658c-1.223-0.673-2.288-2.169-3.195-4.487c-0.906-2.318-1.372-5.758-1.394-10.318
				c0.001-7.741,0.942-13.839,2.823-18.294c1.858-4.444,4.347-7.255,7.47-8.435c3.641-1.374,6.475-0.735,8.506,1.915
				c2.009,2.659,3.013,8.322,3.012,16.99l-7.077,2.693c0.001-3.293-0.304-5.394-0.915-6.302c-0.61-0.845-1.56-1.024-2.848-0.535
				c-0.95,0.361-1.731,0.942-2.341,1.745c-0.634,0.81-0.951,2.104-0.952,3.878c0,1.585,0.351,2.624,1.053,3.118
				c0.678,0.566,1.799,0.995,3.358,1.288c1.9,0.418,3.471,0.992,4.711,1.72c1.242,0.793,2.326,2.437,3.251,4.932
				c0.926,2.495,1.387,6.178,1.388,11.052c0,7.15-0.982,12.78-2.945,16.892C102.396,323.143,99.889,325.82,96.861,326.989
				L96.861,326.989"/>
		</g>
		
			<g id="text845-7-8-1-0-8-7" transform="matrix(-0.58259646,0.31224131,-0.35607518,-0.52158573,177.14138,350.81498)" inkscape:export-xdpi="96" inkscape:export-ydpi="96" inkscape:export-filename="C:\xampp\htdocs\SauliusGTO3000\img.png">
			<path id="path2097-0-8-0" inkscape:connector-curvature="0" fill="#040D17" stroke="#BF5555" stroke-width="0.2842" d="
				M233.394,271.009c-2.885,1.113-5.258,0.346-7.119-2.303c-1.861-2.587-2.814-7.148-2.858-13.679l0.001-1.123l6.796-2.605l0,0.374
				c0,1.869,0.24,3.334,0.722,4.396c0.481,1.062,1.213,1.404,2.196,1.025c0.961-0.369,1.704-1.059,2.229-2.07
				c0.502-1.003,0.753-2.095,0.753-3.278c0-1.681-0.35-2.792-1.048-3.334c-0.699-0.542-1.825-0.952-3.376-1.23
				c-1.815-0.365-3.302-0.917-4.462-1.657c-1.182-0.67-2.211-2.147-3.087-4.432c-0.876-2.285-1.325-5.669-1.348-10.15
				c0.001-7.61,0.91-13.598,2.727-17.966c1.795-4.355,4.201-7.105,7.218-8.242c3.517-1.329,6.257-0.684,8.219,1.936
				c1.941,2.626,2.911,8.198,2.911,16.721l-6.838,2.602c0.001-3.239-0.294-5.306-0.884-6.202c-0.589-0.836-1.507-1.015-2.752-0.543
				c-0.918,0.349-1.673,0.916-2.263,1.701c-0.611,0.791-0.917,2.06-0.918,3.807c0,1.558,0.339,2.581,1.018,3.07
				c0.655,0.561,1.737,0.991,3.245,1.287c1.834,0.424,3.351,0.997,4.552,1.722c1.199,0.789,2.246,2.412,3.14,4.87
				s1.341,6.082,1.341,10.872c0,7.03-0.948,12.558-2.845,16.586C238.743,267.264,236.321,269.88,233.394,271.009L233.394,271.009"/>
			<path id="path2099-8-9-3" inkscape:connector-curvature="0" fill="#040D17" stroke="#BF5555" stroke-width="0.2842" d="
				M203.962,216.726l0.957,8.735l7.948-3.012l0.955-9.447l7.438-2.809l-8.26,67.563l-8.475,3.268l-8.295-61.376L203.962,216.726
				 M211.351,237.45l-4.914,1.87l2.375,22.056l0.132-0.051L211.351,237.45"/>
			<path id="path2101-4-0-3" inkscape:connector-curvature="0" fill="#040D17" stroke="#BF5555" stroke-width="0.2842" d="
				M171.871,254.926c0-8.848,0.987-15.97,2.961-21.361c1.972-5.388,4.775-8.767,8.405-10.138c3.626-1.37,6.432-0.112,8.42,3.77
				c1.964,3.888,2.945,10.243,2.946,19.068l0,38.584l-7.32,2.823l-0.001-38.337c0.001-3.633-0.343-6.416-1.027-8.347
				c-0.685-1.871-1.682-2.558-2.987-2.063c-1.305,0.496-2.301,1.971-2.987,4.426c-0.708,2.464-1.063,5.483-1.063,9.057l0,38.375
				l-7.349,2.834L171.871,254.926"/>
			<path id="path2103-6-4-9" inkscape:connector-curvature="0" fill="#040D17" stroke="#BF5555" stroke-width="0.2842" d="
				M166.911,295.533l-7.371,2.843l-0.001-48.274l-11.799,4.482l0-16.617l19.17-7.242l-0.001,64.808"/>
			<path id="path2105-1-2-2" inkscape:connector-curvature="0" fill="#040D17" stroke="#BF5555" stroke-width="0.2842" d="
				M144.257,239.281l-0.001,64.989l-7.411,2.858l0.001-65.047L144.257,239.281"/>
			<path id="path2107-6-66-3" inkscape:connector-curvature="0" fill="#040D17" stroke="#BF5555" stroke-width="0.2842" d="
				M108.463,279.083c0-8.918,1.003-16.097,3.008-21.536c2.003-5.436,4.849-8.85,8.536-10.242c3.683-1.391,6.534-0.131,8.552,3.774
				c1.995,3.913,2.992,10.315,2.992,19.208l-0.001,38.883l-7.434,2.868l0-38.635c0-3.661-0.348-6.465-1.045-8.41
				c-0.695-1.882-1.707-2.572-3.032-2.069c-1.325,0.503-2.336,1.993-3.035,4.469c-0.719,2.485-1.079,5.529-1.079,9.131l0,38.673
				l-7.464,2.879L108.463,279.083"/>
			<path id="path2109-0-8-6" inkscape:connector-curvature="0" fill="#040D17" stroke="#BF5555" stroke-width="0.2842" d="
				M93.632,324.937c-2.986,1.153-5.441,0.389-7.368-2.294c-1.926-2.62-2.911-7.252-2.957-13.897l0-1.141l7.034-2.696l-0.001,0.38
				c0.001,1.902,0.25,3.392,0.747,4.468c0.497,1.076,1.256,1.419,2.273,1.028c0.994-0.382,1.765-1.088,2.306-2.122
				c0.521-1.022,0.78-2.135,0.78-3.339c0-1.711-0.361-2.838-1.086-3.385c-0.722-0.546-1.887-0.955-3.494-1.228
				c-1.878-0.358-3.416-0.91-4.617-1.656c-1.224-0.674-2.288-2.169-3.194-4.488c-0.908-2.318-1.372-5.758-1.395-10.317
				c-0.001-7.741,0.939-13.84,2.821-18.295c1.858-4.444,4.35-7.254,7.471-8.434c3.64-1.375,6.475-0.735,8.508,1.916
				c2.008,2.658,3.011,8.321,3.012,16.99l-7.077,2.693c-0.001-3.294-0.307-5.395-0.915-6.303c-0.611-0.845-1.56-1.023-2.85-0.535
				c-0.95,0.361-1.731,0.942-2.342,1.744c-0.633,0.811-0.951,2.104-0.95,3.879c0,1.585,0.351,2.624,1.052,3.117
				c0.68,0.566,1.799,0.995,3.359,1.289c1.898,0.416,3.468,0.99,4.711,1.72c1.242,0.793,2.326,2.437,3.251,4.932
				c0.925,2.494,1.387,6.178,1.386,11.05c0.001,7.151-0.98,12.782-2.944,16.892C99.17,321.093,96.662,323.77,93.632,324.937
				L93.632,324.937"/>
		</g>
		
			<path id="path3471-4" inkscape:connector-curvature="0" inkscape:export-xdpi="96" inkscape:export-ydpi="96" inkscape:export-filename="C:\xampp\htdocs\SauliusGTO3000\img.png" fill="#BF5555" d="
			M81.316,256.563l1.146,4.353l-5.618,6.501l-0.904-4.405L81.316,256.563z"/>
		
			<path id="path3473-1" inkscape:connector-curvature="0" inkscape:export-xdpi="96" inkscape:export-ydpi="96" inkscape:export-filename="C:\xampp\htdocs\SauliusGTO3000\img.png" fill="#BF5555" d="
			M36.294,265.622l-2.799-3.289l-3.705,5.081l5.182-0.932L36.294,265.622z"/>
		
			<path id="path3475-5" inkscape:connector-curvature="0" inkscape:export-xdpi="96" inkscape:export-ydpi="96" inkscape:export-filename="C:\xampp\htdocs\SauliusGTO3000\img.png" sodipodi:nodetypes="cccc" fill="#BF5555" d="
			M-4.561,291.193l2.941,3.3l4.808-5.109L-4.561,291.193z"/>
		
			<path id="path3477-0" inkscape:connector-curvature="0" inkscape:export-xdpi="96" inkscape:export-ydpi="96" inkscape:export-filename="C:\xampp\htdocs\SauliusGTO3000\img.png" fill="#BF5555" d="
			M65.78,277.801l1.184,4.354l-5.863,1.393L65.78,277.801z"/>
		
			<path id="path3479-7" inkscape:connector-curvature="0" inkscape:export-xdpi="96" inkscape:export-ydpi="96" inkscape:export-filename="C:\xampp\htdocs\SauliusGTO3000\img.png" sodipodi:nodetypes="cccccc" fill="#BF5555" d="
			M18.759,288.142l1.791,2.732c0,0-3.264,3.564-3.133,3.543c0.132-0.019-4.389,0.047-4.389,0.047l4.824-5.78L18.759,288.142z"/>
		
			<path id="path3481-1" inkscape:connector-curvature="0" inkscape:export-xdpi="96" inkscape:export-ydpi="96" inkscape:export-filename="C:\xampp\htdocs\SauliusGTO3000\img.png" sodipodi:nodetypes="cccc" fill="#BF5555" d="
			M28.648,262.035l-2.418-3.844l3.215,1.622L28.648,262.035z"/>
		
			<path id="path3483-0" inkscape:connector-curvature="0" inkscape:export-xdpi="96" inkscape:export-ydpi="96" inkscape:export-filename="C:\xampp\htdocs\SauliusGTO3000\img.png" fill="#BF5555" d="
			M-23.647,317.684l2.387,3.789l1.203-0.35l-1.021-2.004L-23.647,317.684z"/>
		
			<path id="path3485-3" inkscape:connector-curvature="0" inkscape:export-xdpi="96" inkscape:export-ydpi="96" inkscape:export-filename="C:\xampp\htdocs\SauliusGTO3000\img.png" fill="#BF5555" d="
			M10.097,303.401l2.865,3.322l4.268-4.868c0,0-6.776,1.273-6.831,1.326c-0.06,0.039-0.295,0.23-0.295,0.23L10.097,303.401z"/>
		
			<path id="path3487-4" inkscape:connector-curvature="0" inkscape:export-xdpi="96" inkscape:export-ydpi="96" inkscape:export-filename="C:\xampp\htdocs\SauliusGTO3000\img.png" sodipodi:nodetypes="cccc" fill="#BF5555" d="
			M99.981,229.259l1.751,4.142l-2.002-1.305L99.981,229.259z"/>
		
			<path id="path3489-8" inkscape:connector-curvature="0" inkscape:export-xdpi="96" inkscape:export-ydpi="96" inkscape:export-filename="C:\xampp\htdocs\SauliusGTO3000\img.png" sodipodi:nodetypes="ccccc" fill="#BF5555" d="
			M-48.03,310.358l3.482,0.092l3.171-4.076l-3.663,0.498L-48.03,310.358z"/>
	</g>
</g>
</svg>
