<?xml version="1.0" encoding="UTF-8" standalone="no"?>
<!-- Created with Inkscape (http://www.inkscape.org/) -->

<svg
   xmlns:dc="http://purl.org/dc/elements/1.1/"
   xmlns:cc="http://creativecommons.org/ns#"
   xmlns:rdf="http://www.w3.org/1999/02/22-rdf-syntax-ns#"
   xmlns:svg="http://www.w3.org/2000/svg"
   xmlns="http://www.w3.org/2000/svg"
   xmlns:sodipodi="http://sodipodi.sourceforge.net/DTD/sodipodi-0.dtd"
   xmlns:inkscape="http://www.inkscape.org/namespaces/inkscape"
   width="50"
   height="40"
   viewBox="0 0 13.229166 10.583333"
   version="1.1"
   id="svg3878"
   inkscape:version="0.92.2 (5c3e80d, 2017-08-06)"
   sodipodi:docname="logoSmall.svg">
  <defs
     id="defs3872" />
  <sodipodi:namedview
     id="base"
     pagecolor="#ffffff"
     bordercolor="#666666"
     borderopacity="1.0"
     inkscape:pageopacity="0.0"
     inkscape:pageshadow="2"
     inkscape:zoom="11.2"
     inkscape:cx="30.377854"
     inkscape:cy="17.908302"
     inkscape:document-units="mm"
     inkscape:current-layer="layer1"
     showgrid="false"
     inkscape:window-width="1858"
     inkscape:window-height="1057"
     inkscape:window-x="1592"
     inkscape:window-y="-8"
     inkscape:window-maximized="1"
     units="px" />
  <metadata
     id="metadata3875">
    <rdf:RDF>
      <cc:Work
         rdf:about="">
        <dc:format>image/svg+xml</dc:format>
        <dc:type
           rdf:resource="http://purl.org/dc/dcmitype/StillImage" />
        <dc:title></dc:title>
      </cc:Work>
    </rdf:RDF>
  </metadata>
  <g
     inkscape:label="Layer 1"
     inkscape:groupmode="layer"
     id="layer1"
     transform="translate(0,-286.41666)">
    <g
       aria-label="GTO"
       style="font-style:normal;font-weight:normal;font-size:11.36830807px;line-height:1.25;font-family:sans-serif;letter-spacing:0px;word-spacing:0px;fill:#bf5555;fill-opacity:1;stroke:none;stroke-width:0.2842077"
       id="text845-7-8-2-2-4"
       transform="matrix(0.16039885,0,0,-0.16039885,-24.305326,336.2282)"
       inkscape:export-filename="C:\xampp\htdocs\SauliusGTO3000\img.png"
       inkscape:export-xdpi="96"
       inkscape:export-ydpi="96">
      <path
         d="m 168.99528,276.71837 c 1.39934,0.53996 3.00028,0.90625 4.80941,1.10309 1.8011,0.19597 3.72235,0.1946 5.77663,-0.004 2.0522,-0.18667 4.12636,-0.60054 6.2388,-1.24803 0,0 -4.26417,-1.77703 -4.26417,-1.77703 -1.09049,0.34592 -2.22137,0.51412 -3.39896,0.50657 -1.20273,4.4e-4 -2.1824,-0.15249 -2.94284,-0.46033 -1.10754,-0.44836 -1.42814,-0.96311 -0.94911,-1.54641 0.45968,-0.58227 1.6648,-1.20028 3.63134,-1.85529 0,0 2.52354,-0.84055 2.52354,-0.84055 2.02975,-0.67607 3.91273,-1.07926 5.63062,-1.2026 1.6947,-0.11458 3.0924,0.0787 4.18162,0.57626 0.74754,0.34146 1.03615,0.7407 0.87099,1.19627 -0.19078,0.45988 -0.82687,0.8599 -1.90374,1.20149 0,0 -3.23407,-1.43342 -3.23407,-1.43342 0,0 -5.54937,1.80695 -5.54937,1.80695 0,0 7.509,3.18293 7.509,3.18293 0,0 15.58434,-4.77678 15.58434,-4.77678 0,0 -2.22349,-1.07067 -2.22349,-1.07067 0,0 -3.32703,0.69677 -3.32703,0.69677 1.01321,-1.30832 0.50334,-2.47265 -1.58231,-3.48124 -2.39832,-1.15979 -5.52935,-1.61296 -9.33512,-1.3401 -3.81317,0.28104 -8.14935,1.26607 -12.90283,2.91407 -4.5467,1.57631 -7.15702,3.03275 -7.92371,4.37789 -0.75446,1.32119 0.19221,2.47556 2.78046,3.47428 0,0 0,0 0,0"
         style="font-style:normal;font-variant:normal;font-weight:normal;font-stretch:normal;font-family:'Archivo Black';-inkscape-font-specification:'Archivo Black, ';letter-spacing:0px;fill:#bf5555;fill-opacity:1;stroke-width:0.2842077"
         id="path2520-2-9-3"
         inkscape:connector-curvature="0" />
      <path
         d="m 193.1954,281.53778 c 0,0 20.10233,-5.67699 20.10233,-5.67699 0,0 -3.93096,-1.89287 -3.93096,-1.89287 0,0 -20.24464,5.90954 -20.24464,5.90954 0,0 -4.33398,-1.76659 -4.33398,-1.76659 0,0 -6.40526,1.93636 -6.40526,1.93636 0,0 12.49898,4.83941 12.49898,4.83941 0,0 6.30269,-1.72282 6.30269,-1.72282 0,0 -3.98916,-1.62604 -3.98916,-1.62604"
         style="font-style:normal;font-variant:normal;font-weight:normal;font-stretch:normal;font-family:'Archivo Black';-inkscape-font-specification:'Archivo Black, ';letter-spacing:0px;fill:#bf5555;fill-opacity:1;stroke-width:0.2842077"
         id="path2522-5-7-9"
         inkscape:connector-curvature="0" />
      <path
         d="m 197.43267,287.69139 c 1.93018,0.74479 4.44354,1.04753 7.57521,0.91846 3.1421,-0.1295 6.79962,-0.70654 11.04803,-1.75129 4.36328,-1.07299 7.28629,-2.12977 8.70658,-3.16786 1.45695,-1.0649 1.30257,-2.04152 -0.51957,-2.92268 -1.86051,-0.89971 -4.55985,-1.27954 -8.05913,-1.12562 -3.50241,0.1657 -7.5494,0.87372 -12.05246,2.09773 -4.37624,1.18954 -7.05615,2.29086 -8.1115,3.30959 -1.04156,1.00441 -0.55466,1.88248 1.41284,2.64167 0,0 0,0 0,0 m 5.81894,-1.50266 c -0.77251,-0.31273 -0.8468,-0.68732 -0.21324,-1.12548 0.64048,-0.44293 1.86224,-0.90297 3.67572,-1.38061 0,0 2.41729,-0.63666 2.41729,-0.63666 1.86321,-0.49073 3.55987,-0.79533 5.07651,-0.90967 1.52079,-0.11465 2.6599,1.8e-4 3.40961,0.34263 0.74363,0.33968 0.7439,0.73952 0.0114,1.19776 -0.71409,0.45783 -1.99842,0.92044 -3.84295,1.38758 0,0 -2.39384,0.60625 -2.39384,0.60625 -1.79648,0.45497 -3.40968,0.72997 -4.85209,0.82866 -1.42818,0.1028 -2.52192,-1.6e-4 -3.28843,-0.31046 0,0 0,0 0,0"
         style="font-style:normal;font-variant:normal;font-weight:normal;font-stretch:normal;font-family:'Archivo Black';-inkscape-font-specification:'Archivo Black, ';letter-spacing:0px;fill:#bf5555;fill-opacity:1;stroke-width:0.2842077"
         id="path2524-9-6-8"
         inkscape:connector-curvature="0" />
    </g>
    <g
       aria-label="GTO"
       style="font-style:normal;font-weight:normal;font-size:11.36830807px;line-height:1.25;font-family:sans-serif;letter-spacing:0px;word-spacing:0px;fill:#040d17;fill-opacity:1;stroke:#bf5555;stroke-width:0.2842077;stroke-opacity:1"
       id="text845-7-8-8-8"
       transform="matrix(0.16039885,0,0,-0.16039885,-24.271624,335.94085)"
       inkscape:export-filename="C:\xampp\htdocs\SauliusGTO3000\img.png"
       inkscape:export-xdpi="96"
       inkscape:export-ydpi="96">
      <path
         d="m 168.99528,276.71837 c 1.39934,0.53996 3.00028,0.90625 4.80941,1.10309 1.8011,0.19597 3.72235,0.1946 5.77663,-0.004 2.0522,-0.18667 4.12636,-0.60054 6.2388,-1.24803 0,0 -4.26417,-1.77703 -4.26417,-1.77703 -1.09049,0.34592 -2.22137,0.51412 -3.39896,0.50657 -1.20273,4.4e-4 -2.1824,-0.15249 -2.94284,-0.46033 -1.10754,-0.44836 -1.42814,-0.96311 -0.94911,-1.54641 0.45968,-0.58227 1.6648,-1.20028 3.63134,-1.85529 0,0 2.52354,-0.84055 2.52354,-0.84055 2.02975,-0.67607 3.91273,-1.07926 5.63062,-1.2026 1.6947,-0.11458 3.0924,0.0787 4.18162,0.57626 0.74754,0.34146 1.03615,0.7407 0.87099,1.19627 -0.19078,0.45988 -0.82687,0.8599 -1.90374,1.20149 0,0 -3.23407,-1.43342 -3.23407,-1.43342 0,0 -5.54937,1.80695 -5.54937,1.80695 0,0 7.509,3.18293 7.509,3.18293 0,0 15.58434,-4.77678 15.58434,-4.77678 0,0 -2.22349,-1.07067 -2.22349,-1.07067 0,0 -3.32703,0.69677 -3.32703,0.69677 1.01321,-1.30832 0.50334,-2.47265 -1.58231,-3.48124 -2.39832,-1.15979 -5.52935,-1.61296 -9.33512,-1.3401 -3.81317,0.28104 -8.14935,1.26607 -12.90283,2.91407 -4.5467,1.57631 -7.15702,3.03275 -7.92371,4.37789 -0.75446,1.32119 0.19221,2.47556 2.78046,3.47428 0,0 0,0 0,0"
         style="font-style:normal;font-variant:normal;font-weight:normal;font-stretch:normal;font-family:'Archivo Black';-inkscape-font-specification:'Archivo Black, ';letter-spacing:0px;fill:#040d17;fill-opacity:1;stroke:#bf5555;stroke-width:0.2842077;stroke-opacity:1"
         id="path2520-9-8"
         inkscape:connector-curvature="0" />
      <path
         d="m 193.1954,281.53778 c 0,0 20.10233,-5.67699 20.10233,-5.67699 0,0 -3.93096,-1.89287 -3.93096,-1.89287 0,0 -20.24464,5.90954 -20.24464,5.90954 0,0 -4.33398,-1.76659 -4.33398,-1.76659 0,0 -6.40526,1.93636 -6.40526,1.93636 0,0 12.49898,4.83941 12.49898,4.83941 0,0 6.30269,-1.72282 6.30269,-1.72282 0,0 -3.98916,-1.62604 -3.98916,-1.62604"
         style="font-style:normal;font-variant:normal;font-weight:normal;font-stretch:normal;font-family:'Archivo Black';-inkscape-font-specification:'Archivo Black, ';letter-spacing:0px;fill:#040d17;fill-opacity:1;stroke:#bf5555;stroke-width:0.2842077;stroke-opacity:1"
         id="path2522-4-9"
         inkscape:connector-curvature="0" />
      <path
         d="m 197.43267,287.69139 c 1.93018,0.74479 4.44354,1.04753 7.57521,0.91846 3.1421,-0.1295 6.79962,-0.70654 11.04803,-1.75129 4.36328,-1.07299 7.28629,-2.12977 8.70658,-3.16786 1.45695,-1.0649 1.30257,-2.04152 -0.51957,-2.92268 -1.86051,-0.89971 -4.55985,-1.27954 -8.05913,-1.12562 -3.50241,0.1657 -7.5494,0.87372 -12.05246,2.09773 -4.37624,1.18954 -7.05615,2.29086 -8.1115,3.30959 -1.04156,1.00441 -0.55466,1.88248 1.41284,2.64167 0,0 0,0 0,0 m 5.81894,-1.50266 c -0.77251,-0.31273 -0.8468,-0.68732 -0.21324,-1.12548 0.64048,-0.44293 1.86224,-0.90297 3.67572,-1.38061 0,0 2.41729,-0.63666 2.41729,-0.63666 1.86321,-0.49073 3.55987,-0.79533 5.07651,-0.90967 1.52079,-0.11465 2.6599,1.8e-4 3.40961,0.34263 0.74363,0.33968 0.7439,0.73952 0.0114,1.19776 -0.71409,0.45783 -1.99842,0.92044 -3.84295,1.38758 0,0 -2.39384,0.60625 -2.39384,0.60625 -1.79648,0.45497 -3.40968,0.72997 -4.85209,0.82866 -1.42818,0.1028 -2.52192,-1.6e-4 -3.28843,-0.31046 0,0 0,0 0,0"
         style="font-style:normal;font-variant:normal;font-weight:normal;font-stretch:normal;font-family:'Archivo Black';-inkscape-font-specification:'Archivo Black, ';letter-spacing:0px;fill:#040d17;fill-opacity:1;stroke:#bf5555;stroke-width:0.2842077;stroke-opacity:1"
         id="path2524-8-6"
         inkscape:connector-curvature="0" />
    </g>
    <g
       id="text845-7-9-3-8-5-3"
       style="font-style:normal;font-weight:normal;font-size:10.58333302px;line-height:1.25;font-family:sans-serif;letter-spacing:0px;word-spacing:0px;fill:#bf5555;fill-opacity:1;stroke:none;stroke-width:0.26458332"
       aria-label="3000"
       transform="matrix(0.15617197,0,0,0.15617197,-15.179953,249.63629)"
       inkscape:export-filename="C:\xampp\htdocs\SauliusGTO3000\img.png"
       inkscape:export-xdpi="96"
       inkscape:export-ydpi="96">
      <path
         id="path3073-0-8-5"
         style="font-style:normal;font-variant:normal;font-weight:normal;font-stretch:normal;font-family:'Archivo Black';-inkscape-font-specification:'Archivo Black, ';letter-spacing:0px;fill:#bf5555;fill-opacity:1;stroke-width:0.26458332"
         d="m 141.71881,281.2626 c 1.00759,-0.48725 1.87209,-0.67493 2.597,-0.56718 0.73174,0.10113 1.28008,0.45334 1.64795,1.05554 0.37833,0.57593 0.56696,1.33538 0.56696,2.27997 0,0.94458 -0.16503,1.88379 -0.49592,2.81993 -0.33197,0.92098 -0.7604,1.67609 -1.2865,2.26534 0,0 0,0.10987 0,0.10987 0.68102,-0.0322 1.20361,0.26388 1.57018,0.88626 0.37701,0.59558 0.56498,1.46373 0.56498,2.60613 -0.047,1.62207 -0.50007,3.18505 -1.36487,4.69806 -0.86024,1.50079 -2.14617,2.75063 -3.87389,3.75247 -1.20561,0.69909 -2.22951,1.04832 -3.06612,1.04152 -0.84334,-0.007 -1.47386,-0.31996 -1.88767,-0.9411 -0.41545,-0.62357 -0.62378,-1.47131 -0.62378,-2.54136 0,0 0,-0.60191 0,-0.60191 0,0 3.38593,-1.8631 3.38593,-1.8631 0,1.54185 0.65421,1.94553 1.9504,1.21794 1.28013,-0.71859 1.91427,-1.92347 1.91427,-3.6213 0,-0.6459 -0.12165,-1.06885 -0.36537,-1.2692 -0.23208,-0.22595 -0.53824,-0.23671 -0.91915,-0.0313 0,0 -1.35686,0.73156 -1.35686,0.73156 0,0 0,-3.44881 0,-3.44881 0,0 1.06098,-0.5544 1.06098,-0.5544 0.38201,-0.19961 0.68905,-0.52686 0.92179,-0.98154 0.24442,-0.47846 0.36642,-1.04068 0.36642,-1.68753 0,-0.60987 -0.14641,-1.05306 -0.43986,-1.33016 -0.282,-0.28409 -0.67565,-0.29972 -1.18222,-0.0454 -0.53396,0.2681 -0.95187,0.68378 -1.2523,1.24721 -0.30131,0.56507 -0.45229,1.14871 -0.45229,1.74969 0,0 -3.2025,1.64092 -3.2025,1.64092 0,0 0,-0.7151 0,-0.7151 0,-0.99161 0.20749,-2.00118 0.62126,-3.02567 0.425,-1.0268 1.03374,-1.96976 1.82304,-2.82712 0.79596,-0.85706 1.7232,-1.54018 2.77814,-2.05033 0,0 0,1e-4 0,1e-4"
         inkscape:connector-curvature="0" />
      <path
         id="path3075-7-5-2"
         style="font-style:normal;font-variant:normal;font-weight:normal;font-stretch:normal;font-family:'Archivo Black';-inkscape-font-specification:'Archivo Black, ';letter-spacing:0px;fill:#bf5555;fill-opacity:1;stroke-width:0.26458332"
         d="m 153.30846,275.65802 c 1.75497,-0.84868 2.96796,-0.64008 3.6588,0.6076 0.69641,1.21625 1.04271,3.30282 1.04271,6.26635 0,2.96354 -0.3463,5.42696 -1.04271,7.40105 -0.69084,1.96517 -1.90383,3.45507 -3.6588,4.47272 -1.7984,1.04282 -3.08398,0.97691 -3.83598,-0.21901 -0.74622,-1.22944 -1.12143,-3.40472 -1.12143,-6.51888 0,-3.11417 0.37521,-5.67948 1.12143,-7.68462 0.752,-2.01357 2.03758,-3.45553 3.83598,-4.32521 0,0 0,0 0,0 m 0,3.55469 c -0.57367,0.28789 -0.98392,0.84663 -1.22867,1.6765 -0.24536,0.83193 -0.36827,2.05393 -0.36827,3.66444 0,0 0,2.62815 0,2.62815 0,1.62822 0.12291,2.72837 0.36827,3.29937 0.24475,0.56959 0.655,0.69205 1.22867,0.36988 0.5703,-0.32029 0.96862,-0.89333 1.19705,-1.71906 0.22789,-0.82377 0.34164,-2.03604 0.34164,-3.63825 0,0 0,-2.58618 0,-2.58618 0,-1.6022 -0.11375,-2.6848 -0.34164,-3.2488 -0.22843,-0.5828 -0.62675,-0.73225 -1.19705,-0.44605 0,0 0,0 0,0"
         inkscape:connector-curvature="0" />
      <path
         id="path3077-2-3-5"
         style="font-style:normal;font-variant:normal;font-weight:normal;font-stretch:normal;font-family:'Archivo Black';-inkscape-font-specification:'Archivo Black, ';letter-spacing:0px;fill:#bf5555;fill-opacity:1;stroke-width:0.26458332"
         d="m 163.73921,270.61386 c 1.57276,-0.76057 2.66069,-0.53347 3.28064,0.66542 0.62517,1.1697 0.93614,3.15574 0.93614,5.96416 0,2.80842 -0.31097,5.13329 -0.93614,6.98417 -0.61995,1.84189 -1.70788,3.21775 -3.28064,4.12974 -1.61009,0.93363 -2.76009,0.83322 -3.43241,-0.31971 -0.66687,-1.18396 -1.00208,-3.25078 -1.00208,-6.19411 0,-2.94334 0.33521,-5.35815 1.00208,-7.23441 0.67232,-1.88484 1.82232,-3.21664 3.43241,-3.99526 0,0 0,0 0,0 m 0,3.36428 c -0.51377,0.25783 -0.88109,0.77604 -1.10019,1.55491 -0.21961,0.7807 -0.32962,1.93354 -0.32962,3.45711 0,0 0,2.48628 0,2.48628 0,1.54033 0.11001,2.58455 0.32962,3.13171 0.2191,0.54587 0.58642,0.67345 1.10019,0.38491 0.51093,-0.28693 0.86787,-0.81811 1.0726,-1.59341 0.20428,-0.77356 0.30625,-1.91821 0.30625,-3.43525 0,0 0,-2.44868 0,-2.44868 0,-1.51702 -0.10197,-2.54499 -0.30625,-3.08482 -0.20473,-0.55757 -0.56167,-0.70916 -1.0726,-0.45276 0,0 0,0 0,0"
         inkscape:connector-curvature="0" />
      <path
         id="path3079-9-7-7"
         style="font-style:normal;font-variant:normal;font-weight:normal;font-stretch:normal;font-family:'Archivo Black';-inkscape-font-specification:'Archivo Black, ';letter-spacing:0px;fill:#bf5555;fill-opacity:1;stroke-width:0.26458332"
         d="m 173.10933,266.08261 c 1.41751,-0.68549 2.39877,-0.44458 2.9582,0.70879 0.56434,1.12616 0.84512,3.02084 0.84512,5.68958 0,2.66874 -0.28078,4.86974 -0.84512,6.61156 -0.55943,1.73282 -1.54069,3.00948 -2.9582,3.83144 -1.4499,0.84074 -2.48468,0.71308 -3.08934,-0.39912 -0.59954,-1.14107 -0.90082,-3.10963 -0.90082,-5.89991 0,-2.79028 0.30128,-5.07119 0.90082,-6.83381 0.60466,-1.77129 1.63944,-3.00739 3.08934,-3.70853 0,0 0,0 0,0 m 0,3.19323 c -0.4628,0.23225 -0.79359,0.71507 -0.99086,1.44877 -0.19772,0.73534 -0.29675,1.8264 -0.29675,3.27194 0,0 0,2.35894 0,2.35894 0,1.46144 0.099,2.45514 0.29675,2.98021 0.19727,0.52391 0.52806,0.65495 0.99086,0.39504 0.46035,-0.25853 0.78204,-0.75317 0.96659,-1.48377 0.18415,-0.72903 0.27608,-1.8132 0.27608,-3.25365 0,0 0,-2.32507 0,-2.32507 0,-1.44044 -0.0919,-2.41902 -0.27608,-2.93655 -0.18455,-0.53434 -0.50624,-0.68688 -0.96659,-0.45586 0,0 0,0 0,0"
         inkscape:connector-curvature="0" />
    </g>
    <g
       id="text845-7-9-3-2-9"
       style="font-style:normal;font-weight:normal;font-size:10.58333302px;line-height:1.25;font-family:sans-serif;letter-spacing:0px;word-spacing:0px;fill:#040d17;fill-opacity:1;stroke:#bf5555;stroke-width:0.26458332;stroke-opacity:1"
       aria-label="3000"
       transform="matrix(0.15617197,0,0,0.15617197,-14.817755,249.76388)"
       inkscape:export-filename="C:\xampp\htdocs\SauliusGTO3000\img.png"
       inkscape:export-xdpi="96"
       inkscape:export-ydpi="96">
      <path
         id="path3073-3-0"
         style="font-style:normal;font-variant:normal;font-weight:normal;font-stretch:normal;font-family:'Archivo Black';-inkscape-font-specification:'Archivo Black, ';letter-spacing:0px;fill:#040d17;fill-opacity:1;stroke:#bf5555;stroke-width:0.26458332;stroke-opacity:1"
         d="m 141.71881,281.2626 c 1.00759,-0.48725 1.87209,-0.67493 2.597,-0.56718 0.73174,0.10113 1.28008,0.45334 1.64795,1.05554 0.37833,0.57593 0.56696,1.33538 0.56696,2.27997 0,0.94458 -0.16503,1.88379 -0.49592,2.81993 -0.33197,0.92098 -0.7604,1.67609 -1.2865,2.26534 0,0 0,0.10987 0,0.10987 0.68102,-0.0322 1.20361,0.26388 1.57018,0.88626 0.37701,0.59558 0.56498,1.46373 0.56498,2.60613 -0.047,1.62207 -0.50007,3.18505 -1.36487,4.69806 -0.86024,1.50079 -2.14617,2.75063 -3.87389,3.75247 -1.20561,0.69909 -2.22951,1.04832 -3.06612,1.04152 -0.84334,-0.007 -1.47386,-0.31996 -1.88767,-0.9411 -0.41545,-0.62357 -0.62378,-1.47131 -0.62378,-2.54136 0,0 0,-0.60191 0,-0.60191 0,0 3.38593,-1.8631 3.38593,-1.8631 0,1.54185 0.65421,1.94553 1.9504,1.21794 1.28013,-0.71859 1.91427,-1.92347 1.91427,-3.6213 0,-0.6459 -0.12165,-1.06885 -0.36537,-1.2692 -0.23208,-0.22595 -0.53824,-0.23671 -0.91915,-0.0313 0,0 -1.35686,0.73156 -1.35686,0.73156 0,0 0,-3.44881 0,-3.44881 0,0 1.06098,-0.5544 1.06098,-0.5544 0.38201,-0.19961 0.68905,-0.52686 0.92179,-0.98154 0.24442,-0.47846 0.36642,-1.04068 0.36642,-1.68753 0,-0.60987 -0.14641,-1.05306 -0.43986,-1.33016 -0.282,-0.28409 -0.67565,-0.29972 -1.18222,-0.0454 -0.53396,0.2681 -0.95187,0.68378 -1.2523,1.24721 -0.30131,0.56507 -0.45229,1.14871 -0.45229,1.74969 0,0 -3.2025,1.64092 -3.2025,1.64092 0,0 0,-0.7151 0,-0.7151 0,-0.99161 0.20749,-2.00118 0.62126,-3.02567 0.425,-1.0268 1.03374,-1.96976 1.82304,-2.82712 0.79596,-0.85706 1.7232,-1.54018 2.77814,-2.05033 0,0 0,1e-4 0,1e-4"
         inkscape:connector-curvature="0" />
      <path
         id="path3075-4-9"
         style="font-style:normal;font-variant:normal;font-weight:normal;font-stretch:normal;font-family:'Archivo Black';-inkscape-font-specification:'Archivo Black, ';letter-spacing:0px;fill:#040d17;fill-opacity:1;stroke:#bf5555;stroke-width:0.26458332;stroke-opacity:1"
         d="m 153.30846,275.65802 c 1.75497,-0.84868 2.96796,-0.64008 3.6588,0.6076 0.69641,1.21625 1.04271,3.30282 1.04271,6.26635 0,2.96354 -0.3463,5.42696 -1.04271,7.40105 -0.69084,1.96517 -1.90383,3.45507 -3.6588,4.47272 -1.7984,1.04282 -3.08398,0.97691 -3.83598,-0.21901 -0.74622,-1.22944 -1.12143,-3.40472 -1.12143,-6.51888 0,-3.11417 0.37521,-5.67948 1.12143,-7.68462 0.752,-2.01357 2.03758,-3.45553 3.83598,-4.32521 0,0 0,0 0,0 m 0,3.55469 c -0.57367,0.28789 -0.98392,0.84663 -1.22867,1.6765 -0.24536,0.83193 -0.36827,2.05393 -0.36827,3.66444 0,0 0,2.62815 0,2.62815 0,1.62822 0.12291,2.72837 0.36827,3.29937 0.24475,0.56959 0.655,0.69205 1.22867,0.36988 0.5703,-0.32029 0.96862,-0.89333 1.19705,-1.71906 0.22789,-0.82377 0.34164,-2.03604 0.34164,-3.63825 0,0 0,-2.58618 0,-2.58618 0,-1.6022 -0.11375,-2.6848 -0.34164,-3.2488 -0.22843,-0.5828 -0.62675,-0.73225 -1.19705,-0.44605 0,0 0,0 0,0"
         inkscape:connector-curvature="0" />
      <path
         id="path3077-5-9"
         style="font-style:normal;font-variant:normal;font-weight:normal;font-stretch:normal;font-family:'Archivo Black';-inkscape-font-specification:'Archivo Black, ';letter-spacing:0px;fill:#040d17;fill-opacity:1;stroke:#bf5555;stroke-width:0.26458332;stroke-opacity:1"
         d="m 163.73921,270.61386 c 1.57276,-0.76057 2.66069,-0.53347 3.28064,0.66542 0.62517,1.1697 0.93614,3.15574 0.93614,5.96416 0,2.80842 -0.31097,5.13329 -0.93614,6.98417 -0.61995,1.84189 -1.70788,3.21775 -3.28064,4.12974 -1.61009,0.93363 -2.76009,0.83322 -3.43241,-0.31971 -0.66687,-1.18396 -1.00208,-3.25078 -1.00208,-6.19411 0,-2.94334 0.33521,-5.35815 1.00208,-7.23441 0.67232,-1.88484 1.82232,-3.21664 3.43241,-3.99526 0,0 0,0 0,0 m 0,3.36428 c -0.51377,0.25783 -0.88109,0.77604 -1.10019,1.55491 -0.21961,0.7807 -0.32962,1.93354 -0.32962,3.45711 0,0 0,2.48628 0,2.48628 0,1.54033 0.11001,2.58455 0.32962,3.13171 0.2191,0.54587 0.58642,0.67345 1.10019,0.38491 0.51093,-0.28693 0.86787,-0.81811 1.0726,-1.59341 0.20428,-0.77356 0.30625,-1.91821 0.30625,-3.43525 0,0 0,-2.44868 0,-2.44868 0,-1.51702 -0.10197,-2.54499 -0.30625,-3.08482 -0.20473,-0.55757 -0.56167,-0.70916 -1.0726,-0.45276 0,0 0,0 0,0"
         inkscape:connector-curvature="0" />
      <path
         id="path3079-7-1"
         style="font-style:normal;font-variant:normal;font-weight:normal;font-stretch:normal;font-family:'Archivo Black';-inkscape-font-specification:'Archivo Black, ';letter-spacing:0px;fill:#040d17;fill-opacity:1;stroke:#bf5555;stroke-width:0.26458332;stroke-opacity:1"
         d="m 173.10933,266.08261 c 1.41751,-0.68549 2.39877,-0.44458 2.9582,0.70879 0.56434,1.12616 0.84512,3.02084 0.84512,5.68958 0,2.66874 -0.28078,4.86974 -0.84512,6.61156 -0.55943,1.73282 -1.54069,3.00948 -2.9582,3.83144 -1.4499,0.84074 -2.48468,0.71308 -3.08934,-0.39912 -0.59954,-1.14107 -0.90082,-3.10963 -0.90082,-5.89991 0,-2.79028 0.30128,-5.07119 0.90082,-6.83381 0.60466,-1.77129 1.63944,-3.00739 3.08934,-3.70853 0,0 0,0 0,0 m 0,3.19323 c -0.4628,0.23225 -0.79359,0.71507 -0.99086,1.44877 -0.19772,0.73534 -0.29675,1.8264 -0.29675,3.27194 0,0 0,2.35894 0,2.35894 0,1.46144 0.099,2.45514 0.29675,2.98021 0.19727,0.52391 0.52806,0.65495 0.99086,0.39504 0.46035,-0.25853 0.78204,-0.75317 0.96659,-1.48377 0.18415,-0.72903 0.27608,-1.8132 0.27608,-3.25365 0,0 0,-2.32507 0,-2.32507 0,-1.44044 -0.0919,-2.41902 -0.27608,-2.93655 -0.18455,-0.53434 -0.50624,-0.68688 -0.96659,-0.45586 0,0 0,0 0,0"
         inkscape:connector-curvature="0" />
    </g>
    <g
       transform="matrix(-0.15740789,0,0,-0.15740789,30.904408,325.96104)"
       id="text845-7-8-1-0-4-0-2"
       style="font-style:normal;font-weight:normal;font-size:11.36830807px;line-height:1.25;font-family:sans-serif;letter-spacing:0px;word-spacing:0px;fill:#bf5555;fill-opacity:1;stroke:none;stroke-width:0.2842077"
       aria-label="SAULIUS"
       inkscape:export-filename="C:\xampp\htdocs\SauliusGTO3000\img.png"
       inkscape:export-xdpi="96"
       inkscape:export-ydpi="96">
      <path
         inkscape:connector-curvature="0"
         id="path2097-0-2-6-9"
         style="font-style:normal;font-variant:normal;font-weight:normal;font-stretch:normal;font-family:'Archivo Black';-inkscape-font-specification:'Archivo Black, ';letter-spacing:0px;fill:#bf5555;fill-opacity:1;stroke-width:0.2842077"
         d="m 185.23165,236.08576 c -0.76344,0.29459 -1.39138,0.0916 -1.88357,-0.60925 -0.49241,-0.68472 -0.7445,-1.89123 -0.75609,-3.61932 0,0 0,-0.29699 0,-0.29699 0,0 1.79811,-0.68917 1.79811,-0.68917 0,0 0,0.099 0,0.099 0,0.49459 0.0636,0.88233 0.19092,1.16318 0.12727,0.28083 0.32103,0.37124 0.58124,0.27128 0.25438,-0.0977 0.4509,-0.2803 0.5896,-0.54777 0.1329,-0.26521 0.19935,-0.5543 0.19935,-0.8673 0,-0.44482 -0.0925,-0.73889 -0.27736,-0.88221 -0.18495,-0.14334 -0.48268,-0.25178 -0.89326,-0.32533 -0.48018,-0.0965 -0.87375,-0.24265 -1.18059,-0.43863 -0.31273,-0.17731 -0.58499,-0.56815 -0.81676,-1.17255 -0.23182,-0.60454 -0.35065,-1.49981 -0.35644,-2.68572 0,-2.0132 0.24053,-3.5977 0.72145,-4.75312 0.47491,-1.15272 1.11165,-1.8797 1.90994,-2.18115 0.93057,-0.35142 1.6554,-0.18048 2.1749,0.51232 0.51347,0.69465 0.77011,2.16927 0.77011,4.4241 0,0 -1.80935,0.6884 -1.80935,0.6884 0,-0.85659 -0.078,-1.40351 -0.23397,-1.64081 -0.15601,-0.22086 -0.39873,-0.26879 -0.72823,-0.14376 -0.24286,0.0922 -0.44239,0.24204 -0.59856,0.44968 -0.16199,0.20985 -0.24299,0.5456 -0.24299,1.00723 0,0.41215 0.0897,0.68304 0.26902,0.81265 0.17352,0.14827 0.45978,0.26184 0.85868,0.3407 0.48541,0.11173 0.88686,0.26353 1.20445,0.45542 0.3175,0.20831 0.59451,0.63776 0.83106,1.28828 0.23651,0.6504 0.35474,1.60923 0.35474,2.8766 0,1.85991 -0.2509,3.32259 -0.75287,4.38842 -0.50799,1.08503 -1.14908,1.77707 -1.92353,2.07591 0,0 0,-7e-5 0,-7e-5" />
      <path
         inkscape:connector-curvature="0"
         id="path2099-8-7-9-8"
         style="font-style:normal;font-variant:normal;font-weight:normal;font-stretch:normal;font-family:'Archivo Black';-inkscape-font-specification:'Archivo Black, ';letter-spacing:0px;fill:#bf5555;fill-opacity:1;stroke-width:0.2842077"
         d="m 177.44459,221.72346 c 0,0 0.2533,2.31062 0.2533,2.31062 0,0 2.10274,-0.79671 2.10274,-0.79671 0,0 0.25275,-2.49943 0.25275,-2.49943 0,0 1.96766,-0.74331 1.96766,-0.74331 0,0 -2.18554,17.87593 -2.18554,17.87593 0,0 -2.24242,0.86497 -2.24242,0.86497 0,0 -2.1946,-16.23911 -2.1946,-16.23911 0,0 2.04611,-0.77296 2.04611,-0.77296 m 1.95501,5.48313 c 0,0 -1.30004,0.49488 -1.30004,0.49488 0,0 0.6284,5.83561 0.6284,5.83561 0,0 0.0349,-0.0134 0.0349,-0.0134 0,0 0.63674,-6.3171 0.63674,-6.3171" />
      <path
         inkscape:connector-curvature="0"
         id="path2101-4-3-2-9"
         style="font-style:normal;font-variant:normal;font-weight:normal;font-stretch:normal;font-family:'Archivo Black';-inkscape-font-specification:'Archivo Black, ';letter-spacing:0px;fill:#bf5555;fill-opacity:1;stroke-width:0.2842077"
         d="m 168.95373,231.83064 c 0,-2.34138 0.26118,-4.22547 0.78336,-5.65176 0.52192,-1.42561 1.26332,-2.31963 2.22374,-2.68231 0.95956,-0.36236 1.70205,-0.0297 2.22792,0.99742 0.51976,1.02879 0.77955,2.71042 0.77955,5.04526 0,0 0,10.20873 0,10.20873 0,0 -1.93679,0.74707 -1.93679,0.74707 0,0 0,-10.14334 0,-10.14334 0,-0.96131 -0.0907,-1.69755 -0.27196,-2.20878 -0.18134,-0.49473 -0.44463,-0.67662 -0.78994,-0.54556 -0.34542,0.1311 -0.60894,0.52139 -0.79052,1.17092 -0.18747,0.65187 -0.28122,1.45068 -0.28122,2.39635 0,0 0,10.15341 0,10.15341 0,0 -1.94414,0.74991 -1.94414,0.74991 0,0 0,-10.23732 0,-10.23732" />
      <path
         inkscape:connector-curvature="0"
         id="path2103-6-7-2-0"
         style="font-style:normal;font-variant:normal;font-weight:normal;font-stretch:normal;font-family:'Archivo Black';-inkscape-font-specification:'Archivo Black, ';letter-spacing:0px;fill:#bf5555;fill-opacity:1;stroke-width:0.2842077"
         d="m 167.64112,242.57427 c 0,0 -1.95004,0.75218 -1.95004,0.75218 0,0 0,-12.77238 0,-12.77238 0,0 -3.1221,1.18579 -3.1221,1.18579 0,0 0,-4.39686 0,-4.39686 0,0 5.07214,-1.9161 5.07214,-1.9161 0,0 0,17.14737 0,17.14737" />
      <path
         inkscape:connector-curvature="0"
         id="path2105-1-9-7-6"
         style="font-style:normal;font-variant:normal;font-weight:normal;font-stretch:normal;font-family:'Archivo Black';-inkscape-font-specification:'Archivo Black, ';letter-spacing:0px;fill:#bf5555;fill-opacity:1;stroke-width:0.2842077"
         d="m 161.6477,227.69103 c 0,0 0,17.19507 0,17.19507 0,0 -1.96091,0.75637 -1.96091,0.75637 0,0 0,-17.21067 0,-17.21067 0,0 1.96091,-0.74077 1.96091,-0.74077" />
      <path
         inkscape:connector-curvature="0"
         id="path2107-6-6-2-5"
         style="font-style:normal;font-variant:normal;font-weight:normal;font-stretch:normal;font-family:'Archivo Black';-inkscape-font-specification:'Archivo Black, ';letter-spacing:0px;fill:#bf5555;fill-opacity:1;stroke-width:0.2842077"
         d="m 152.17708,238.22209 c 0,-2.35962 0.26526,-4.25918 0.79561,-5.69813 0.53008,-1.43826 1.28307,-2.34143 2.2585,-2.70978 0.97455,-0.36802 1.72863,-0.0349 2.2627,0.99857 0.52788,1.03525 0.79172,2.72917 0.79172,5.08215 0,0 0,10.28805 0,10.28805 0,0 -1.96702,0.75873 -1.96702,0.75873 0,0 0,-10.22222 0,-10.22222 0,-0.96879 -0.0921,-1.71048 -0.27621,-2.22514 -0.18417,-0.49805 -0.45158,-0.68057 -0.80227,-0.54746 -0.35082,0.13314 -0.61846,0.52725 -0.80288,1.18238 -0.1904,0.65751 -0.28561,1.46282 -0.28561,2.41585 0,0 0,10.23245 0,10.23245 0,0 -1.97454,0.76164 -1.97454,0.76164 0,0 0,-10.31709 0,-10.31709" />
      <path
         inkscape:connector-curvature="0"
         id="path2109-0-5-3-4"
         style="font-style:normal;font-variant:normal;font-weight:normal;font-stretch:normal;font-family:'Archivo Black';-inkscape-font-specification:'Archivo Black, ';letter-spacing:0px;fill:#bf5555;fill-opacity:1;stroke-width:0.2842077"
         d="m 148.25321,250.35449 c -0.7901,0.30488 -1.43996,0.10268 -1.94935,-0.60701 -0.50962,-0.69323 -0.77052,-1.91894 -0.78251,-3.6769 0,0 0,-0.30213 0,-0.30213 0,0 1.86092,-0.71325 1.86092,-0.71325 0,0 0,0.10069 0,0.10069 0,0.50316 0.0659,0.89718 0.19759,1.18203 0.13172,0.28483 0.33224,0.3755 0.60155,0.27205 0.26325,-0.10113 0.46664,-0.28821 0.61018,-0.56124 0.13754,-0.27069 0.2063,-0.56524 0.2063,-0.88365 0,-0.45252 -0.0957,-0.75104 -0.28705,-0.8956 -0.1914,-0.14458 -0.49952,-0.25289 -0.92443,-0.32493 -0.49695,-0.0949 -0.90426,-0.24097 -1.22183,-0.43827 -0.32365,-0.17828 -0.60543,-0.57405 -0.84531,-1.18737 -0.23992,-0.61345 -0.3629,-1.52344 -0.3689,-2.72986 0,-2.04808 0.24895,-3.66164 0.74667,-4.84029 0.49151,-1.17585 1.15049,-1.91965 1.97665,-2.23163 0.96306,-0.36368 1.71318,-0.19461 2.2508,0.50672 0.53138,0.70324 0.79697,2.20163 0.79697,4.49543 0,0 -1.87247,0.71241 -1.87247,0.71241 0,-0.8714 -0.0807,-1.42727 -0.24214,-1.66763 -0.16145,-0.22363 -0.41264,-0.27078 -0.75364,-0.14138 -0.25133,0.0954 -0.45783,0.24919 -0.61946,0.46146 -0.16764,0.21457 -0.25148,0.55668 -0.25148,1.0263 0,0.41929 0.0928,0.69426 0.27842,0.82491 0.17959,0.14967 0.47584,0.26329 0.88866,0.34085 0.50235,0.1104 0.91782,0.26214 1.24649,0.45521 0.32856,0.20979 0.61523,0.6448 0.86004,1.30499 0.24475,0.66005 0.3671,1.63466 0.3671,2.92393 0,1.89206 -0.25964,3.38171 -0.77912,4.46937 -0.5257,1.10723 -1.18917,1.8156 -1.99065,2.12486 0,0 0,-7e-5 0,-7e-5" />
    </g>
    <g
       transform="matrix(-0.15740789,0,0,-0.15740789,31.087177,326.07718)"
       id="text845-7-8-1-0-8-7"
       style="font-style:normal;font-weight:normal;font-size:11.36830807px;line-height:1.25;font-family:sans-serif;letter-spacing:0px;word-spacing:0px;fill:#040d17;fill-opacity:1;stroke:#bf5555;stroke-width:0.2842077;stroke-opacity:1"
       aria-label="SAULIUS"
       inkscape:export-filename="C:\xampp\htdocs\SauliusGTO3000\img.png"
       inkscape:export-xdpi="96"
       inkscape:export-ydpi="96">
      <path
         inkscape:connector-curvature="0"
         id="path2097-0-8-0"
         style="font-style:normal;font-variant:normal;font-weight:normal;font-stretch:normal;font-family:'Archivo Black';-inkscape-font-specification:'Archivo Black, ';letter-spacing:0px;fill:#040d17;fill-opacity:1;stroke:#bf5555;stroke-width:0.2842077;stroke-opacity:1"
         d="m 185.23165,236.08576 c -0.76344,0.29459 -1.39138,0.0916 -1.88357,-0.60925 -0.49241,-0.68472 -0.7445,-1.89123 -0.75609,-3.61932 0,0 0,-0.29699 0,-0.29699 0,0 1.79811,-0.68917 1.79811,-0.68917 0,0 0,0.099 0,0.099 0,0.49459 0.0636,0.88233 0.19092,1.16318 0.12727,0.28083 0.32103,0.37124 0.58124,0.27128 0.25438,-0.0977 0.4509,-0.2803 0.5896,-0.54777 0.1329,-0.26521 0.19935,-0.5543 0.19935,-0.8673 0,-0.44482 -0.0925,-0.73889 -0.27736,-0.88221 -0.18495,-0.14334 -0.48268,-0.25178 -0.89326,-0.32533 -0.48018,-0.0965 -0.87375,-0.24265 -1.18059,-0.43863 -0.31273,-0.17731 -0.58499,-0.56815 -0.81676,-1.17255 -0.23182,-0.60454 -0.35065,-1.49981 -0.35644,-2.68572 0,-2.0132 0.24053,-3.5977 0.72145,-4.75312 0.47491,-1.15272 1.11165,-1.8797 1.90994,-2.18115 0.93057,-0.35142 1.6554,-0.18048 2.1749,0.51232 0.51347,0.69465 0.77011,2.16927 0.77011,4.4241 0,0 -1.80935,0.6884 -1.80935,0.6884 0,-0.85659 -0.078,-1.40351 -0.23397,-1.64081 -0.15601,-0.22086 -0.39873,-0.26879 -0.72823,-0.14376 -0.24286,0.0922 -0.44239,0.24204 -0.59856,0.44968 -0.16199,0.20985 -0.24299,0.5456 -0.24299,1.00723 0,0.41215 0.0897,0.68304 0.26902,0.81265 0.17352,0.14827 0.45978,0.26184 0.85868,0.3407 0.48541,0.11173 0.88686,0.26353 1.20445,0.45542 0.3175,0.20831 0.59451,0.63776 0.83106,1.28828 0.23651,0.6504 0.35474,1.60923 0.35474,2.8766 0,1.85991 -0.2509,3.32259 -0.75287,4.38842 -0.50799,1.08503 -1.14908,1.77707 -1.92353,2.07591 0,0 0,-7e-5 0,-7e-5" />
      <path
         inkscape:connector-curvature="0"
         id="path2099-8-9-3"
         style="font-style:normal;font-variant:normal;font-weight:normal;font-stretch:normal;font-family:'Archivo Black';-inkscape-font-specification:'Archivo Black, ';letter-spacing:0px;fill:#040d17;fill-opacity:1;stroke:#bf5555;stroke-width:0.2842077;stroke-opacity:1"
         d="m 177.44459,221.72346 c 0,0 0.2533,2.31062 0.2533,2.31062 0,0 2.10274,-0.79671 2.10274,-0.79671 0,0 0.25275,-2.49943 0.25275,-2.49943 0,0 1.96766,-0.74331 1.96766,-0.74331 0,0 -2.18554,17.87593 -2.18554,17.87593 0,0 -2.24242,0.86497 -2.24242,0.86497 0,0 -2.1946,-16.23911 -2.1946,-16.23911 0,0 2.04611,-0.77296 2.04611,-0.77296 m 1.95501,5.48313 c 0,0 -1.30004,0.49488 -1.30004,0.49488 0,0 0.6284,5.83561 0.6284,5.83561 0,0 0.0349,-0.0134 0.0349,-0.0134 0,0 0.63674,-6.3171 0.63674,-6.3171" />
      <path
         inkscape:connector-curvature="0"
         id="path2101-4-0-3"
         style="font-style:normal;font-variant:normal;font-weight:normal;font-stretch:normal;font-family:'Archivo Black';-inkscape-font-specification:'Archivo Black, ';letter-spacing:0px;fill:#040d17;fill-opacity:1;stroke:#bf5555;stroke-width:0.2842077;stroke-opacity:1"
         d="m 168.95373,231.83064 c 0,-2.34138 0.26118,-4.22547 0.78336,-5.65176 0.52192,-1.42561 1.26332,-2.31963 2.22374,-2.68231 0.95956,-0.36236 1.70205,-0.0297 2.22792,0.99742 0.51976,1.02879 0.77955,2.71042 0.77955,5.04526 0,0 0,10.20873 0,10.20873 0,0 -1.93679,0.74707 -1.93679,0.74707 0,0 0,-10.14334 0,-10.14334 0,-0.96131 -0.0907,-1.69755 -0.27196,-2.20878 -0.18134,-0.49473 -0.44463,-0.67662 -0.78994,-0.54556 -0.34542,0.1311 -0.60894,0.52139 -0.79052,1.17092 -0.18747,0.65187 -0.28122,1.45068 -0.28122,2.39635 0,0 0,10.15341 0,10.15341 0,0 -1.94414,0.74991 -1.94414,0.74991 0,0 0,-10.23732 0,-10.23732" />
      <path
         inkscape:connector-curvature="0"
         id="path2103-6-4-9"
         style="font-style:normal;font-variant:normal;font-weight:normal;font-stretch:normal;font-family:'Archivo Black';-inkscape-font-specification:'Archivo Black, ';letter-spacing:0px;fill:#040d17;fill-opacity:1;stroke:#bf5555;stroke-width:0.2842077;stroke-opacity:1"
         d="m 167.64112,242.57427 c 0,0 -1.95004,0.75218 -1.95004,0.75218 0,0 0,-12.77238 0,-12.77238 0,0 -3.1221,1.18579 -3.1221,1.18579 0,0 0,-4.39686 0,-4.39686 0,0 5.07214,-1.9161 5.07214,-1.9161 0,0 0,17.14737 0,17.14737" />
      <path
         inkscape:connector-curvature="0"
         id="path2105-1-2-2"
         style="font-style:normal;font-variant:normal;font-weight:normal;font-stretch:normal;font-family:'Archivo Black';-inkscape-font-specification:'Archivo Black, ';letter-spacing:0px;fill:#040d17;fill-opacity:1;stroke:#bf5555;stroke-width:0.2842077;stroke-opacity:1"
         d="m 161.6477,227.69103 c 0,0 0,17.19507 0,17.19507 0,0 -1.96091,0.75637 -1.96091,0.75637 0,0 0,-17.21067 0,-17.21067 0,0 1.96091,-0.74077 1.96091,-0.74077" />
      <path
         inkscape:connector-curvature="0"
         id="path2107-6-66-3"
         style="font-style:normal;font-variant:normal;font-weight:normal;font-stretch:normal;font-family:'Archivo Black';-inkscape-font-specification:'Archivo Black, ';letter-spacing:0px;fill:#040d17;fill-opacity:1;stroke:#bf5555;stroke-width:0.2842077;stroke-opacity:1"
         d="m 152.17708,238.22209 c 0,-2.35962 0.26526,-4.25918 0.79561,-5.69813 0.53008,-1.43826 1.28307,-2.34143 2.2585,-2.70978 0.97455,-0.36802 1.72863,-0.0349 2.2627,0.99857 0.52788,1.03525 0.79172,2.72917 0.79172,5.08215 0,0 0,10.28805 0,10.28805 0,0 -1.96702,0.75873 -1.96702,0.75873 0,0 0,-10.22222 0,-10.22222 0,-0.96879 -0.0921,-1.71048 -0.27621,-2.22514 -0.18417,-0.49805 -0.45158,-0.68057 -0.80227,-0.54746 -0.35082,0.13314 -0.61846,0.52725 -0.80288,1.18238 -0.1904,0.65751 -0.28561,1.46282 -0.28561,2.41585 0,0 0,10.23245 0,10.23245 0,0 -1.97454,0.76164 -1.97454,0.76164 0,0 0,-10.31709 0,-10.31709" />
      <path
         inkscape:connector-curvature="0"
         id="path2109-0-8-6"
         style="font-style:normal;font-variant:normal;font-weight:normal;font-stretch:normal;font-family:'Archivo Black';-inkscape-font-specification:'Archivo Black, ';letter-spacing:0px;fill:#040d17;fill-opacity:1;stroke:#bf5555;stroke-width:0.2842077;stroke-opacity:1"
         d="m 148.25321,250.35449 c -0.7901,0.30488 -1.43996,0.10268 -1.94935,-0.60701 -0.50962,-0.69323 -0.77052,-1.91894 -0.78251,-3.6769 0,0 0,-0.30213 0,-0.30213 0,0 1.86092,-0.71325 1.86092,-0.71325 0,0 0,0.10069 0,0.10069 0,0.50316 0.0659,0.89718 0.19759,1.18203 0.13172,0.28483 0.33224,0.3755 0.60155,0.27205 0.26325,-0.10113 0.46664,-0.28821 0.61018,-0.56124 0.13754,-0.27069 0.2063,-0.56524 0.2063,-0.88365 0,-0.45252 -0.0957,-0.75104 -0.28705,-0.8956 -0.1914,-0.14458 -0.49952,-0.25289 -0.92443,-0.32493 -0.49695,-0.0949 -0.90426,-0.24097 -1.22183,-0.43827 -0.32365,-0.17828 -0.60543,-0.57405 -0.84531,-1.18737 -0.23992,-0.61345 -0.3629,-1.52344 -0.3689,-2.72986 0,-2.04808 0.24895,-3.66164 0.74667,-4.84029 0.49151,-1.17585 1.15049,-1.91965 1.97665,-2.23163 0.96306,-0.36368 1.71318,-0.19461 2.2508,0.50672 0.53138,0.70324 0.79697,2.20163 0.79697,4.49543 0,0 -1.87247,0.71241 -1.87247,0.71241 0,-0.8714 -0.0807,-1.42727 -0.24214,-1.66763 -0.16145,-0.22363 -0.41264,-0.27078 -0.75364,-0.14138 -0.25133,0.0954 -0.45783,0.24919 -0.61946,0.46146 -0.16764,0.21457 -0.25148,0.55668 -0.25148,1.0263 0,0.41929 0.0928,0.69426 0.27842,0.82491 0.17959,0.14967 0.47584,0.26329 0.88866,0.34085 0.50235,0.1104 0.91782,0.26214 1.24649,0.45521 0.32856,0.20979 0.61523,0.6448 0.86004,1.30499 0.24475,0.66005 0.3671,1.63466 0.3671,2.92393 0,1.89206 -0.25964,3.38171 -0.77912,4.46937 -0.5257,1.10723 -1.18917,1.8156 -1.99065,2.12486 0,0 0,-7e-5 0,-7e-5" />
    </g>
    <path
       style="fill:#bf5555;fill-opacity:1;stroke:none;stroke-width:0.04325933px;stroke-linecap:butt;stroke-linejoin:miter;stroke-opacity:1"
       d="m 10.00289,291.69007 -0.095507,0.29038 -0.5263486,0.20401 0.1100792,-0.28581 z"
       id="path3471-4"
       inkscape:connector-curvature="0"
       inkscape:export-filename="C:\xampp\htdocs\SauliusGTO3000\img.png"
       inkscape:export-xdpi="96"
       inkscape:export-ydpi="96" />
    <path
       style="fill:#bf5555;fill-opacity:1;stroke:none;stroke-width:0.04325933px;stroke-linecap:butt;stroke-linejoin:miter;stroke-opacity:1"
       d="m 7.3228529,290.80906 -0.028907,-0.27994 -0.375533,0.18093 0.3045238,0.10789 z"
       id="path3473-1"
       inkscape:connector-curvature="0"
       inkscape:export-filename="C:\xampp\htdocs\SauliusGTO3000\img.png"
       inkscape:export-xdpi="96"
       inkscape:export-ydpi="96" />
    <path
       style="fill:#bf5555;fill-opacity:1;stroke:none;stroke-width:0.04325933px;stroke-linecap:butt;stroke-linejoin:miter;stroke-opacity:1"
       d="m 4.271053,291.02389 0.036033,0.28506 0.4341931,-0.14804 z"
       id="path3475-5"
       inkscape:connector-curvature="0"
       sodipodi:nodetypes="cccc"
       inkscape:export-filename="C:\xampp\htdocs\SauliusGTO3000\img.png"
       inkscape:export-xdpi="96"
       inkscape:export-ydpi="96" />
    <path
       style="fill:#bf5555;fill-opacity:1;stroke:none;stroke-width:0.04325933px;stroke-linecap:butt;stroke-linejoin:miter;stroke-opacity:1"
       d="m 8.4309278,292.44488 -0.093592,0.29158 -0.3566392,-0.10231 z"
       id="path3477-0"
       inkscape:connector-curvature="0"
       inkscape:export-filename="C:\xampp\htdocs\SauliusGTO3000\img.png"
       inkscape:export-xdpi="96"
       inkscape:export-ydpi="96" />
    <path
       style="fill:#bf5555;fill-opacity:1;stroke:none;stroke-width:0.04325933px;stroke-linecap:butt;stroke-linejoin:miter;stroke-opacity:1"
       d="M 5.60055,291.57619 5.59668,291.792 c 0,0 -0.2982413,0.10611 -0.2905951,0.10898 0.00765,0.003 -0.2313293,-0.13478 -0.2313293,-0.13478 l 0.4589688,-0.18677 z"
       id="path3479-7"
       inkscape:connector-curvature="0"
       sodipodi:nodetypes="cccccc"
       inkscape:export-filename="C:\xampp\htdocs\SauliusGTO3000\img.png"
       inkscape:export-xdpi="96"
       inkscape:export-ydpi="96" />
    <path
       style="fill:#bf5555;fill-opacity:1;stroke:none;stroke-width:0.04325933px;stroke-linecap:butt;stroke-linejoin:miter;stroke-opacity:1"
       d="m 7.0508809,290.35987 0.01079,-0.30048 0.1103242,0.19552 z"
       id="path3481-1"
       inkscape:connector-curvature="0"
       sodipodi:nodetypes="cccc"
       inkscape:export-filename="C:\xampp\htdocs\SauliusGTO3000\img.png"
       inkscape:export-xdpi="96"
       inkscape:export-ydpi="96" />
    <path
       style="fill:#bf5555;fill-opacity:1;stroke:none;stroke-width:0.04325933px;stroke-linecap:butt;stroke-linejoin:miter;stroke-opacity:1"
       d="m 2.3255598,291.97458 -0.010513,0.29633 0.075517,0.0172 0.018161,-0.14912 z"
       id="path3483-0"
       inkscape:connector-curvature="0"
       inkscape:export-filename="C:\xampp\htdocs\SauliusGTO3000\img.png"
       inkscape:export-xdpi="96"
       inkscape:export-ydpi="96" />
    <path
       style="fill:#bf5555;fill-opacity:1;stroke:none;stroke-width:0.04325933px;stroke-linecap:butt;stroke-linejoin:miter;stroke-opacity:1"
       d="m 4.6019416,292.19683 0.031248,0.28398 0.3972895,-0.15083 c 0,0 -0.4001475,-0.13789 -0.4048792,-0.13654 -0.00473,9.3e-4 -0.023659,0.004 -0.023659,0.004 z"
       id="path3485-3"
       inkscape:connector-curvature="0"
       inkscape:export-filename="C:\xampp\htdocs\SauliusGTO3000\img.png"
       inkscape:export-xdpi="96"
       inkscape:export-ydpi="96" />
    <path
       style="fill:#bf5555;fill-opacity:1;stroke:none;stroke-width:0.04325933px;stroke-linecap:butt;stroke-linejoin:miter;stroke-opacity:1"
       d="m 11.955315,290.67878 -0.05638,0.29699 -0.05815,-0.13902 z"
       id="path3487-4"
       inkscape:connector-curvature="0"
       sodipodi:nodetypes="cccc"
       inkscape:export-filename="C:\xampp\htdocs\SauliusGTO3000\img.png"
       inkscape:export-xdpi="96"
       inkscape:export-ydpi="96" />
    <path
       style="fill:#bf5555;fill-opacity:1;stroke:none;stroke-width:0.04325933px;stroke-linecap:butt;stroke-linejoin:miter;stroke-opacity:1"
       d="m 1.3112232,290.7824 0.1789425,0.11447 0.3115717,-0.13894 -0.2095315,-0.0856 z"
       id="path3489-8"
       inkscape:connector-curvature="0"
       sodipodi:nodetypes="ccccc"
       inkscape:export-filename="C:\xampp\htdocs\SauliusGTO3000\img.png"
       inkscape:export-xdpi="96"
       inkscape:export-ydpi="96" />
  </g>
</svg>
